<?xml version="1.0" encoding="UTF-8"?>
<svg width="27px" height="32px" viewBox="0 0 27 32" version="1.1" xmlns="http://www.w3.org/2000/svg" xmlns:xlink="http://www.w3.org/1999/xlink">
    <!-- Generator: Sketch 52.5 (67469) - http://www.bohemiancoding.com/sketch -->
    <title>地址</title>
    <desc>Created with Sketch.</desc>
    <defs>
        <filter x="-5.2%" y="-15.0%" width="110.4%" height="130.0%" filterUnits="objectBoundingBox" id="filter-1">
            <feGaussianBlur stdDeviation="12" in="SourceGraphic"></feGaussianBlur>
        </filter>
    </defs>
    <g id="12.25订单详情-积分中心" stroke="none" stroke-width="1" fill="none" fill-rule="evenodd">
        <g id="订单详情" transform="translate(-71.000000, -328.000000)">
            <g id="优选" transform="translate(61.000000, 325.000000)">
                <rect id="矩形" fill="#EFF3FD" x="0" y="0" width="110" height="38" rx="8"></rect>
                <g id="分组-3" transform="translate(10.000000, 2.000000)" fill="#D3DAE4">
                    <g id="地址" transform="translate(0.000000, 1.000000)">
                        <g transform="translate(0.000000, 0.000000)" id="合并形状">
                            <path d="M13.1919178,7.10542736e-15 C14.9635275,7.10542736e-15 16.6876833,0.347994759 18.3169315,1.02816633 C19.8829079,1.69251996 21.2907049,2.64159658 22.5086866,3.84376029 C23.7108503,5.04592401 24.6599269,6.45372098 25.3242805,8.0196974 C26.0044521,9.63312765 26.3524469,11.3572835 26.3524469,13.1447111 C26.3524469,15.5490385 25.7039112,17.8900942 24.4701116,19.9306089 C24.3910219,20.0571525 24.343568,20.183696 24.2961142,20.3102396 L24.2170245,20.3893293 C24.1379348,20.468419 24.074663,20.5475087 24.0113912,20.6424164 C23.8848477,20.8164138 23.0939505,21.7813083 18.4276571,26.5425093 C16.213145,28.8044753 14.0777226,30.9557156 13.5399126,31.4777077 C13.5399126,31.4777077 13.3975511,31.6200692 13.3342793,31.6200692 C13.2710075,31.6200692 13.1760999,31.5409795 13.144464,31.5093436 C12.6066539,30.9715335 10.3921418,28.8361112 8.11435791,26.5741452 C3.321521,21.8129442 2.49898793,20.8322317 2.37244438,20.6424164 C2.30917261,20.5475087 2.23008289,20.4526011 2.15099317,20.3735113 L2.0877214,20.3102396 C2.04026757,20.1678781 1.97699579,20.0413345 1.89790608,19.914791 C0.664106475,17.8742763 0.0155707882,15.5332206 0.0155707882,13.1288932 C0.0155707882,11.3572835 0.363565547,9.63312765 1.04373712,8.00387946 C1.70809075,6.43790304 2.65716737,5.03010606 3.85933108,3.82794235 C5.06149479,2.62577864 6.48510972,1.67670202 8.05108613,1.01234839 C9.69615227,0.347994759 11.4203081,7.10542736e-15 13.1919178,7.10542736e-15 Z M13.1919178,18.8075349 C16.3080527,18.8075349 18.8547416,16.276664 18.8547416,13.1605291 C18.8547416,10.0443942 16.3238706,7.51352321 13.1919178,7.51352321 C10.0757829,7.51352321 7.52909399,10.0443942 7.52909399,13.1605291 C7.52909399,16.260846 10.0757829,18.8075349 13.1919178,18.8075349 Z"></path>
                        </g>
                    </g>
                </g>
            </g>
        </g>
    </g>
</svg>