<?xml version="1.0" encoding="UTF-8"?>
<svg width="29px" height="32px" viewBox="0 0 29 32" version="1.1" xmlns="http://www.w3.org/2000/svg" xmlns:xlink="http://www.w3.org/1999/xlink">
    <!-- Generator: Sketch 52.5 (67469) - http://www.bohemiancoding.com/sketch -->
    <title>生日</title>
    <desc>Created with Sketch.</desc>
    <g id="12.25订单详情-积分中心" stroke="none" stroke-width="1" fill="none" fill-rule="evenodd">
        <g id="订单详情" transform="translate(-199.000000, -327.000000)" fill="#D3DAE4" fill-rule="nonzero">
            <g id="优选-copy" transform="translate(189.000000, 325.000000)">
                <g id="分组-3" transform="translate(10.000000, 2.000000)">
                    <g id="生日">
                        <g id="形状">
                            <path d="M4.09395326,2.59253747 C4.98470248,2.60285261 5.53661768,1.64354497 4.09395326,0 C2.67574079,1.64354497 3.22416285,2.58566071 4.09395326,2.59253747 Z M14.4860275,2.59253747 C15.3767767,2.60285261 15.9286919,1.64354497 14.4860275,0 C13.067815,1.64354497 13.6162371,2.58566071 14.4860275,2.59253747 Z M25.0317996,2.59253747 C25.9225488,2.60285261 26.474464,1.64354497 25.0317996,0 C23.6170802,1.64354497 24.1620092,2.58566071 25.0317996,2.59253747 Z M25.7618646,21.92168 C24.7907733,21.92168 24.0502289,21.2711783 22.7857143,19.6761126 L22.5900988,19.4266052 C21.4059263,17.9295603 20.8714768,17.4394563 20.3020959,17.4394563 C19.7047699,17.4394563 19.1284028,17.9161938 18.0490243,19.1993751 C17.9477234,19.3241289 17.9477234,19.3241289 17.8429294,19.4444271 C16.3129366,21.2667228 15.5584197,21.92168 14.4406167,21.92168 C13.3752108,21.92168 12.6032281,21.2711783 11.2863166,19.6627462 C11.1920019,19.5513589 11.1920019,19.5513589 11.1011804,19.4399716 C9.87159721,17.9340158 9.2987232,17.4394563 8.58612383,17.4394563 C7.88749699,17.4394563 7.34955432,17.9340158 6.26668273,19.4043277 C6.13394363,19.5870028 6.13394363,19.5870028 5.99771139,19.7652225 C4.87990846,21.2711783 4.15682968,21.92168 3.15080703,21.92168 C2.7176584,21.92168 2.26355095,21.7701933 1.79896411,21.4850419 C1.21211756,21.1286026 0.611298482,20.5761218 -3.01980663e-14,19.8721542 L-3.01980663e-14,29.7410662 C-3.01980663e-14,30.9975146 0.646229824,32 1.43567815,32 L27.5538424,32 C28.3432908,32 28.9895206,30.9886036 28.9895206,29.7410662 L28.9895206,19.751856 C28.5039749,20.3087923 28.0289087,20.7766189 27.567815,21.1330581 C26.9285714,21.6409841 26.3242592,21.92168 25.7618646,21.92168 Z M27.5573356,11.0956478 L25.772344,11.0956478 L25.772344,4.75527761 L24.0362563,4.75527761 L24.0362563,11.0956478 L15.3662973,11.0956478 L15.3662973,4.75527761 L13.6302096,4.75527761 L13.6302096,11.0956478 L4.95675741,11.0956478 L4.95675741,4.75527761 L3.22066972,4.75527761 L3.22066972,11.0956478 L1.43567815,11.0956478 C0.646229824,11.0956478 0,11.8761597 0,12.8389057 L0,16.782726 C0.178149843,16.9718368 0.359792821,17.1609476 0.544928933,17.3397433 C1.17369309,17.9483363 1.78149843,18.4056407 2.32642737,18.6600807 C2.63382318,18.8044926 2.91327391,18.8766986 3.15080703,18.8766986 C3.69224283,18.8766986 4.17778848,18.5397374 5.0475789,17.6354439 C5.17682486,17.5013471 5.17682486,17.5013471 5.31305709,17.3603736 C6.65092749,15.9575151 7.41243074,15.4176897 8.58612383,15.4176897 C9.74584437,15.4176897 10.5108408,15.9265697 11.9989159,17.3328666 L12.1805589,17.5047855 C13.2529511,18.5122304 13.8118526,18.8766986 14.4406167,18.8766986 C15.1147916,18.8766986 15.6876656,18.4950385 16.9521802,17.3294282 C17.0534811,17.2331536 17.0534811,17.2331536 17.1617682,17.136879 C18.4891592,15.9162546 19.2681282,15.4211281 20.2986027,15.4211281 C21.3395567,15.4211281 22.0416767,15.919693 23.5052999,17.3431817 C23.6031077,17.4394563 23.6031077,17.4394563 23.7009154,17.5322925 C24.7069381,18.508792 25.2483739,18.8766986 25.7653577,18.8766986 C26.0657673,18.8766986 26.4639846,18.735725 26.9250783,18.453778 C27.3756926,18.1821461 27.8647314,17.7970477 28.374729,17.3259898 C28.5878102,17.1300022 28.7973982,16.9236995 29,16.7139584 L29,12.8389057 C28.9965069,11.8727213 28.350277,11.0956478 27.5573356,11.0956478 Z"></path>
                        </g>
                    </g>
                </g>
            </g>
        </g>
    </g>
</svg>