<?xml version="1.0" standalone="no"?><!DOCTYPE svg PUBLIC "-//W3C//DTD SVG 1.1//EN" "http://www.w3.org/Graphics/SVG/1.1/DTD/svg11.dtd"><svg t="1539329960395" class="icon" style="" viewBox="0 0 1026 1024" version="1.1" xmlns="http://www.w3.org/2000/svg" p-id="1333" xmlns:xlink="http://www.w3.org/1999/xlink" width="200.390625" height="200"><defs><style type="text/css"></style></defs><path d="M587.666836 672.115941s-76.207449 60.863667-102.291877 76.718909a343.189249 343.189249 0 0 1-67.512639 29.664644 282.837041 282.837041 0 0 1-51.145939 12.275025l-37.847995 3.068757h-18.923997a285.394338 285.394338 0 0 1-74.161611-9.206269 188.217055 188.217055 0 0 1-60.863667-27.618807 134.513819 134.513819 0 0 1-40.916751-46.031345 132.467981 132.467981 0 0 1-14.832323-64.443883 109.452309 109.452309 0 0 1 17.389619-57.283451 153.437816 153.437816 0 0 1 42.962589-43.985508 204.583755 204.583755 0 0 1 58.30637-27.107347 196.911864 196.911864 0 0 1 63.420964-5.626053 386.663297 386.663297 0 0 1 60.863667 7.67189 553.910517 553.910517 0 0 1 56.260533 14.832323q27.107348 8.69481 51.145939 18.923997l45.519885 19.435457 17.901079 7.160431 19.435456 7.160432a414.793563 414.793563 0 0 0 35.290698-51.145939q14.320863-25.572969 23.527132-46.542804t14.320863-35.290698q5.114594-14.320863 6.648972-19.946916H320.685036v-37.336536h146.788844V317.674586h-204.583755V282.895348h204.583755V218.451465a11.763566 11.763566 0 0 1 7.160432-12.786485 51.145939 51.145939 0 0 1 16.3667-5.626053 124.284631 124.284631 0 0 1 24.550051 0h55.237613V282.895348h210.209809v34.267779h-210.209809v80.299123h167.24722a409.16751 409.16751 0 0 1-16.87816 67.51264 519.642738 519.642738 0 0 1-29.664644 70.069936 494.069768 494.069768 0 0 1-51.145939 81.322042 1417.765422 1417.765422 0 0 0 338.586115 106.383553 511.459387 511.459387 0 1 0-44.496967 78.764745 1882.682005 1882.682005 0 0 1-345.746546-129.399225z m-402.007078-23.015672c0 87.971015 97.177284 94.108527 112.521065 94.619987a224.530671 224.530671 0 0 0 123.261712-36.313617 707.348333 707.348333 0 0 0 85.413718-69.558477l5.626053-5.626053-40.916751-20.969835a460.313449 460.313449 0 0 0-141.67425-51.145938c-114.566903-11.763566-143.720088 60.352208-144.743007 86.948095z" fill="#338EF4" p-id="1334"></path></svg>