<?xml version="1.0" standalone="no"?><!DOCTYPE svg PUBLIC "-//W3C//DTD SVG 1.1//EN" "http://www.w3.org/Graphics/SVG/1.1/DTD/svg11.dtd"><svg t="1538209394739" class="icon" style="" viewBox="0 0 1024 1024" version="1.1" xmlns="http://www.w3.org/2000/svg" p-id="30208" xmlns:xlink="http://www.w3.org/1999/xlink" width="200" height="200"><defs><style type="text/css"></style></defs><path d="M378.507 250.764h260.925s19.715-57.653 142.595-148.676c-23.52-12.142-57.362 6.627-71.307-4.55-14.928-11.979-12.143-54.613-48.551-59.165s-74.329 45.511-74.329 45.511-33.35 30.347-48.533-16.675-71.307-51.573-89.511-51.573-63.333 13.653-71.307 71.689c-3.422 18.205-22.755 25.031-38.685 15.93s-37.537-15.93-70.542-12.525c38.703 42.469 136.551 135.769 109.245 160.035zM874.578 802.213s1.51-213.902 0-229.067c-5.316-109.227-223.77-254.862-223.77-254.862h-267.75c-96.338 54.613-216.178 175.218-229.067 257.138-1.129 4.259-9.102 180.533-12.143 240.444s-42.47 116.053-42.47 116.053 98.613 70.543 422.489 72.818 370.151-56.125 402.773-75.093c-44 1.511-50.062-127.431-50.062-127.431zM645.13 763.257c-4.388 28.217-20.080 89.893-105.058 96.046v54.031h-60.039v-53.594c-35.881-5.042-68.941-14.326-102.928-25.723l18.004-70.543c26.943 10.523 62.442 21.773 93.698 25.395 42.398 4.934 70.961-3.787 73.619-34.515 6.062-53.849-182.81-63.333-181.025-160.491-2.567-71.379 49.188-102.473 100.779-106.769v-56.16h60.039v53.594c34.097 0.418 61.075 7.773 87.363 19.26l-16.64 66.483c-26.414-9.939-53.429-19.279-85.742-19.279-20.935 0-64.881 0.074-66.391 28.891 0 49.68 83.139 52.246 110.737 63.97 20.116 8.557 34.115 16.912 48.442 30.912 25.013 24.43 30.202 55.905 25.141 88.491z" fill="" p-id="30209"></path></svg>