<?xml version="1.0" standalone="no"?><!DOCTYPE svg PUBLIC "-//W3C//DTD SVG 1.1//EN" "http://www.w3.org/Graphics/SVG/1.1/DTD/svg11.dtd"><svg class="icon" width="17px" height="17.00px" viewBox="0 0 1024 1024" version="1.1" xmlns="http://www.w3.org/2000/svg"><path d="M796.255687 607.066416c53.011393 0 102.233188 18.949015 140.097446 49.272964L936.353132 262.146456c0-18.954132-11.357537-49.278081-26.504673-64.435451L743.2402 27.145313C728.099204 11.98385 701.593508 0.614032 678.871269 0.614032l-564.192684 0C73.031893 0.614032 38.95007 34.729626 38.95007 76.418277l0 826.291041c0 41.693768 34.081823 75.809362 75.728515 75.809362l511.181291 0c-34.075683-37.90724-56.797921-90.970826-56.797921-147.826056C569.062978 709.402966 671.30026 607.066416 796.255687 607.066416L796.255687 607.066416zM659.941699 95.371385c0-22.741683 11.358561-26.533328 26.504673-11.370841l170.390694 170.561599c15.147136 15.162487 11.359584 26.533328-11.358561 26.533328l-109.809314 0c-41.651809 0-75.728515-34.110478-75.728515-75.804245L659.940676 95.371385 659.941699 95.371385zM182.83609 186.337094 519.839137 186.337094c15.147136 0 26.504673 11.374935 26.504673 26.531281 0 15.162487-11.357537 26.536398-26.504673 26.536398L182.83609 239.404773c-15.142019 0-26.504673-11.373912-26.504673-26.536398C156.330394 197.712029 167.694072 186.337094 182.83609 186.337094L182.83609 186.337094zM182.83609 337.950702l617.204078 0c15.146112 0 26.504673 11.375958 26.504673 26.533328 0 15.16044-11.359584 26.531281-26.504673 26.531281l-617.204078 0c-15.142019 0-26.504673-11.370841-26.504673-26.531281C156.330394 349.325637 167.694072 337.950702 182.83609 337.950702L182.83609 337.950702zM156.330394 516.096614c0-15.162487 11.362654-26.531281 26.504673-26.531281l450.600935 0c15.140995 0 26.504673 11.369818 26.504673 26.531281s-11.364701 26.531281-26.504673 26.531281L182.83609 542.627895C167.694072 542.627895 156.330394 531.258077 156.330394 516.096614L156.330394 516.096614zM156.330394 516.096614" /><path d="M796.255687 644.968539c-106.025856 0-189.330498 83.387535-189.330498 189.515731s83.303618 189.515731 189.330498 189.515731c106.022786 0 189.326404-83.387535 189.326404-189.515731S902.278473 644.968539 796.255687 644.968539L796.255687 644.968539zM796.255687 982.306232c-83.303618 0-151.461123-68.225049-151.461123-151.612584s68.156482-151.612584 151.461123-151.612584c83.298501 0 151.462147 68.225049 151.462147 151.612584C947.717833 917.871805 879.554187 982.306232 796.255687 982.306232L796.255687 982.306232zM796.255687 982.306232"/><path d="M898.488875 788.998857l-53.01037-7.578173-26.504673-49.272964c-7.57715-15.162487-30.294271-15.162487-37.864257 0l-26.50672 49.272964-53.01037 7.578173c-7.575103 0-15.147136 7.58329-18.934687 15.162487-3.787551 7.58329 0 15.16044 7.569986 18.954132l41.651809 37.901099-11.358561 56.856254c0 7.578173 3.787551 15.162487 7.575103 18.954132 3.782435 3.786528 15.142019 7.578173 22.717122 3.786528l49.223842-26.531281 49.226912 26.531281c3.782435 3.791645 7.569986 3.791645 7.569986 3.791645 7.57715 0 7.57715-3.791645 11.359584-3.791645 7.575103-7.578173 7.575103-11.369818 7.575103-18.949015l-3.787551-53.063586 41.651809-37.90724c3.787551-7.578173 3.787551-18.949015 3.787551-26.531281C909.848459 796.582147 906.066024 792.790502 898.488875 788.998857L898.488875 788.998857zM898.488875 788.998857" /></svg>