<?xml version="1.0" standalone="no"?><!DOCTYPE svg PUBLIC "-//W3C//DTD SVG 1.1//EN" "http://www.w3.org/Graphics/SVG/1.1/DTD/svg11.dtd"><svg t="1538206865908" class="icon" style="" viewBox="0 0 1024 1024" version="1.1" xmlns="http://www.w3.org/2000/svg" p-id="24920" xmlns:xlink="http://www.w3.org/1999/xlink" width="200" height="200"><defs><style type="text/css"></style></defs><path d="M863.372547 102.4 653.552941 102.4C632.470588 43.008 577.254902 0 512 0 446.745098 0 391.529412 43.008 370.447059 102.4L160.627451 102.4C105.411765 102.4 60.235294 148.48 60.235294 204.8L60.235294 921.6C60.235294 977.92 105.411765 1024 160.627451 1024L863.372547 1024C918.588235 1024 963.764706 977.92 963.764706 921.6L963.764706 204.8C963.764706 148.48 918.588235 102.4 863.372547 102.4L863.372547 102.4ZM512 102.4C539.607843 102.4 562.196078 125.44 562.196078 153.6 562.196078 181.76 539.607843 204.8 512 204.8 484.392157 204.8 461.803922 181.76 461.803922 153.6 461.803922 125.44 484.392157 102.4 512 102.4L512 102.4ZM612.392157 819.2 261.019608 819.2 261.019608 716.8 612.392157 716.8 612.392157 819.2 612.392157 819.2ZM762.980394 614.4 261.019608 614.4 261.019608 512 762.980394 512 762.980394 614.4 762.980394 614.4ZM762.980394 409.6 261.019608 409.6 261.019608 307.2 762.980394 307.2 762.980394 409.6 762.980394 409.6Z" p-id="24921"></path></svg>