<?xml version="1.0" standalone="no"?><!DOCTYPE svg PUBLIC "-//W3C//DTD SVG 1.1//EN" "http://www.w3.org/Graphics/SVG/1.1/DTD/svg11.dtd"><svg class="icon" width="17px" height="17.00px" viewBox="0 0 1024 1024" version="1.1" xmlns="http://www.w3.org/2000/svg"><path d="M842.24 168.448h-660.48c-53.248 0-96.768 43.52-96.768 96.768V742.4c0 53.248 43.52 96.768 96.768 96.768h660.48c53.248 0 96.768-43.52 96.768-96.768V265.216c0-53.248-43.52-96.768-96.768-96.768zM329.216 716.8H237.568c-16.896 0-30.72-13.312-30.72-30.72 0-16.896 13.312-30.72 30.72-30.72h91.648c16.896 0 30.72 13.312 30.72 30.72s-14.336 30.72-30.72 30.72z m457.216-304.64H237.568c-16.896 0-30.72-13.312-30.72-30.72 0-16.896 13.312-30.72 30.72-30.72h549.376c16.896 0 30.72 13.312 30.72 30.72-1.024 17.408-14.336 30.72-31.232 30.72z"/></svg>