<?xml version="1.0" encoding="UTF-8"?>
<svg width="31px" height="31px" viewBox="0 0 31 31" version="1.1" xmlns="http://www.w3.org/2000/svg" xmlns:xlink="http://www.w3.org/1999/xlink">
    <!-- Generator: Sketch 51 (57462) - http://www.bohemiancoding.com/sketch -->
    <title>充值</title>
    <desc>Created with Sketch.</desc>
    <defs></defs>
    <g id="Page-1" stroke="none" stroke-width="1" fill="none" fill-rule="evenodd">
        <g id="常见问题" transform="translate(-289.000000, -78.000000)">
            <g id="充值" transform="translate(289.000000, 78.000000)" fill="#1F7CF0" fill-rule="nonzero">
                <g id="Shape">
                    <path d="M21.6138694,7.18962625 L17.0033142,15.0331357 L20.6361233,15.0331357 L20.6361233,16.7661543 L16.4033567,16.7661543 L16.4033567,19.1546953 L20.6361233,19.1546953 L20.6361233,20.9100394 L16.4033567,20.9100394 L16.4033567,24.3872813 L14.225997,24.3872813 L14.225997,20.9100394 L9.83761063,20.9100394 L9.83761063,19.1546953 L14.225997,19.1546953 L14.225997,16.7661543 L9.83761063,16.7661543 L9.83761063,15.0331357 L13.5816268,15.0331357 L9.01551935,7.18962625 L11.4708161,7.18962625 C13.6037421,11.0855494 14.8997889,13.555501 15.3591387,14.5997961 L15.4035728,14.5997961 C15.5591565,14.1702814 15.9848825,13.3037493 16.6811295,12.0002035 L19.2918393,7.18965077 L21.6138694,7.18962625 Z M24.8143687,19.0874807 C24.2868237,19.0874807 23.8599919,19.5143546 23.8599919,20.0418576 C23.8599919,20.5693606 24.2868657,20.9962344 24.8143687,20.9962344 L27.3355736,20.9962344 C25.1918246,25.5091026 20.5987403,28.6313752 15.2704357,28.6313752 C7.89157893,28.6313752 1.90881673,22.6495938 1.90881673,15.2698963 C1.90881673,7.89005881 7.89157893,1.90873266 15.2704357,1.90873266 C21.9996334,1.90873266 27.551753,6.88902056 28.4800076,13.3610936 L30.4092514,13.3610936 C29.4679952,5.83036481 23.0555431,0 15.2704217,0 C6.83651683,4.97746996e-16 0,6.83686709 0,15.2699314 C0,23.7028555 6.83651683,30.540213 15.2704217,30.540213 C21.0229241,30.540213 26.0278352,27.3565436 28.6319006,22.6571243 L28.6319006,24.8138644 C28.6319006,25.3414094 29.0587744,25.7682412 29.5873002,25.7682412 C30.1128418,25.7682412 30.5416771,25.3413674 30.5416771,24.8138644 L30.541677,20.0419101 C30.541677,19.9264152 30.541677,19.0875333 29.5873002,19.0875333 L24.8143652,19.0875333 L24.8143652,19.0874907 L24.8143687,19.0874807 Z"></path>
                </g>
            </g>
        </g>
    </g>
</svg>