<?xml version="1.0" standalone="no"?><!DOCTYPE svg PUBLIC "-//W3C//DTD SVG 1.1//EN" "http://www.w3.org/Graphics/SVG/1.1/DTD/svg11.dtd"><svg t="1544006508424" class="icon" style="" viewBox="0 0 1024 1024" version="1.1" xmlns="http://www.w3.org/2000/svg" p-id="2727" xmlns:xlink="http://www.w3.org/1999/xlink" width="200" height="200"><defs><style type="text/css"></style></defs><path d="M473.604176 591.535031a179.372493 179.372493 0 0 1-179.180515-179.180515c0-98.805255 80.375259-179.180514 179.180515-179.180514 98.805255 0 179.180514 80.375259 179.180514 179.180514 0 98.805255-80.375259 179.180514-179.180514 179.180515m11.454754-591.295697a408.2756 408.2756 0 0 0-299.03948 115.827404A400.724421 400.724421 0 0 0 64.048715 405.635247c0 76.791649 21.565655 136.817121 57.721722 200.746169l271.842438 355.929293c18.877947 23.613432 47.226864 37.115964 77.687551 37.115963 31.99652 0 62.07325-14.52642 82.359044-39.931657l247.141123-311.646109 25.021279-41.46749c36.732005-64.121027 58.29766-125.042402 57.337764-204.649744-2.751701-215.464568-181.356278-395.476992-398.100706-401.428345" p-id="2728"></path></svg>