<?xml version="1.0" standalone="no"?><!DOCTYPE svg PUBLIC "-//W3C//DTD SVG 1.1//EN" "http://www.w3.org/Graphics/SVG/1.1/DTD/svg11.dtd"><svg t="1537424875904" class="icon" style="" viewBox="0 0 1024 1024" version="1.1" xmlns="http://www.w3.org/2000/svg" p-id="2620" xmlns:xlink="http://www.w3.org/1999/xlink" width="200" height="200"><defs><style type="text/css"></style></defs><path d="M1000.877 375.137c10.625-15.936 7.083-37.184-7.083-49.579-15.936-12.395-37.184-8.853-49.579 7.083-1.772 1.771-198.315 233.729-432.046 233.729-226.645 0-432.045-233.729-433.815-235.5-12.396-14.165-35.413-15.936-49.58-3.542-14.165 12.395-15.936 35.413-3.542 49.58 3.542 5.311 46.038 53.119 113.323 106.24l-90.305 93.846c-14.165 14.165-12.394 37.184 1.772 49.579 3.542 7.083 12.395 10.625 21.249 10.625 8.852 0 17.706-3.542 24.788-10.625l97.387-100.928c46.038 31.873 100.929 61.974 161.132 83.221l-37.185 125.718c-5.311 19.476 5.313 38.954 24.79 44.267h10.623c15.936 0 30.102-10.625 33.643-26.56l37.184-125.718c28.331 5.312 58.433 8.854 88.534 8.854s60.204-3.542 88.535-8.854l37.183 123.949c3.543 15.936 19.478 26.559 33.644 26.559 3.542 0 7.083 0 8.854-1.771 19.476-5.313 30.101-24.788 24.79-44.267l-37.185-123.949c60.205-21.249 115.094-51.35 161.132-83.221l95.617 99.157c7.083 7.083 15.936 10.625 24.788 10.625 8.853 0 17.708-3.542 24.788-10.623 14.165-14.166 14.165-35.413 1.772-49.58l-90.305-93.845c72.599-53.122 115.098-104.47 115.098-104.47z" fill="" p-id="2621"></path></svg>