<?xml version="1.0" encoding="UTF-8"?>
<svg width="59px" height="59px" viewBox="0 0 59 59" version="1.1" xmlns="http://www.w3.org/2000/svg" xmlns:xlink="http://www.w3.org/1999/xlink">
    <!-- Generator: Sketch 52.5 (67469) - http://www.bohemiancoding.com/sketch -->
    <title>客户-未点击</title>
    <desc>Created with Sketch.</desc>
    <defs>
        <linearGradient x1="50%" y1="6.35344232%" x2="50%" y2="97.0485264%" id="linearGradient-1">
            <stop stop-color="#FE3A23" offset="0%"></stop>
            <stop stop-color="#FF5950" offset="100%"></stop>
        </linearGradient>
        <path d="M9.4034194,36.1025562 L1.03116165,27.7302985 C0.604009958,27.3031468 0.26028941,26.8241576 6.15868467e-13,26.3135808 C0.812053839,24.7206773 0.812053839,22.8203237 6.1817218e-13,21.2274202 C0.26028941,20.7168433 0.604009958,20.2378542 1.03116165,19.8107025 L19.840202,1.00166213 C20.2514076,0.590456501 20.7106527,0.256569126 21.1998716,3.95128374e-13 C22.8479121,0.920423275 24.8622488,0.943635704 26.5287647,0.0696372876 C26.9699223,0.316021821 27.3848326,0.626696767 27.759798,1.00166213 L46.5688384,19.8107025 C46.99599,20.2378542 47.3397106,20.7168433 47.6,21.2274202 C46.7879462,22.8203237 46.7879462,24.7206773 47.6,26.3135808 C47.3397106,26.8241576 46.99599,27.3031468 46.5688384,27.7302985 L37.9477043,36.3514326 C37.2977765,35.9388988 36.5267871,35.7 35.7,35.7 C33.3804041,35.7 31.5,37.5804041 31.5,39.9 C31.5,40.7267871 31.7388988,41.4977765 32.1514326,42.1477043 L32.0424948,42.256642 C31.5445871,40.4927115 29.923258,39.2 28,39.2 C25.6804041,39.2 23.8,41.0804041 23.8,43.4 C23.8,45.2566241 25.0046877,46.8318783 26.6750317,47.3867314 C26.5443959,47.4649937 26.4112573,47.5374618 26.2759862,47.6041357 C24.7474686,46.8988713 22.9665251,46.9193266 21.4526501,47.6655016 C21.1784087,47.5389655 20.9122931,47.3890683 20.6573034,47.2158099 C22.0992512,46.5506439 23.1,45.0921907 23.1,43.4 C23.1,41.0804041 21.2195959,39.2 18.9,39.2 C17.170019,39.2 15.6843317,40.2459458 15.0408193,41.7399561 L14.9974438,41.6965806 C15.2555905,41.1518972 15.4,40.5428129 15.4,39.9 C15.4,37.5804041 13.5195959,35.7 11.2,35.7 C10.5571871,35.7 9.94810285,35.8444095 9.4034194,36.1025562 Z M9.93604819,36.635185 C10.3280956,36.4833018 10.7543197,36.4 11.2,36.4 C13.1329966,36.4 14.7,37.9670034 14.7,39.9 C14.7,40.3456803 14.6166982,40.7719044 14.464815,41.1639518 L13.9095397,40.6086765 C13.9685755,40.3823328 14,40.1448362 14,39.9 C14,38.3536027 12.7463973,37.1 11.2,37.1 C10.9551638,37.1 10.7176672,37.1314245 10.4913235,37.1904603 L9.93604819,36.635185 Z M11.1030609,37.8021977 C11.1351911,37.8007379 11.1675094,37.8 11.2,37.8 C12.359798,37.8 13.3,38.740202 13.3,39.9 C13.3,39.9324906 13.2992621,39.9648089 13.2978023,39.9969391 L11.1030609,37.8021977 Z M37.4378786,36.8612582 L36.9200577,37.3790791 C36.5512815,37.2002714 36.1373506,37.1 35.7,37.1 C34.1536027,37.1 32.9,38.3536027 32.9,39.9 C32.9,40.3373506 33.0002714,40.7512815 33.1790791,41.1200577 L32.6612582,41.6378786 C32.3677784,41.1258239 32.2,40.5325053 32.2,39.9 C32.2,37.9670034 33.7670034,36.4 35.7,36.4 C36.3325053,36.4 36.9258239,36.5677784 37.4378786,36.8612582 Z M36.384911,37.9142258 L35.7959035,38.5032333 C35.7642133,38.5010894 35.7322339,38.5 35.7,38.5 C34.9268014,38.5 34.3,39.1268014 34.3,39.9 C34.3,39.9322339 34.3010894,39.9642133 34.3032333,39.9959035 L33.7142258,40.584911 C33.6401988,40.3702434 33.6,40.1398162 33.6,39.9 C33.6,38.740202 34.540202,37.8 35.7,37.8 C35.9398162,37.8 36.1702434,37.8401988 36.384911,37.9142258 Z M27.4204247,46.8522359 C25.7632433,46.5760737 24.5,45.13556 24.5,43.4 C24.5,41.4670034 26.0670034,39.9 28,39.9 C29.743497,39.9 31.189243,41.1748238 31.4559516,42.8431852 L30.7982151,43.5009217 C30.7994017,43.467428 30.8,43.4337838 30.8,43.4 C30.8,41.8536027 29.5463973,40.6 28,40.6 C26.4536027,40.6 25.2,41.8536027 25.2,43.4 C25.2,44.9463973 26.4536027,46.2 28,46.2 C28.0337838,46.2 28.067428,46.1994017 28.1009223,46.198215 L27.759798,46.5393388 C27.6499849,46.6491519 27.5367458,46.753451 27.4204247,46.8522359 Z M29.1266007,45.1725361 C28.8010629,45.3798758 28.4145597,45.5 28,45.5 C26.840202,45.5 25.9,44.559798 25.9,43.4 C25.9,42.240202 26.840202,41.3 28,41.3 C29.159798,41.3 30.1,42.240202 30.1,43.4 C30.1,43.8145597 29.9798758,44.2010629 29.7725361,44.5266007 L29.1266007,45.1725361 Z M20.0243937,46.7154791 C19.9619988,46.6584328 19.9005825,46.5997193 19.840202,46.5393388 L19.4473837,46.1465205 C20.7317188,45.8919862 21.7,44.7590702 21.7,43.4 C21.7,41.8536027 20.4463973,40.6 18.9,40.6 C17.5409298,40.6 16.4080138,41.5682812 16.1534795,42.8526163 L15.582487,42.2816238 C16.049063,40.8970667 17.3580928,39.9 18.9,39.9 C20.8329966,39.9 22.4,41.4670034 22.4,43.4 C22.4,44.9396725 21.4058213,46.2471421 20.0243937,46.7154791 Z M18.7984529,45.4975897 L16.8024103,43.5015471 C16.8008101,43.4679007 16.8,43.434045 16.8,43.4 C16.8,42.240202 17.740202,41.3 18.9,41.3 C20.059798,41.3 21,42.240202 21,43.4 C21,44.559798 20.059798,45.5 18.9,45.5 C18.865955,45.5 18.8320993,45.4991899 18.798451,45.4975878 Z M18.9,44.1 C18.5134007,44.1 18.2,43.7865993 18.2,43.4 C18.2,43.0134007 18.5134007,42.7 18.9,42.7 C19.2865993,42.7 19.6,43.0134007 19.6,43.4 C19.6,43.7865993 19.2865993,44.1 18.9,44.1 Z M18.9,44.8 C19.6731986,44.8 20.3,44.1731986 20.3,43.4 C20.3,42.6268014 19.6731986,42 18.9,42 C18.1268014,42 17.5,42.6268014 17.5,43.4 C17.5,44.1731986 18.1268014,44.8 18.9,44.8 Z M28,44.1 C27.6134007,44.1 27.3,43.7865993 27.3,43.4 C27.3,43.0134007 27.6134007,42.7 28,42.7 C28.3865993,42.7 28.7,43.0134007 28.7,43.4 C28.7,43.7865993 28.3865993,44.1 28,44.1 Z M28,44.8 C28.7731986,44.8 29.4,44.1731986 29.4,43.4 C29.4,42.6268014 28.7731986,42 28,42 C27.2268014,42 26.6,42.6268014 26.6,43.4 C26.6,44.1731986 27.2268014,44.8 28,44.8 Z" id="path-2"></path>
        <path d="M24.2458247,7.36181778 C24.996122,6.32544356 25.853877,5.42404962 27.7758023,5.42404962 C29.6977276,5.42404962 30.9839693,4.94517486 34.2123747,6.54450754 C35.9392872,10.3257958 37.9176356,10.0990443 37.8906492,11.2630691 C36.7655918,10.9288912 35.8343653,11.9456829 29.4926534,10.7597036 C29.2441523,10.9576897 26.7348089,10.3708245 27.054577,8.44591667 C19.0485499,12.9728356 23.4955274,8.39819199 24.2458247,7.36181778 Z" id="path-4"></path>
        <filter x="-6.4%" y="-16.7%" width="112.9%" height="133.4%" filterUnits="objectBoundingBox" id="filter-5">
            <feGaussianBlur stdDeviation="0.5" in="SourceAlpha" result="shadowBlurInner1"></feGaussianBlur>
            <feOffset dx="0" dy="-1" in="shadowBlurInner1" result="shadowOffsetInner1"></feOffset>
            <feComposite in="shadowOffsetInner1" in2="SourceAlpha" operator="arithmetic" k2="-1" k3="1" result="shadowInnerInner1"></feComposite>
            <feColorMatrix values="0 0 0 0 0.714817177   0 0 0 0 0.714506926   0 0 0 0 0.714506926  0 0 0 0.5 0" type="matrix" in="shadowInnerInner1"></feColorMatrix>
        </filter>
        <path d="M35.5386796,24.6878855 C36.4172781,23.8641475 37.5273448,23.8583403 39.4492701,23.8583403 C41.3711954,23.8583403 41.6009942,25.1736645 41.9757797,25.8785334 C42.3505651,26.5834024 41.7638734,29.6796175 39.9877012,26.1044597 C39.6879806,26.0558653 39.7955171,25.4938196 39.5115289,25.7415747 C38.6114942,25.6015394 36.8726445,25.7588883 33.8367962,28.4281437 C29.826047,29.2281475 34.6600811,25.5116236 35.5386796,24.6878855 Z" id="path-6"></path>
        <filter x="-10.2%" y="-21.4%" width="120.4%" height="142.7%" filterUnits="objectBoundingBox" id="filter-7">
            <feGaussianBlur stdDeviation="0.5" in="SourceAlpha" result="shadowBlurInner1"></feGaussianBlur>
            <feOffset dx="0" dy="-1" in="shadowBlurInner1" result="shadowOffsetInner1"></feOffset>
            <feComposite in="shadowOffsetInner1" in2="SourceAlpha" operator="arithmetic" k2="-1" k3="1" result="shadowInnerInner1"></feComposite>
            <feColorMatrix values="0 0 0 0 0.714817177   0 0 0 0 0.714506926   0 0 0 0 0.714506926  0 0 0 0.5 0" type="matrix" in="shadowInnerInner1"></feColorMatrix>
        </filter>
    </defs>
    <g id="Page-1" stroke="none" stroke-width="1" fill="none" fill-rule="evenodd">
        <g id="我的-已实名认证" transform="translate(-345.000000, -1234.000000)">
            <g id="分组-6" transform="translate(0.000000, 1234.000000)">
                <g id="客户-未点击" transform="translate(345.000000, 0.000000)">
                    <g id="分组-8-copy-2">
                        <g id="分组" transform="translate(5.600000, 5.600000)">
                            <mask id="mask-3" fill="white">
                                <use xlink:href="#path-2"></use>
                            </mask>
                            <use id="Mask" fill="url(#linearGradient-1)" xlink:href="#path-2"></use>
                            <g mask="url(#mask-3)">
                                <g transform="translate(39.200000, 30.800000) scale(-1, 1) translate(-39.200000, -30.800000) translate(35.000000, 24.500000)">
                                    <path d="M6.44303032,7.32974562 C6.62593355,7.34588494 6.82306258,6.94806472 6.90340452,6.80960629 C7.23141097,6.24657034 7.49167548,5.62789618 7.75044968,5.02833438 C7.85219806,4.79219056 7.9249529,4.57317708 7.92630774,4.31763775" id="Stroke-1" stroke="#672C01" stroke-width="0.5" fill="none" stroke-linecap="round" stroke-linejoin="round"></path>
                                    <path d="M7.4340271,9.26461011 C7.4340271,10.9498955 6.12674323,12.3160753 4.51380774,12.3160753 C2.90127871,12.3160753 1.59385935,10.9498955 1.59385935,9.26461011 C1.59385935,7.57946629 2.90127871,6.21314494 4.51380774,6.21314494 C6.12674323,6.21314494 7.4340271,7.57946629 7.4340271,9.26461011" id="Fill-5" stroke="none" fill="#FFFFFF" fill-rule="evenodd"></path>
                                    <path d="M4.75332968,12.1159901 C3.14052968,12.1159901 1.83324581,10.7499519 1.83324581,9.06466652 C1.83324581,8.15831596 2.21165226,7.3448373 2.81184581,6.78604854 C2.07467806,7.34002382 1.59384581,8.24340135 1.59384581,9.26456764 C1.59384581,10.9499946 2.90126516,12.3160328 4.51379419,12.3160328 C5.25936194,12.3160328 5.93949097,12.0238261 6.45541355,11.5433272 C5.9762071,11.9032058 5.38847806,12.1159901 4.75332968,12.1159901" id="Fill-7" stroke="none" fill="#D8EEF2" fill-rule="evenodd"></path>
                                    <path d="M5.49544258,11.2405591 C3.69743613,11.2405591 2.24003613,9.71765798 2.24003613,7.83898382 C2.24003613,7.65508045 2.2545329,7.47457483 2.28135871,7.29859955 C1.85255226,7.82964 1.59377806,8.51541978 1.59377806,9.26462427 C1.59377806,10.9499097 2.9013329,12.3160894 4.51386194,12.3160894 C5.57104258,12.3160894 6.49693935,11.7291276 7.00947484,10.8501007 C6.55695871,11.0989861 6.04212,11.2405591 5.49544258,11.2405591" id="Fill-9" stroke="none" fill="#D8EEF2" fill-rule="evenodd"></path>
                                    <path d="M6.23346387,6.79870517 C5.75087032,6.43089843 5.15690903,6.2131591 4.51390258,6.2131591 C3.74665742,6.2131591 3.04864452,6.52320404 2.52757355,7.02876135 C2.94621871,7.56815461 3.58529613,7.91288494 4.30173484,7.91288494 C5.11518,7.91288494 5.82890903,7.46820404 6.23346387,6.79870517" id="Fill-11" stroke="none" fill="#D8EEF2" fill-rule="evenodd"></path>
                                    <path d="M6.76176968,4.67331169 C6.9934471,5.96884652 6.17580194,7.21525551 4.93571806,7.45706225 C3.69617613,7.69886899 2.50337613,6.84490045 2.27196968,5.54922404 C2.04042774,4.25354764 2.85793742,3.00728022 4.09788581,2.76533191 C5.33756323,2.52352517 6.53036323,3.37777685 6.76176968,4.67331169" id="Fill-13" stroke="none" fill="#FFFFFF" fill-rule="evenodd"></path>
                                    <path d="M5.09243226,7.2673827 C3.85275484,7.50904787 2.65995484,6.65507933 2.4284129,5.35940292 C2.30403871,4.6628636 2.48314839,3.98062315 2.86792258,3.46105011 C2.37706452,3.99732876 2.13156774,4.76394674 2.27206452,5.54911079 C2.50347097,6.84492876 3.69613548,7.6988973 4.9358129,7.45709056 C5.50918065,7.34524787 5.99163871,7.0184973 6.32235484,6.57183438 C6.00342581,6.92052876 5.5809871,7.17210404 5.09243226,7.2673827" id="Fill-15" stroke="none" fill="#D8EEF2" fill-rule="evenodd"></path>
                                    <path d="M5.54280774,6.48306809 C4.16073677,6.75262315 2.83096258,5.80054449 2.57286581,4.35635798 C2.54780129,4.21492652 2.53398194,4.07391978 2.53059484,3.93475348 C2.2738529,4.4071827 2.16912387,4.97319169 2.27195613,5.54911079 C2.50336258,6.84492876 3.69616258,7.6988973 4.93584,7.45709056 C5.74874323,7.29867034 6.3798271,6.70859393 6.65296258,5.95585011 C6.3394529,6.21507034 5.96307871,6.40123888 5.54280774,6.48306809" id="Fill-17" stroke="none" fill="#D8EEF2" fill-rule="evenodd"></path>
                                    <path d="M4.56041419,4.61552157 C4.56041419,4.61552157 4.23430452,5.25415753 4.71920129,5.40521596 C5.20423355,5.55627438 5.26967226,4.76658 5.26967226,4.76658 L4.56041419,4.61552157 Z" id="Fill-19" stroke="none" fill="#D8EEF2" fill-rule="evenodd"></path>
                                    <path d="M3.2966071,4.88636494 C3.2966071,5.08683236 3.14107161,5.24921663 2.94936194,5.24921663 C2.75751677,5.24921663 2.60225226,5.08683236 2.60225226,4.88636494 C2.60225226,4.6860391 2.75751677,4.52351326 2.94936194,4.52351326 C3.14107161,4.52351326 3.2966071,4.6860391 3.2966071,4.88636494" id="Fill-21" stroke="none" fill="#FFD0D0" fill-rule="evenodd"></path>
                                    <path d="M6.66954581,4.74851528 C6.66954581,4.94869955 6.53243613,5.11136697 6.36375871,5.11136697 C6.19467484,5.11136697 6.05783613,4.94869955 6.05783613,4.74851528 C6.05783613,4.54804787 6.19467484,4.3856636 6.36375871,4.3856636 C6.53243613,4.3856636 6.66954581,4.54804787 6.66954581,4.74851528" id="Fill-23" stroke="none" fill="#FFD0D0" fill-rule="evenodd"></path>
                                    <path d="M3.70808516,5.24914584 C3.57341419,5.38831213 3.4876529,5.59345146 3.4876529,5.82294135 C3.4876529,6.24171438 3.77176258,6.58120652 4.12212387,6.58120652 C4.47234968,6.58120652 4.75632387,6.24171438 4.75632387,5.82294135 C4.75632387,5.72015933 4.73911742,5.62247393 4.70809161,5.53299978 C4.18566581,5.5423436 3.86768516,5.3711818 3.70808516,5.24914584" id="Fill-25" stroke="none" fill="#FFC0C0" fill-rule="evenodd"></path>
                                    <path d="M3.52100903,6.06498876 C3.52100903,6.06498876 4.02717677,5.77617978 4.27755097,6.55808764 C4.27755097,6.55808764 3.75946065,6.74425618 3.52100903,6.06498876" id="Fill-27" stroke="none" fill="#E66969" fill-rule="evenodd"></path>
                                    <g id="分组" stroke="none" stroke-width="1" fill="none" fill-rule="evenodd" transform="translate(3.387097, 5.979280)">
                                        <path d="M0.331312258,0.1472975 C0.444712258,0.0767725 0.58371871,0.1185975 0.672460645,0.2200975 C0.423170323,-0.0975275 0.133912258,0.1059975 0.133912258,0.1059975 C0.18824129,0.2970975 0.257067097,0.4325475 0.33104129,0.5282725 C0.328467097,0.5223225 0.196099355,0.2314725 0.331312258,0.1472975" id="Fill-29" fill="#D8EEF2"></path>
                                        <path d="M0.722684516,0.292565 C0.727155484,0.300965 0.730813548,0.30709 0.733523226,0.310765 C0.730000645,0.304465 0.726207097,0.298515 0.722684516,0.292565" id="Fill-31" fill="#D8EEF2"></path>
                                    </g>
                                    <path d="M4.23758323,4.45956472 C4.16997677,4.45956472 4.11510581,4.41935798 4.11510581,4.36952427 C4.11510581,4.32733551 4.15507355,4.29208382 4.20858968,4.28245685 C4.16442194,4.22356247 4.10264129,4.18661191 4.03395097,4.18661191 C3.89928,4.18661191 3.79021548,4.32733551 3.79021548,4.50104562 C3.79021548,4.67475573 3.89928,4.81547933 4.03395097,4.81547933 C4.16848645,4.81547933 4.27755097,4.67475573 4.27755097,4.50104562 C4.27755097,4.48533101 4.27565419,4.4701827 4.2738929,4.45517596 C4.26251226,4.45772427 4.25058968,4.45956472 4.23758323,4.45956472" id="Fill-33" stroke="none" fill="#0F0C0C" fill-rule="evenodd"></path>
                                    <path d="M5.83282452,4.37467753 C5.76521806,4.37467753 5.71048258,4.33432921 5.71048258,4.28463708 C5.71048258,4.24230674 5.75045032,4.20719663 5.80383097,4.19756966 C5.75952774,4.13867528 5.6977471,4.10172472 5.62905677,4.10172472 C5.49465677,4.10172472 5.38532129,4.24230674 5.38532129,4.41615843 C5.38532129,4.58972697 5.49465677,4.73045056 5.62905677,4.73045056 C5.76359226,4.73045056 5.87279226,4.58972697 5.87279226,4.41615843 C5.87279226,4.40044382 5.87089548,4.38529551 5.86913419,4.37014719 C5.85775355,4.37283708 5.84556,4.37467753 5.83282452,4.37467753" id="Fill-35" stroke="none" fill="#0F0C0C" fill-rule="evenodd"></path>
                                    <path d="M4.59786194,4.54735416 C4.59786194,4.54735416 4.29112645,4.99430022 4.85081032,5.15172944 C5.20320387,5.25083056 5.65314581,4.43027326 5.4197071,4.10861933 C5.4197071,4.10861933 5.27799097,4.01107551 4.59786194,4.54735416" id="Fill-37" stroke="none" fill="#D74F0A" fill-rule="evenodd"></path>
                                    <path d="M4.85083742,5.02973596 C4.62471484,4.96631124 4.54003742,4.85560112 4.51944387,4.74588202 C4.49614065,4.88589775 4.53868258,5.06385506 4.85083742,5.15163034 C5.15106968,5.23614944 5.52175355,4.65315169 5.48056645,4.27968202 C5.4457471,4.64479888 5.11990839,5.10547753 4.85083742,5.02973596" id="Fill-39" stroke="none" fill="#D8EEF2" fill-rule="evenodd"></path>
                                    <path d="M3.79025613,4.13785416 C3.79025613,4.13785416 4.01488839,3.80643169 4.14549484,4.01114629 C4.14549484,4.01114629 4.09265613,3.63583618 3.79025613,4.13785416" id="Fill-41" stroke="none" fill="#D8EEF2" fill-rule="evenodd"></path>
                                    <path d="M5.87279226,4.10176719 C5.65845677,3.61008404 5.52608903,3.85033348 5.52608903,3.85033348 C5.49343742,3.84537843 5.68785677,3.74868404 5.87279226,4.10176719" id="Fill-43" stroke="none" fill="#D8EEF2" fill-rule="evenodd"></path>
                                    <path d="M2.52762774,3.79165146 C2.52762774,3.79165146 2.33551161,1.84714584 1.97160194,1.43757506 C1.95317613,1.38887393 4.21087935,-0.58012382 4.80782129,0.170354831 C5.40462774,0.920975056 4.91973097,2.62664697 5.58197613,2.96812112 C5.58197613,2.96812112 4.0256729,3.28949191 2.52762774,3.79165146" id="Fill-45" stroke="none" fill="#221E1E" fill-rule="evenodd"></path>
                                    <path d="M2.47020968,3.31564045 C2.50828065,3.59581348 2.52765484,3.79160899 2.52765484,3.79160899 C4.02556452,3.28944944 5.58200323,2.96807865 5.58200323,2.96807865 C5.39002258,2.8691191 5.29477742,2.65520225 5.24112581,2.38338202 C4.64540323,2.23841124 2.47020968,3.31564045 2.47020968,3.31564045" id="Fill-47" stroke="none" fill="#8E0707" fill-rule="evenodd"></path>
                                    <path d="M4.80783484,0.170340674 C4.70215742,0.0376867416 4.54458968,-0.00959865169 4.35694452,0.00201033708 C4.50123484,0.0105047191 4.62289935,0.0618957303 4.70947355,0.170906966 C5.30668645,0.921385618 4.82165419,2.6271991 5.48376387,2.96853169 C5.48376387,2.96853169 3.9924929,3.27659461 2.52438968,3.76063281 C2.52642194,3.78016989 2.52764129,3.7916373 2.52764129,3.7916373 C4.02568645,3.28947775 5.58198968,2.96810697 5.58198968,2.96810697 C4.91974452,2.62677438 5.40464129,0.920960899 4.80783484,0.170340674" id="Fill-49" stroke="none" fill="#FFFFFF" fill-rule="evenodd"></path>
                                    <path d="M2.31699097,1.36943596 C2.30344258,1.33390112 3.49434581,0.282438202 4.37444903,0.000849438202 C3.50396516,0.0382247191 1.9563329,1.39718427 1.97164258,1.43753258 C2.33555226,1.84710337 2.52766839,3.79160899 2.52766839,3.79160899 C2.64120387,3.75366742 2.75487484,3.71685843 2.86841032,3.6807573 C2.83806194,3.39619551 2.6493329,1.74333034 2.31699097,1.36943596" id="Fill-51" stroke="none" fill="#A7D2D6" fill-rule="evenodd"></path>
                                    <path d="M6.36365032,2.8121218 C5.32611484,2.70480944 0.619269677,4.13781169 1.16960516,4.27966787 C1.70381806,4.41741843 2.40521806,4.11983191 2.44559226,4.10256 C2.49666968,3.9802409 2.56549548,3.83243865 2.61440516,3.79166562 C2.61440516,3.79166562 4.87576645,3.08054427 5.62905677,3.02702966 C5.62905677,3.02702966 5.75952774,3.10970831 5.85504387,3.1790791 C6.40592129,2.99489258 6.70019226,2.84694876 6.36365032,2.8121218" id="Fill-53" stroke="none" fill="#0F0C0C" fill-rule="evenodd"></path>
                                    <path d="M5.37953613,8.26392944 C5.39796194,8.38851371 5.33211677,8.50233843 5.23321355,8.51819461 C5.13403935,8.53390921 5.03892968,8.44570921 5.02063935,8.32112494 C5.00248452,8.19654067 5.06805871,8.08285753 5.16736839,8.06685978 C5.26627161,8.05114517 5.36138129,8.13934517 5.37953613,8.26392944" id="Fill-55" stroke="none" fill="#6A0303" fill-rule="evenodd"></path>
                                    <path d="M5.35784516,8.3188173 C5.37613548,8.44340157 5.31042581,8.55708472 5.2113871,8.57308247 C5.11234839,8.58879708 5.01710323,8.50059708 4.99894839,8.37601281 C4.98065806,8.25128697 5.04609677,8.13760382 5.14540645,8.12160607 C5.24458065,8.10589146 5.33955484,8.19409146 5.35784516,8.3188173" id="Fill-57" stroke="none" fill="#D8EEF2" fill-rule="evenodd"></path>
                                    <path d="M5.41367806,8.25853551 C5.43196839,8.38311978 5.36612323,8.49694449 5.26722,8.51280067 C5.16804581,8.52851528 5.07266516,8.44031528 5.05464581,8.31573101 C5.03635548,8.19114674 5.10206516,8.0774636 5.20123935,8.06146584 C5.30014258,8.04575124 5.39538774,8.13380966 5.41367806,8.25853551" id="Fill-59" stroke="none" fill="#8E0707" fill-rule="evenodd"></path>
                                    <path d="M5.35043419,8.26848809 C5.36235677,8.34932629 5.31981484,8.42322742 5.25573097,8.43356225 C5.19110516,8.44375551 5.12946,8.38656 5.11780839,8.3057218 C5.10588581,8.22474202 5.14856323,8.15112404 5.21278258,8.14078921 C5.27700194,8.13045438 5.33878258,8.18764989 5.35043419,8.26848809" id="Fill-61" stroke="none" fill="#6A0303" fill-rule="evenodd"></path>
                                    <path d="M5.21283677,8.14074674 C5.20687548,8.14173775 5.20145613,8.14371978 5.19603677,8.1457018 C5.25388839,8.14711753 5.30591419,8.20034899 5.3167529,8.27382539 C5.32745613,8.34744337 5.29304323,8.41469056 5.23817226,8.43394449 C5.24399806,8.43408607 5.24968839,8.43436921 5.25564968,8.43351978 C5.31986903,8.42318494 5.36241097,8.34942539 5.35048839,8.26844562 C5.33883677,8.18760742 5.27705613,8.13055348 5.21283677,8.14074674" id="Fill-63" stroke="none" fill="#4E0101" fill-rule="evenodd"></path>
                                    <path d="M5.56451226,9.85731978 C5.56505419,9.9831782 5.48430581,10.0858187 5.38391226,10.0862434 C5.28378968,10.0868097 5.20195742,9.98516022 5.20114452,9.85916022 C5.20060258,9.73301865 5.28148645,9.6303782 5.38188,9.62995348 C5.48213806,9.62938719 5.56383484,9.73103663 5.56451226,9.85731978" id="Fill-65" stroke="none" fill="#6A0303" fill-rule="evenodd"></path>
                                    <path d="M5.53526129,9.90805955 C5.53580323,10.0342011 5.45491935,10.1367 5.35479677,10.1372663 C5.25440323,10.1378326 5.17270645,10.0359 5.17202903,9.9099 C5.1714871,9.7839 5.25237097,9.68125955 5.35262903,9.68083483 C5.4528871,9.68041011 5.53458387,9.78205955 5.53526129,9.90805955" id="Fill-67" stroke="none" fill="#D8EEF2" fill-rule="evenodd"></path>
                                    <path d="M5.59877613,9.85703663 C5.59945355,9.98303663 5.51843419,10.0856771 5.41831161,10.0861018 C5.31791806,10.0866681 5.23622129,9.98487708 5.23554387,9.85901865 C5.23486645,9.73273551 5.31575032,9.63023663 5.41614387,9.62981191 C5.51640194,9.62924562 5.59823419,9.73089506 5.59877613,9.85703663" id="Fill-69" stroke="none" fill="#8E0707" fill-rule="evenodd"></path>
                                    <path d="M5.53500387,9.85731978 C5.53541032,9.93900742 5.48297806,10.0056883 5.41794581,10.006113 C5.35277806,10.0063962 5.29993935,9.94042315 5.29939742,9.85859393 C5.29912645,9.77676472 5.35142323,9.71036697 5.41659097,9.70994225 C5.48148774,9.7096591 5.53459742,9.77563213 5.53500387,9.85731978" id="Fill-71" stroke="none" fill="#6A0303" fill-rule="evenodd"></path>
                                    <path d="M5.41659097,9.70994225 C5.41076516,9.71008382 5.40493935,9.71107483 5.39938452,9.71234899 C5.45628774,9.72240067 5.50032,9.78327708 5.50059097,9.85760292 C5.50099742,9.93178719 5.4575071,9.99308831 5.40073935,10.0039894 C5.40629419,10.0049804 5.41212,10.006113 5.41794581,10.006113 C5.48297806,10.0056883 5.53541032,9.93900742 5.53500387,9.85731978 C5.53459742,9.77563213 5.48148774,9.7096591 5.41659097,9.70994225" id="Fill-73" stroke="none" fill="#4E0101" fill-rule="evenodd"></path>
                                    <path d="M7.53458203,4.31758112 C7.53404129,4.47713393 7.71816387,4.71469348 7.78617677,4.85853169" id="Stroke-75" stroke="#672C01" stroke-width="0.5" fill="none" stroke-linecap="round" stroke-linejoin="round"></path>
                                    <path d="M7.85635742,4.87322697 C7.97883484,4.82027865 8.14453161,4.62320899 8.27608645,4.53699101" id="Stroke-77" stroke="#672C01" stroke-width="0.5" fill="none" stroke-linecap="round" stroke-linejoin="round"></path>
                                    <path d="M2.40432387,7.71560292 C2.21722065,7.73188382 2.01562065,7.33392202 1.93324645,7.19560517 C1.59778839,6.63256921 1.33156258,6.01389506 1.06696258,5.41419169 C0.96264,5.17818944 0.888530323,4.95903438 0.88704,4.70349506" id="Stroke-79" stroke="#672C01" stroke-width="0.5" fill="none" stroke-linecap="round" stroke-linejoin="round"></path>
                                    <path d="M1.28789678,4.70345258 C1.28830258,4.86300539 1.09970903,5.10056494 1.03020581,5.24454472" id="Stroke-81" stroke="#672C01" stroke-width="0.5" fill="none" stroke-linecap="round" stroke-linejoin="round"></path>
                                    <path d="M0.958710968,5.25909843 C0.833252903,5.20629169 0.663627097,5.00922202 0.529227097,4.9227209" id="Stroke-83" stroke="#672C01" stroke-width="0.5" fill="none" stroke-linecap="round" stroke-linejoin="round"></path>
                                </g>
                            </g>
                        </g>
                        <g id="路径-2">
                            <use fill="#FFFFFF" fill-rule="evenodd" xlink:href="#path-4"></use>
                            <use fill="black" fill-opacity="1" filter="url(#filter-5)" xlink:href="#path-4"></use>
                        </g>
                        <path d="M10.5871764,32.2 C10.8876428,32.2 11.2,31.7862972 11.2,31.5 C11.2,31.2137028 10.6445089,30.8 10.3440425,30.8 C10.0435761,30.8 9.8,31.0320897 9.8,31.3183869 C9.8,31.604684 10.28671,32.2 10.5871764,32.2 Z" id="椭圆形" fill="#FFE796"></path>
                        <path d="M15.2410766,39.5534804 C16.7548761,38.5110092 15.8069149,39.3223253 15.8069149,39.037181 C15.8069149,38.7520368 15.5535805,38.5208817 15.2410766,38.5208817 C14.9285727,38.5208817 14.0234217,38.410839 14.0234217,38.6959833 C14.0234217,38.9811275 13.7272771,40.5959516 15.2410766,39.5534804 Z" id="椭圆形-copy-8" fill-opacity="0.91" fill="#FFE796"></path>
                        <path d="M44.5109148,39.2 C44.808625,39.2 44.7999739,38.6210594 44.7999739,38.3289361 C44.7999739,38.0368127 44.522556,37.8 44.2248458,37.8 C43.9271356,37.8 43.4,38.2078767 43.4,38.5 C43.4,38.7921233 44.2132046,39.2 44.5109148,39.2 Z" id="椭圆形-copy-9" fill="#FFE796"></path>
                        <path d="M39.7978484,40.6 C40.1280309,40.6 40.6,40.3691324 40.6,40.0843427 C40.6,39.799553 40.2989016,39.2 39.968719,39.2 C39.6385365,39.2 39.2,39.799553 39.2,40.0843427 C39.2,40.3691324 39.4676658,40.6 39.7978484,40.6 Z" id="椭圆形-copy-10" fill="#FFE796"></path>
                        <path d="M32.0705362,13.3 C32.3856346,13.3 32.8952659,13.0230156 32.8952659,12.681338 C32.8952659,12.3396604 32.9561708,11.2 32.6410723,11.2 C32.3259739,11.2 31.5,12.3396604 31.5,12.681338 C31.5,13.0230156 31.7554377,13.3 32.0705362,13.3 Z" id="椭圆形-copy-11" fill-opacity="0.8" fill="#FFE796" transform="translate(32.200000, 12.250000) rotate(110.000000) translate(-32.200000, -12.250000) "></path>
                        <path d="M1.46423885,33.6375974 L25.2206854,57.3940439 C27.6520424,55.3790863 31.1813603,55.3615997 33.6317743,57.3415842 L57.3357611,33.6375974 C55.3031638,31.1849555 55.3031638,27.6150445 57.3357611,25.1624026 L33.6958802,1.52252164 C31.2220284,3.57269634 27.6115004,3.55496694 25.157308,1.46933345 L1.46423885,25.1624026 C3.49683616,27.6150445 3.49683616,31.1849555 1.46423885,33.6375974 Z" id="线框" stroke="#F0270F" stroke-width="2.1"></path>
                        <text id="新" font-family="PingFangSC-Medium, PingFang SC" font-size="24.5" font-weight="400" line-spacing="23.1" letter-spacing="1.225" fill="#FFF163">
                            <tspan x="16.1" y="39.2">新</tspan>
                        </text>
                        <path d="M37.2871176,17.4017802 C37.9991482,17.7082734 38.3903141,17.9029012 37.6659158,18.5397713 C37.1829837,18.9643514 36.2329901,19.3092185 34.8159353,19.5743725 L30.2871176,20.434849 C29.9042941,19.7129594 29.9042941,19.0812669 30.2871176,18.5397713 C30.8613527,17.727528 31.5987074,17.2708833 32.5155538,17.0505354 C33.4324001,16.8301875 34.7572595,17.4017802 35.0221885,17.4017802 C35.2871176,17.4017802 36.5750869,17.095287 37.2871176,17.4017802 Z" id="路径-4-copy" fill="#FFFFFF"></path>
                        <g id="路径-2" transform="translate(37.175125, 26.199284) rotate(28.000000) translate(-37.175125, -26.199284) ">
                            <use fill="#FFFFFF" fill-rule="evenodd" xlink:href="#path-6"></use>
                            <use fill="black" fill-opacity="1" filter="url(#filter-7)" xlink:href="#path-6"></use>
                        </g>
                    </g>
                </g>
            </g>
        </g>
    </g>
</svg>