<?xml version="1.0" encoding="UTF-8"?>
<svg width="126px" height="123px" viewBox="0 0 126 123" version="1.1" xmlns="http://www.w3.org/2000/svg" xmlns:xlink="http://www.w3.org/1999/xlink">
    <!-- Generator: Sketch 52.5 (67469) - http://www.bohemiancoding.com/sketch -->
    <title>客户点击中</title>
    <desc>Created with Sketch.</desc>
    <defs>
        <linearGradient x1="50%" y1="6.35344232%" x2="50%" y2="97.0485264%" id="linearGradient-1">
            <stop stop-color="#FE3A23" offset="0%"></stop>
            <stop stop-color="#FF5950" offset="100%"></stop>
        </linearGradient>
        <path d="M21.4334563,59.5750803 L9.47308807,47.6147121 C8.86287137,47.0044954 8.37184201,46.3202252 8,45.5908297 C9.16007691,43.3152533 9.16007691,40.6004624 8,38.324886 C8.37184201,37.5954905 8.86287137,36.9112203 9.47308807,36.3010036 L36.3431458,9.43094589 C36.9305824,8.84350929 37.5866467,8.36652732 38.2855308,8 C40.6398744,9.31489039 43.5174982,9.34805101 45.8982354,8.09948184 C46.5284605,8.45145974 47.1211895,8.8952811 47.6568542,9.43094589 L74.5269119,36.3010036 C75.1371286,36.9112203 75.628158,37.5954905 76,38.324886 C74.8399231,40.6004624 74.8399231,43.3152533 76,45.5908297 C75.628158,46.3202252 75.1371286,47.0044954 74.5269119,47.6147121 L62.2110061,59.9306179 C61.2825378,59.341284 60.1811245,59 59,59 C55.6862915,59 53,61.6862915 53,65 C53,66.1811245 53.341284,67.2825378 53.9306179,68.2110061 L53.7749926,68.3666314 C53.0636958,65.8467306 50.7475114,64 48,64 C44.6862915,64 42,66.6862915 42,70 C42,72.6523202 43.7209824,74.9026833 46.1071881,75.6953305 C45.9205656,75.8071339 45.7303675,75.9106597 45.5371232,76.0059081 C43.3535266,74.9983875 40.8093216,75.0276094 38.646643,76.0935738 C38.2548696,75.9128079 37.8747044,75.698669 37.5104334,75.4511571 C39.5703588,74.5009199 41,72.4174152 41,70 C41,66.6862915 38.3137085,64 35,64 C32.5285985,64 30.4061881,65.4942083 29.4868848,67.6285088 L29.4249197,67.5665437 C29.7937008,66.7884245 30,65.9183041 30,65 C30,61.6862915 27.3137085,59 24,59 C23.0816959,59 22.2115755,59.2062992 21.4334563,59.5750803 Z M22.1943546,60.3359786 C22.7544223,60.1190026 23.3633139,60 24,60 C26.7614237,60 29,62.2385763 29,65 C29,65.6366861 28.8809974,66.2455777 28.6640214,66.8056454 L27.870771,66.012395 C27.9551078,65.6890468 28,65.349766 28,65 C28,62.790861 26.209139,61 24,61 C23.650234,61 23.3109532,61.0448922 22.987605,61.129229 L22.1943546,60.3359786 Z M23.8615156,62.0031396 C23.9074158,62.0010541 23.9535848,62 24,62 C25.6568542,62 27,63.3431458 27,65 C27,65.0464152 26.9989459,65.0925842 26.9968604,65.1384844 L23.8615156,62.0031396 Z M61.4826838,60.6589403 L60.7429395,61.3986845 C60.2161165,61.1432449 59.6247866,61 59,61 C56.790861,61 55,62.790861 55,65 C55,65.6247866 55.1432449,66.2161165 55.3986845,66.7429395 L54.6589403,67.4826838 C54.2396835,66.751177 54,65.903579 54,65 C54,62.2385763 56.2385763,60 59,60 C59.903579,60 60.751177,60.2396835 61.4826838,60.6589403 Z M59.9784443,62.1631797 L59.137005,63.004619 C59.0917333,63.0015562 59.0460484,63 59,63 C57.8954305,63 57,63.8954305 57,65 C57,65.0460484 57.0015562,65.0917333 57.004619,65.137005 L56.1631797,65.9784443 C56.0574269,65.6717763 56,65.3425945 56,65 C56,63.3431458 57.3431458,62 59,62 C59.3425945,62 59.6717763,62.0574269 59.9784443,62.1631797 Z M47.1720353,74.9317656 C44.8046333,74.5372482 43,72.4793714 43,70 C43,67.2385763 45.2385763,65 48,65 C50.4907101,65 52.5560615,66.8211769 52.9370738,69.2045502 L51.9974501,70.1441739 C51.9991453,70.0963256 52,70.0482626 52,70 C52,67.790861 50.209139,66 48,66 C45.790861,66 44,67.790861 44,70 C44,72.209139 45.790861,74 48,74 C48.0482626,74 48.0963256,73.9991453 48.1441747,73.9974501 L47.6568542,74.4847698 C47.4999784,74.6416456 47.3382082,74.7906443 47.1720353,74.9317656 Z M49.6094296,72.5321944 C49.1443755,72.828394 48.5922281,73 48,73 C46.3431458,73 45,71.6568542 45,70 C45,68.3431458 46.3431458,67 48,67 C49.6568542,67 51,68.3431458 51,70 C51,70.5922281 50.828394,71.1443755 50.5321944,71.6094296 L49.6094296,72.5321944 Z M36.6062768,74.7363987 C36.5171412,74.654904 36.4294036,74.5710276 36.3431458,74.4847698 L35.7819767,73.9236007 C37.6167411,73.5599802 39,71.9415288 39,70 C39,67.790861 37.209139,66 35,66 C33.0584712,66 31.4400198,67.3832589 31.0763993,69.2180233 L30.2606956,68.4023197 C30.9272329,66.424381 32.7972754,65 35,65 C37.7614237,65 40,67.2385763 40,70 C40,72.1995321 38.5797447,74.0673459 36.6062768,74.7363987 Z M34.8549327,72.9965567 L32.0034433,70.1450673 C32.0011573,70.097001 32,70.0486357 32,70 C32,68.3431458 33.3431458,67 35,67 C36.6568542,67 38,68.3431458 38,70 C38,71.6568542 36.6568542,73 35,73 C34.9513643,73 34.902999,72.9988427 34.85493,72.996554 Z M35,71 C34.4477153,71 34,70.5522847 34,70 C34,69.4477153 34.4477153,69 35,69 C35.5522847,69 36,69.4477153 36,70 C36,70.5522847 35.5522847,71 35,71 Z M35,72 C36.1045695,72 37,71.1045695 37,70 C37,68.8954305 36.1045695,68 35,68 C33.8954305,68 33,68.8954305 33,70 C33,71.1045695 33.8954305,72 35,72 Z M48,71 C47.4477153,71 47,70.5522847 47,70 C47,69.4477153 47.4477153,69 48,69 C48.5522847,69 49,69.4477153 49,70 C49,70.5522847 48.5522847,71 48,71 Z M48,72 C49.1045695,72 50,71.1045695 50,70 C50,68.8954305 49.1045695,68 48,68 C46.8954305,68 46,68.8954305 46,70 C46,71.1045695 46.8954305,72 48,72 Z" id="path-2"></path>
        <filter x="-52.9%" y="-52.9%" width="205.9%" height="205.7%" filterUnits="objectBoundingBox" id="filter-3">
            <feGaussianBlur stdDeviation="12" in="SourceGraphic"></feGaussianBlur>
        </filter>
        <filter x="-58.1%" y="-58.0%" width="216.2%" height="216.0%" filterUnits="objectBoundingBox" id="filter-4">
            <feGaussianBlur stdDeviation="1.5" in="SourceAlpha" result="shadowBlurInner1"></feGaussianBlur>
            <feOffset dx="0" dy="-4" in="shadowBlurInner1" result="shadowOffsetInner1"></feOffset>
            <feComposite in="shadowOffsetInner1" in2="SourceAlpha" operator="arithmetic" k2="-1" k3="1" result="shadowInnerInner1"></feComposite>
            <feColorMatrix values="0 0 0 0 0.878431373   0 0 0 0 0.168627451   0 0 0 0 0.0823529412  0 0 0 0.723307292 0" type="matrix" in="shadowInnerInner1"></feColorMatrix>
        </filter>
        <path d="M13.4334563,51.5750803 L1.47308807,39.6147121 C0.862871369,39.0044954 0.371842014,38.3202252 8.98725538e-13,37.5908297 C1.16007691,35.3152533 1.16007691,32.6004624 8.95061802e-13,30.324886 C0.371842014,29.5954905 0.862871369,28.9112203 1.47308807,28.3010036 L28.3431458,1.43094589 C28.9305824,0.843509287 29.5866467,0.366527322 30.2855308,2.16889839e-11 C32.6398744,1.31489039 35.5174982,1.34805101 37.8982354,0.0994818395 C38.5284605,0.451459744 39.1211895,0.895281095 39.6568542,1.43094589 L66.5269119,28.3010036 C67.1371286,28.9112203 67.628158,29.5954905 68,30.324886 C66.8399231,32.6004624 66.8399231,35.3152533 68,37.5908297 C67.628158,38.3202252 67.1371286,39.0044954 66.5269119,39.6147121 L54.2110061,51.9306179 C53.2825378,51.341284 52.1811245,51 51,51 C47.6862915,51 45,53.6862915 45,57 C45,58.1811245 45.341284,59.2825378 45.9306179,60.2110061 L45.7749926,60.3666314 C45.0636958,57.8467306 42.7475114,56 40,56 C36.6862915,56 34,58.6862915 34,62 C34,64.6523202 35.7209824,66.9026833 38.1071881,67.6953305 C37.9205656,67.8071339 37.7303675,67.9106597 37.5371232,68.0059081 C35.3535266,66.9983875 32.8093216,67.0276094 30.646643,68.0935738 C30.2548696,67.9128079 29.8747044,67.698669 29.5104334,67.4511571 C31.5703588,66.5009199 33,64.4174152 33,62 C33,58.6862915 30.3137085,56 27,56 C24.5285985,56 22.4061881,57.4942083 21.4868848,59.6285088 L21.4249197,59.5665437 C21.7937008,58.7884245 22,57.9183041 22,57 C22,53.6862915 19.3137085,51 16,51 C15.0816959,51 14.2115755,51.2062992 13.4334563,51.5750803 Z M14.1943546,52.3359786 C14.7544223,52.1190026 15.3633139,52 16,52 C18.7614237,52 21,54.2385763 21,57 C21,57.6366861 20.8809974,58.2455777 20.6640214,58.8056454 L19.870771,58.012395 C19.9551078,57.6890468 20,57.349766 20,57 C20,54.790861 18.209139,53 16,53 C15.650234,53 15.3109532,53.0448922 14.987605,53.129229 L14.1943546,52.3359786 Z M15.8615156,54.0031396 C15.9074158,54.0010541 15.9535848,54 16,54 C17.6568542,54 19,55.3431458 19,57 C19,57.0464152 18.9989459,57.0925842 18.9968604,57.1384844 L15.8615156,54.0031396 Z M53.4826838,52.6589403 L52.7429395,53.3986845 C52.2161165,53.1432449 51.6247866,53 51,53 C48.790861,53 47,54.790861 47,57 C47,57.6247866 47.1432449,58.2161165 47.3986845,58.7429395 L46.6589403,59.4826838 C46.2396835,58.751177 46,57.903579 46,57 C46,54.2385763 48.2385763,52 51,52 C51.903579,52 52.751177,52.2396835 53.4826838,52.6589403 Z M51.9784443,54.1631797 L51.137005,55.004619 C51.0917333,55.0015562 51.0460484,55 51,55 C49.8954305,55 49,55.8954305 49,57 C49,57.0460484 49.0015562,57.0917333 49.004619,57.137005 L48.1631797,57.9784443 C48.0574269,57.6717763 48,57.3425945 48,57 C48,55.3431458 49.3431458,54 51,54 C51.3425945,54 51.6717763,54.0574269 51.9784443,54.1631797 Z M39.1720353,66.9317656 C36.8046333,66.5372482 35,64.4793714 35,62 C35,59.2385763 37.2385763,57 40,57 C42.4907101,57 44.5560615,58.8211769 44.9370738,61.2045502 L43.9974501,62.1441739 C43.9991453,62.0963256 44,62.0482626 44,62 C44,59.790861 42.209139,58 40,58 C37.790861,58 36,59.790861 36,62 C36,64.209139 37.790861,66 40,66 C40.0482626,66 40.0963256,65.9991453 40.1441747,65.9974501 L39.6568542,66.4847698 C39.4999784,66.6416456 39.3382082,66.7906443 39.1720353,66.9317656 Z M41.6094296,64.5321944 C41.1443755,64.828394 40.5922281,65 40,65 C38.3431458,65 37,63.6568542 37,62 C37,60.3431458 38.3431458,59 40,59 C41.6568542,59 43,60.3431458 43,62 C43,62.5922281 42.828394,63.1443755 42.5321944,63.6094296 L41.6094296,64.5321944 Z M28.6062768,66.7363987 C28.5171412,66.654904 28.4294036,66.5710276 28.3431458,66.4847698 L27.7819767,65.9236007 C29.6167411,65.5599802 31,63.9415288 31,62 C31,59.790861 29.209139,58 27,58 C25.0584712,58 23.4400198,59.3832589 23.0763993,61.2180233 L22.2606956,60.4023197 C22.9272329,58.424381 24.7972754,57 27,57 C29.7614237,57 32,59.2385763 32,62 C32,64.1995321 30.5797447,66.0673459 28.6062768,66.7363987 Z M26.8549327,64.9965567 L24.0034433,62.1450673 C24.0011573,62.097001 24,62.0486357 24,62 C24,60.3431458 25.3431458,59 27,59 C28.6568542,59 30,60.3431458 30,62 C30,63.6568542 28.6568542,65 27,65 C26.9513643,65 26.902999,64.9988427 26.85493,64.996554 Z M27,63 C26.4477153,63 26,62.5522847 26,62 C26,61.4477153 26.4477153,61 27,61 C27.5522847,61 28,61.4477153 28,62 C28,62.5522847 27.5522847,63 27,63 Z M27,64 C28.1045695,64 29,63.1045695 29,62 C29,60.8954305 28.1045695,60 27,60 C25.8954305,60 25,60.8954305 25,62 C25,63.1045695 25.8954305,64 27,64 Z M40,63 C39.4477153,63 39,62.5522847 39,62 C39,61.4477153 39.4477153,61 40,61 C40.5522847,61 41,61.4477153 41,62 C41,62.5522847 40.5522847,63 40,63 Z M40,64 C41.1045695,64 42,63.1045695 42,62 C42,60.8954305 41.1045695,60 40,60 C38.8954305,60 38,60.8954305 38,62 C38,63.1045695 38.8954305,64 40,64 Z" id="path-5"></path>
        <path d="M34.6368924,10.5168825 C35.7087458,9.03634795 36.93411,7.74864231 39.6797176,7.74864231 C42.4253252,7.74864231 44.2628133,7.06453551 48.874821,9.34929648 C51.3418389,14.7511368 54.1680509,14.4272062 54.1294989,16.0900987 C52.522274,15.6127018 51.1919505,17.0652612 42.1323621,15.3710051 C41.7773604,15.6538425 38.1925841,14.8154636 38.6493957,12.0655952 C27.2122142,18.5326223 33.5650391,11.9974171 34.6368924,10.5168825 Z" id="path-7"></path>
        <filter x="-6.8%" y="-17.5%" width="113.5%" height="135.0%" filterUnits="objectBoundingBox" id="filter-8">
            <feGaussianBlur stdDeviation="1" in="SourceAlpha" result="shadowBlurInner1"></feGaussianBlur>
            <feOffset dx="0" dy="-1" in="shadowBlurInner1" result="shadowOffsetInner1"></feOffset>
            <feComposite in="shadowOffsetInner1" in2="SourceAlpha" operator="arithmetic" k2="-1" k3="1" result="shadowInnerInner1"></feComposite>
            <feColorMatrix values="0 0 0 0 0.714817177   0 0 0 0 0.714506926   0 0 0 0 0.714506926  0 0 0 0.5 0" type="matrix" in="shadowInnerInner1"></feColorMatrix>
        </filter>
        <path d="M50.7695423,35.2684079 C52.024683,34.0916393 53.6104925,34.0833434 56.3561001,34.0833434 C59.1017077,34.0833434 59.4299917,35.9623778 59.9653995,36.9693334 C60.5008073,37.9762891 59.6626763,42.3994535 57.1252874,37.2920854 C56.6971151,37.2226647 56.8507388,36.4197423 56.4450413,36.7736782 C55.1592774,36.5736278 52.6752064,36.7984119 48.3382802,40.6116339 C42.6086385,41.7544964 49.5144016,36.4451765 50.7695423,35.2684079 Z" id="path-9"></path>
        <filter x="-10.7%" y="-22.4%" width="121.4%" height="144.9%" filterUnits="objectBoundingBox" id="filter-10">
            <feGaussianBlur stdDeviation="1" in="SourceAlpha" result="shadowBlurInner1"></feGaussianBlur>
            <feOffset dx="0" dy="-1" in="shadowBlurInner1" result="shadowOffsetInner1"></feOffset>
            <feComposite in="shadowOffsetInner1" in2="SourceAlpha" operator="arithmetic" k2="-1" k3="1" result="shadowInnerInner1"></feComposite>
            <feColorMatrix values="0 0 0 0 0.714817177   0 0 0 0 0.714506926   0 0 0 0 0.714506926  0 0 0 0.5 0" type="matrix" in="shadowInnerInner1"></feColorMatrix>
        </filter>
    </defs>
    <g id="Page-1" stroke="none" stroke-width="1" fill="none" fill-rule="evenodd">
        <g id="首页-抢单" transform="translate(-312.000000, -1186.000000)">
            <g id="分组-3" transform="translate(0.000000, 1186.000000)">
                <g id="客户点击中" transform="translate(312.000000, 0.000000)">
                    <g id="分组-8" transform="translate(21.000000, 19.000000)">
                        <g id="合并形状" filter="url(#filter-3)">
                            <use fill="url(#linearGradient-1)" fill-rule="evenodd" xlink:href="#path-2"></use>
                            <use fill="black" fill-opacity="1" filter="url(#filter-4)" xlink:href="#path-2"></use>
                        </g>
                        <g id="分组" transform="translate(8.000000, 8.000000)">
                            <mask id="mask-6" fill="white">
                                <use xlink:href="#path-5"></use>
                            </mask>
                            <use id="Mask" fill="url(#linearGradient-1)" xlink:href="#path-5"></use>
                            <g mask="url(#mask-6)">
                                <g transform="translate(56.000000, 44.000000) scale(-1, 1) translate(-56.000000, -44.000000) translate(50.000000, 35.000000)">
                                    <path d="M9.20432903,10.4710652 C9.46561935,10.4941213 9.74723226,9.92580674 9.86200645,9.72800899 C10.3305871,8.92367191 10.7023935,8.03985169 11.072071,7.18333483 C11.2174258,6.84598652 11.3213613,6.53311011 11.3232968,6.16805393" id="Stroke-1" stroke="#672C01" stroke-width="0.5" fill="none" stroke-linecap="round" stroke-linejoin="round"></path>
                                    <path d="M10.6200387,13.2351573 C10.6200387,15.6427079 8.75249032,17.5943933 6.44829677,17.5943933 C4.14468387,17.5943933 2.27694194,15.6427079 2.27694194,13.2351573 C2.27694194,10.827809 4.14468387,8.87592135 6.44829677,8.87592135 C8.75249032,8.87592135 10.6200387,10.827809 10.6200387,13.2351573" id="Fill-5" stroke="none" fill="#FFFFFF" fill-rule="evenodd"></path>
                                    <path d="M6.79047097,17.3085573 C4.48647097,17.3085573 2.61892258,15.3570742 2.61892258,12.9495236 C2.61892258,11.6547371 3.15950323,10.4926247 4.01692258,9.69435506 C2.96382581,10.4857483 2.27692258,11.7762876 2.27692258,13.2350966 C2.27692258,15.6428494 4.14466452,17.5943326 6.44827742,17.5943326 C7.51337419,17.5943326 8.4849871,17.1768944 9.22201935,16.4904674 C8.53743871,17.0045798 7.69782581,17.3085573 6.79047097,17.3085573" id="Fill-7" stroke="none" fill="#D8EEF2" fill-rule="evenodd"></path>
                                    <path d="M7.85063226,16.0579416 C5.28205161,16.0579416 3.20005161,13.8823685 3.20005161,11.1985483 C3.20005161,10.9358292 3.22076129,10.677964 3.25908387,10.4265708 C2.64650323,11.1852 2.27682581,12.1648854 2.27682581,13.2351775 C2.27682581,15.6427281 4.14476129,17.5944135 6.44837419,17.5944135 C7.95863226,17.5944135 9.28134194,16.7558966 10.0135355,15.5001438 C9.36708387,15.8556944 8.6316,16.0579416 7.85063226,16.0579416" id="Fill-9" stroke="none" fill="#D8EEF2" fill-rule="evenodd"></path>
                                    <path d="M8.90494839,9.71243596 C8.21552903,9.18699775 7.3670129,8.87594157 6.44843226,8.87594157 C5.35236774,8.87594157 4.35520645,9.31886292 3.61081935,10.0410876 C4.20888387,10.8116494 5.12185161,11.3041213 6.14533548,11.3041213 C7.3074,11.3041213 8.3270129,10.6688629 8.90494839,9.71243596" id="Fill-11" stroke="none" fill="#D8EEF2" fill-rule="evenodd"></path>
                                    <path d="M9.65967097,6.67615955 C9.99063871,8.5269236 8.82257419,10.3075079 7.05102581,10.6529461 C5.28025161,10.9983843 3.57625161,9.77842921 3.24567097,7.92746292 C2.91489677,6.07649663 4.08276774,4.29611461 5.85412258,3.95047416 C7.62509032,3.60503596 9.32909032,4.82539551 9.65967097,6.67615955" id="Fill-13" stroke="none" fill="#FFFFFF" fill-rule="evenodd"></path>
                                    <path d="M7.27490323,10.3819753 C5.50393548,10.7272112 3.79993548,9.50725618 3.46916129,7.65628989 C3.29148387,6.66123371 3.54735484,5.68660449 4.09703226,4.9443573 C3.39580645,5.71046966 3.04509677,6.8056382 3.24580645,7.92730112 C3.5763871,9.77846966 5.28019355,10.9984247 7.05116129,10.6529865 C7.87025806,10.4932112 8.55948387,10.0264247 9.03193548,9.38833483 C8.57632258,9.88646966 7.97283871,10.2458629 7.27490323,10.3819753" id="Fill-15" stroke="none" fill="#D8EEF2" fill-rule="evenodd"></path>
                                    <path d="M7.91829677,9.26152584 C5.94390968,9.64660449 4.04423226,8.28649213 3.67552258,6.22336854 C3.63971613,6.0213236 3.61997419,5.81988539 3.61513548,5.6210764 C3.24836129,6.29597528 3.09874839,7.10455955 3.24565161,7.92730112 C3.57623226,9.77846966 5.28023226,10.9984247 7.0512,10.6529865 C8.21249032,10.4266719 9.11403871,9.58370562 9.50423226,8.5083573 C9.05636129,8.87867191 8.51868387,9.14462697 7.91829677,9.26152584" id="Fill-17" stroke="none" fill="#D8EEF2" fill-rule="evenodd"></path>
                                    <path d="M6.51487742,6.59360225 C6.51487742,6.59360225 6.04900645,7.50593933 6.74171613,7.72173708 C7.43461935,7.93753483 7.52810323,6.8094 7.52810323,6.8094 L6.51487742,6.59360225 Z" id="Fill-19" stroke="none" fill="#D8EEF2" fill-rule="evenodd"></path>
                                    <path d="M4.70943871,6.98052135 C4.70943871,7.26690337 4.48724516,7.4988809 4.21337419,7.4988809 C3.93930968,7.4988809 3.71750323,7.26690337 3.71750323,6.98052135 C3.71750323,6.69434157 3.93930968,6.4621618 4.21337419,6.4621618 C4.48724516,6.4621618 4.70943871,6.69434157 4.70943871,6.98052135" id="Fill-21" stroke="none" fill="#FFD0D0" fill-rule="evenodd"></path>
                                    <path d="M9.52792258,6.78359326 C9.52792258,7.06957079 9.33205161,7.30195281 9.09108387,7.30195281 C8.84953548,7.30195281 8.65405161,7.06957079 8.65405161,6.78359326 C8.65405161,6.49721124 8.84953548,6.26523371 9.09108387,6.26523371 C9.33205161,6.26523371 9.52792258,6.49721124 9.52792258,6.78359326" id="Fill-23" stroke="none" fill="#FFD0D0" fill-rule="evenodd"></path>
                                    <path d="M5.29726452,7.49877978 C5.10487742,7.69758876 4.98236129,7.99064494 4.98236129,8.31848764 C4.98236129,8.91673483 5.38823226,9.4017236 5.88874839,9.4017236 C6.38907097,9.4017236 6.79474839,8.91673483 6.79474839,8.31848764 C6.79474839,8.17165618 6.77016774,8.03210562 6.72584516,7.90428539 C5.97952258,7.91763371 5.52526452,7.67311685 5.29726452,7.49877978" id="Fill-25" stroke="none" fill="#FFC0C0" fill-rule="evenodd"></path>
                                    <path d="M5.0300129,8.66426966 C5.0300129,8.66426966 5.75310968,8.25168539 6.1107871,9.36869663 C6.1107871,9.36869663 5.37065806,9.63465169 5.0300129,8.66426966" id="Fill-27" stroke="none" fill="#E66969" fill-rule="evenodd"></path>
                                    <g id="分组" stroke="none" stroke-width="1" fill="none" fill-rule="evenodd" transform="translate(4.838710, 8.541829)">
                                        <path d="M0.473303226,0.210425 C0.635303226,0.109675 0.833883871,0.169425 0.960658065,0.314425 C0.604529032,-0.139325 0.191303226,0.151425 0.191303226,0.151425 C0.268916129,0.424425 0.36723871,0.617925 0.472916129,0.754675 C0.46923871,0.746175 0.280141935,0.330675 0.473303226,0.210425" id="Fill-29" fill="#D8EEF2"></path>
                                        <path d="M1.03240645,0.41795 C1.03879355,0.42995 1.04401935,0.4387 1.04789032,0.44395 C1.04285806,0.43495 1.03743871,0.42645 1.03240645,0.41795" id="Fill-31" fill="#D8EEF2"></path>
                                    </g>
                                    <path d="M6.05369032,6.37080674 C5.95710968,6.37080674 5.87872258,6.31336854 5.87872258,6.24217753 C5.87872258,6.18190787 5.93581935,6.13154831 6.01227097,6.11779551 C5.94917419,6.03366067 5.86091613,5.98087416 5.7627871,5.98087416 C5.5704,5.98087416 5.41459355,6.18190787 5.41459355,6.43006517 C5.41459355,6.67822247 5.5704,6.87925618 5.7627871,6.87925618 C5.95498065,6.87925618 6.1107871,6.67822247 6.1107871,6.43006517 C6.1107871,6.40761573 6.10807742,6.38597528 6.10556129,6.36453708 C6.08930323,6.36817753 6.07227097,6.37080674 6.05369032,6.37080674" id="Fill-33" stroke="none" fill="#0F0C0C" fill-rule="evenodd"></path>
                                    <path d="M8.33260645,6.24953933 C8.23602581,6.24953933 8.15783226,6.19189888 8.15783226,6.12091011 C8.15783226,6.0604382 8.21492903,6.0102809 8.2911871,5.99652809 C8.22789677,5.91239326 8.13963871,5.85960674 8.04150968,5.85960674 C7.84950968,5.85960674 7.69331613,6.0604382 7.69331613,6.30879775 C7.69331613,6.55675281 7.84950968,6.75778652 8.04150968,6.75778652 C8.23370323,6.75778652 8.38970323,6.55675281 8.38970323,6.30879775 C8.38970323,6.28634831 8.38699355,6.26470787 8.38447742,6.24306742 C8.36821935,6.24691011 8.3508,6.24953933 8.33260645,6.24953933" id="Fill-35" stroke="none" fill="#0F0C0C" fill-rule="evenodd"></path>
                                    <path d="M6.56837419,6.49622022 C6.56837419,6.49622022 6.13018065,7.13471461 6.92972903,7.35961348 C7.43314839,7.50118652 8.07592258,6.3289618 7.74243871,5.86945618 C7.74243871,5.86945618 7.5399871,5.73010787 6.56837419,6.49622022" id="Fill-37" stroke="none" fill="#D74F0A" fill-rule="evenodd"></path>
                                    <path d="M6.92976774,7.18533708 C6.60673548,7.09473034 6.48576774,6.93657303 6.45634839,6.77983146 C6.42305806,6.97985393 6.48383226,7.23407865 6.92976774,7.35947191 C7.35867097,7.48021348 7.88821935,6.64735955 7.82938065,6.11383146 C7.77963871,6.63542697 7.31415484,7.29353933 6.92976774,7.18533708" id="Fill-39" stroke="none" fill="#D8EEF2" fill-rule="evenodd"></path>
                                    <path d="M5.41465161,5.91122022 C5.41465161,5.91122022 5.73555484,5.43775955 5.92213548,5.73020899 C5.92213548,5.73020899 5.84665161,5.19405169 5.41465161,5.91122022" id="Fill-41" stroke="none" fill="#D8EEF2" fill-rule="evenodd"></path>
                                    <path d="M8.38970323,5.85966742 C8.08350968,5.15726292 7.8944129,5.5004764 7.8944129,5.5004764 C7.84776774,5.49339775 8.12550968,5.35526292 8.38970323,5.85966742" id="Fill-43" stroke="none" fill="#D8EEF2" fill-rule="evenodd"></path>
                                    <path d="M3.61089677,5.41664494 C3.61089677,5.41664494 3.33644516,2.63877978 2.81657419,2.05367865 C2.79025161,1.98410562 6.01554194,-0.828748315 6.86831613,0.243364045 C7.72089677,1.31567865 7.0281871,3.75235281 7.97425161,4.24017303 C7.97425161,4.24017303 5.75096129,4.69927416 3.61089677,5.41664494" id="Fill-45" stroke="none" fill="#221E1E" fill-rule="evenodd"></path>
                                    <path d="M3.52887097,4.73662921 C3.58325806,5.1368764 3.61093548,5.41658427 3.61093548,5.41658427 C5.75080645,4.69921348 7.97429032,4.24011236 7.97429032,4.24011236 C7.70003226,4.09874157 7.56396774,3.79314607 7.48732258,3.40483146 C6.63629032,3.19773034 3.52887097,4.73662921 3.52887097,4.73662921" id="Fill-47" stroke="none" fill="#8E0707" fill-rule="evenodd"></path>
                                    <path d="M6.86833548,0.24334382 C6.71736774,0.0538382022 6.49227097,-0.0137123596 6.22420645,0.00287191011 C6.43033548,0.0150067416 6.60414194,0.0884224719 6.72781935,0.244152809 C7.58098065,1.31626517 6.88807742,3.75314157 7.83394839,4.24075955 C7.83394839,4.24075955 5.70356129,4.68084944 3.60627097,5.37233258 C3.60917419,5.4002427 3.61091613,5.41662472 3.61091613,5.41662472 C5.75098065,4.69925393 7.97427097,4.24015281 7.97427097,4.24015281 C7.02820645,3.75253483 7.72091613,1.31565843 6.86833548,0.24334382" id="Fill-49" stroke="none" fill="#FFFFFF" fill-rule="evenodd"></path>
                                    <path d="M3.3099871,1.95633708 C3.29063226,1.90557303 4.99192258,0.403483146 6.2492129,0.00121348315 C5.00566452,0.0546067416 2.79476129,1.99597753 2.81663226,2.05361798 C3.33650323,2.6387191 3.61095484,5.41658427 3.61095484,5.41658427 C3.77314839,5.36238202 3.93553548,5.30979775 4.09772903,5.25822472 C4.05437419,4.85170787 3.78476129,2.49047191 3.3099871,1.95633708" id="Fill-51" stroke="none" fill="#A7D2D6" fill-rule="evenodd"></path>
                                    <path d="M9.09092903,4.01731685 C7.60873548,3.86401348 0.884670968,5.91115955 1.67086452,6.11381124 C2.43402581,6.31059775 3.43602581,5.88547416 3.49370323,5.8608 C3.56667097,5.68605843 3.66499355,5.47491236 3.73486452,5.41666517 C3.73486452,5.41666517 6.96538065,4.40077753 8.04150968,4.32432809 C8.04150968,4.32432809 8.22789677,4.44244045 8.36434839,4.54154157 C9.15131613,4.27841798 9.57170323,4.06706966 9.09092903,4.01731685" id="Fill-53" stroke="none" fill="#0F0C0C" fill-rule="evenodd"></path>
                                    <path d="M7.68505161,11.8056135 C7.71137419,11.983591 7.61730968,12.1461978 7.47601935,12.1688494 C7.33434194,12.1912989 7.19847097,12.0652989 7.17234194,11.8873213 C7.14640645,11.7093438 7.24008387,11.5469393 7.38195484,11.5240854 C7.52324516,11.501636 7.65911613,11.627636 7.68505161,11.8056135" id="Fill-55" stroke="none" fill="#6A0303" fill-rule="evenodd"></path>
                                    <path d="M7.65406452,11.8840247 C7.68019355,12.0620022 7.58632258,12.2244067 7.44483871,12.2472607 C7.30335484,12.2697101 7.16729032,12.1437101 7.14135484,11.9657326 C7.11522581,11.7875528 7.20870968,11.6251483 7.35058065,11.6022944 C7.49225806,11.5798449 7.62793548,11.7058449 7.65406452,11.8840247" id="Fill-57" stroke="none" fill="#D8EEF2" fill-rule="evenodd"></path>
                                    <path d="M7.73382581,11.7979079 C7.75995484,11.9758854 7.66589032,12.1384921 7.5246,12.1611438 C7.38292258,12.1835933 7.24666452,12.0575933 7.22092258,11.8796157 C7.19479355,11.7016382 7.28866452,11.5392337 7.43034194,11.5163798 C7.57163226,11.4939303 7.70769677,11.6197281 7.73382581,11.7979079" id="Fill-59" stroke="none" fill="#8E0707" fill-rule="evenodd"></path>
                                    <path d="M7.64347742,11.8121258 C7.66050968,11.927609 7.59973548,12.033182 7.5081871,12.0479461 C7.41586452,12.0625079 7.3278,11.9808 7.31115484,11.8653169 C7.29412258,11.7496315 7.35509032,11.6444629 7.44683226,11.6296989 C7.53857419,11.6149348 7.62683226,11.6966427 7.64347742,11.8121258" id="Fill-61" stroke="none" fill="#6A0303" fill-rule="evenodd"></path>
                                    <path d="M7.44690968,11.6296382 C7.43839355,11.6310539 7.43065161,11.6338854 7.42290968,11.6367169 C7.50555484,11.6387393 7.57987742,11.7147843 7.59536129,11.8197506 C7.61065161,11.9249191 7.56149032,12.0209865 7.48310323,12.0484921 C7.49142581,12.0486944 7.49955484,12.0490989 7.50807097,12.0478854 C7.5998129,12.0331213 7.6605871,11.9277506 7.64355484,11.8120652 C7.62690968,11.696582 7.53865161,11.6150764 7.44690968,11.6296382" id="Fill-63" stroke="none" fill="#4E0101" fill-rule="evenodd"></path>
                                    <path d="M7.94930323,14.0818854 C7.95007742,14.2616831 7.83472258,14.4083124 7.69130323,14.4089191 C7.54827097,14.4097281 7.43136774,14.2645146 7.43020645,14.0845146 C7.42943226,13.9043124 7.54498065,13.7576831 7.6884,13.7570764 C7.83162581,13.7562674 7.94833548,13.9014809 7.94930323,14.0818854" id="Fill-65" stroke="none" fill="#6A0303" fill-rule="evenodd"></path>
                                    <path d="M7.90751613,14.1543708 C7.90829032,14.334573 7.79274194,14.481 7.64970968,14.481809 C7.50629032,14.482618 7.38958065,14.337 7.3886129,14.157 C7.38783871,13.977 7.5033871,13.8303708 7.6466129,13.829764 C7.78983871,13.8291573 7.90654839,13.9743708 7.90751613,14.1543708" id="Fill-67" stroke="none" fill="#D8EEF2" fill-rule="evenodd"></path>
                                    <path d="M7.99825161,14.0814809 C7.99921935,14.2614809 7.88347742,14.4081101 7.74044516,14.4087169 C7.59702581,14.4095258 7.48031613,14.2641101 7.47934839,14.0843124 C7.47838065,13.9039079 7.59392903,13.7574809 7.73734839,13.7568742 C7.88057419,13.7560652 7.99747742,13.9012787 7.99825161,14.0814809" id="Fill-69" stroke="none" fill="#8E0707" fill-rule="evenodd"></path>
                                    <path d="M7.90714839,14.0818854 C7.90772903,14.198582 7.83282581,14.2938404 7.73992258,14.2944472 C7.64682581,14.2948517 7.57134194,14.2006045 7.57056774,14.0837056 C7.57018065,13.9668067 7.64489032,13.8719528 7.7379871,13.8713461 C7.83069677,13.8709416 7.90656774,13.9651888 7.90714839,14.0818854" id="Fill-71" stroke="none" fill="#6A0303" fill-rule="evenodd"></path>
                                    <path d="M7.7379871,13.8713461 C7.72966452,13.8715483 7.72134194,13.872964 7.71340645,13.8747843 C7.79469677,13.8891438 7.8576,13.9761101 7.8579871,14.0822899 C7.85856774,14.1882674 7.79643871,14.2758404 7.71534194,14.2914135 C7.72327742,14.2928292 7.7316,14.2944472 7.73992258,14.2944472 C7.83282581,14.2938404 7.90772903,14.198582 7.90714839,14.0818854 C7.90656774,13.9651888 7.83069677,13.8709416 7.7379871,13.8713461" id="Fill-73" stroke="none" fill="#4E0101" fill-rule="evenodd"></path>
                                    <path d="M10.7636886,6.16797303 C10.7629161,6.39590562 11.0259484,6.7352764 11.1231097,6.94075955" id="Stroke-75" stroke="#672C01" stroke-width="0.5" fill="none" stroke-linecap="round" stroke-linejoin="round"></path>
                                    <path d="M11.2233677,6.96175281 C11.3983355,6.88611236 11.6350452,6.60458427 11.8229806,6.48141573" id="Stroke-77" stroke="#672C01" stroke-width="0.5" fill="none" stroke-linecap="round" stroke-linejoin="round"></path>
                                    <path d="M3.43474839,11.0222899 C3.16745806,11.0455483 2.87945806,10.4770315 2.76178065,10.279436 C2.28255484,9.47509888 1.90223226,8.59127865 1.52423226,7.73455955 C1.3752,7.39741348 1.26932903,7.08433483 1.2672,6.71927865" id="Stroke-79" stroke="#672C01" stroke-width="0.5" fill="none" stroke-linecap="round" stroke-linejoin="round"></path>
                                    <path d="M1.83985255,6.71921798 C1.84043226,6.94715056 1.5710129,7.28652135 1.47172258,7.49220674" id="Stroke-81" stroke="#672C01" stroke-width="0.5" fill="none" stroke-linecap="round" stroke-linejoin="round"></path>
                                    <path d="M1.3695871,7.51299775 C1.19036129,7.43755955 0.94803871,7.15603146 0.75603871,7.03245843" id="Stroke-83" stroke="#672C01" stroke-width="0.5" fill="none" stroke-linecap="round" stroke-linejoin="round"></path>
                                </g>
                            </g>
                        </g>
                        <g id="路径-2">
                            <use fill="#FFFFFF" fill-rule="evenodd" xlink:href="#path-7"></use>
                            <use fill="black" fill-opacity="1" filter="url(#filter-8)" xlink:href="#path-7"></use>
                        </g>
                        <path d="M15.1245377,46 C15.5537754,46 16,45.4089959 16,45 C16,44.5910041 15.2064412,44 14.7772036,44 C14.3479659,44 14,44.3315567 14,44.7405527 C14,45.1495486 14.6953001,46 15.1245377,46 Z" id="椭圆形" fill="#FFE796"></path>
                        <path d="M21.7729666,56.504972 C23.9355372,55.0157274 22.581307,56.1747504 22.581307,55.7674015 C22.581307,55.3600526 22.2194007,55.029831 21.7729666,55.029831 C21.3265325,55.029831 20.0334595,54.8726272 20.0334595,55.2799761 C20.0334595,55.687325 19.6103959,57.9942165 21.7729666,56.504972 Z" id="椭圆形-copy-8" fill-opacity="0.91" fill="#FFE796"></path>
                        <path d="M63.5870211,56 C64.0123214,56 63.9999627,55.172942 63.9999627,54.7556229 C63.9999627,54.3383039 63.6036515,54 63.1783512,54 C62.7530509,54 62,54.582681 62,55 C62,55.417319 63.1617209,56 63.5870211,56 Z" id="椭圆形-copy-9" fill="#FFE796"></path>
                        <path d="M56.8540691,58 C57.3257584,58 58,57.6701891 58,57.2633467 C58,56.8565043 57.5698594,56 57.09817,56 C56.6264807,56 56,56.8565043 56,57.2633467 C56,57.6701891 56.3823798,58 56.8540691,58 Z" id="椭圆形-copy-10" fill="#FFE796"></path>
                        <path d="M45.8150517,19 C46.2651923,19 46.993237,18.604308 46.993237,18.1161971 C46.993237,17.6280862 47.080244,16 46.6301033,16 C46.1799627,16 45,17.6280862 45,18.1161971 C45,18.604308 45.3649111,19 45.8150517,19 Z" id="椭圆形-copy-11" fill-opacity="0.8" fill="#FFE796" transform="translate(46.000000, 17.500000) rotate(110.000000) translate(-46.000000, -17.500000) "></path>
                        <path d="M2.09176979,48.0537106 L36.0295506,81.9914913 C39.5029177,79.1129804 44.5448004,79.0879996 48.0453919,81.9165489 L81.9082302,48.0537106 C79.0045198,44.5499364 79.0045198,39.4500636 81.9082302,35.9462894 L48.1369717,2.17503091 C44.6028977,5.10385191 39.4450006,5.0785242 35.9390114,2.09904779 L2.09176979,35.9462894 C4.99548023,39.4500636 4.99548023,44.5499364 2.09176979,48.0537106 Z" id="线框" stroke="#F0270F" stroke-width="3"></path>
                        <text id="新" font-family="PingFangSC-Medium, PingFang SC" font-size="35" font-weight="400" line-spacing="33" letter-spacing="1.75" fill="#FFF163">
                            <tspan x="23" y="57">新</tspan>
                        </text>
                        <g id="路径-2" transform="translate(53.107321, 37.427548) rotate(28.000000) translate(-53.107321, -37.427548) ">
                            <use fill="#FFFFFF" fill-rule="evenodd" xlink:href="#path-9"></use>
                            <use fill="black" fill-opacity="1" filter="url(#filter-10)" xlink:href="#path-9"></use>
                        </g>
                    </g>
                </g>
            </g>
        </g>
    </g>
</svg>