<?xml version="1.0" encoding="UTF-8"?>
<svg width="17px" height="20px" viewBox="0 0 17 20" version="1.1" xmlns="http://www.w3.org/2000/svg" xmlns:xlink="http://www.w3.org/1999/xlink">
    <!-- Generator: Sketch 51 (57462) - http://www.bohemiancoding.com/sketch -->
    <title>客户 copy 3</title>
    <desc>Created with Sketch.</desc>
    <defs></defs>
    <g id="Page-1" stroke="none" stroke-width="1" fill="none" fill-rule="evenodd">
        <g id="首页（抢单）-copy-6" transform="translate(-179.000000, -649.000000)">
            <rect fill="#F7F7F7" x="0" y="0" width="375" height="688"></rect>
            <g id="Group-5" transform="translate(177.000000, 648.000000)" fill="#9A9A9A" fill-rule="nonzero">
                <g id="客户-copy-3" transform="translate(2.000000, 1.000000)">
                    <g id="Group" transform="translate(0.277107, 0.382402)">
                        <path d="M8.28227997,1.13426583 C10.6261207,1.13426583 12.5412258,3.03416007 12.5412258,5.35941055 C12.5412258,7.68464939 10.6261324,9.58455527 8.28227997,9.58455527 C5.93843922,9.58455527 4.02333409,7.68466102 4.02333409,5.35941055 C4.02333409,3.03417171 5.93842749,1.13426583 8.28227997,1.13426583 Z M8.28227997,0 C5.3095996,0 2.88,2.41031707 2.88,5.35940473 C2.88,8.3084924 5.3095996,10.7188095 8.28227997,10.7188095 C11.2549603,10.7188095 13.6845599,8.3084924 13.6845599,5.35940473 C13.6845599,2.41031707 11.2549603,1.23961136e-15 8.28227997,0 Z" id="Shape"></path>
                        <path d="M0.571669001,19.0741208 C0.257251148,19.0741208 0,18.8189113 0,18.5069889 C0,13.7997924 3.85877699,10 8.57504478,10 C10.1185536,10 11.6620703,10.4253504 12.9769025,11.1909788 C13.2341537,11.3611186 13.3484871,11.7013978 13.176987,11.9566072 C13.0054861,12.2118167 12.6624847,12.3252427 12.4052335,12.1551037 C11.2618936,11.4745438 9.94704765,11.1059084 8.60362911,11.1059084 C4.51618139,11.1059084 1.17191842,14.4236296 1.17191842,18.4786372 C1.14333488,18.8189172 0.886082946,19.0741266 0.571665093,19.0741266 L0.571669001,19.0741208 Z M16.121083,14.6504796 L11.0332131,14.6504796 C10.7187952,14.6504796 10.4615441,14.3952702 10.4615441,14.0833477 C10.4615441,13.7714252 10.7187952,13.5162157 11.0332131,13.5162157 L16.1496498,13.5162157 C16.4640676,13.5162157 16.7213188,13.7714252 16.7213188,14.0833477 C16.7213188,14.3952702 16.4354833,14.6504796 16.1210654,14.6504796 L16.121083,14.6504796 Z M16.121083,16.8623002 L11.0332131,16.8623002 C10.7187952,16.8623002 10.4615441,16.6070907 10.4615441,16.2951683 C10.4615441,15.9832458 10.7187952,15.7280363 11.0332131,15.7280363 L16.1496498,15.7280363 C16.4640676,15.7280363 16.7213188,15.9832458 16.7213188,16.2951683 C16.7213188,16.6070907 16.4354833,16.8623002 16.1210654,16.8623002 L16.121083,16.8623002 Z M16.121083,19.0741208 L11.0332131,19.0741208 C10.7187952,19.0741208 10.4615441,18.8189113 10.4615441,18.5069889 C10.4615441,18.1950664 10.7187952,17.9398569 11.0332131,17.9398569 L16.1496498,17.9398569 C16.4640676,17.9398569 16.7213188,18.1950664 16.7213188,18.5069889 C16.7213188,18.8189113 16.4354833,19.0741208 16.1210654,19.0741208 L16.121083,19.0741208 Z" id="Shape"></path>
                    </g>
                </g>
            </g>
        </g>
    </g>
</svg>