<?xml version="1.0" encoding="UTF-8"?>
<svg width="99px" height="99px" viewBox="0 0 99 99" version="1.1" xmlns="http://www.w3.org/2000/svg" xmlns:xlink="http://www.w3.org/1999/xlink">
    <!-- Generator: Sketch 52.5 (67469) - http://www.bohemiancoding.com/sketch -->
    <title>电话</title>
    <desc>Created with Sketch.</desc>
    <defs>
        <path d="M-5.68434189e-14,7.38964445e-13 L750,7.38964445e-13 L750,258 C625.786499,294.63111 501.119832,312.946664 376,312.946664 C250.880168,312.946664 125.546834,294.63111 -5.68434189e-14,258 L-5.68434189e-14,7.38964445e-13 Z" id="path-1"></path>
        <linearGradient x1="-152.032488%" y1="73.3626703%" x2="57.8543125%" y2="17.238663%" id="linearGradient-3">
            <stop stop-color="#FFFFFF" offset="0%"></stop>
            <stop stop-color="#FFFFFF" stop-opacity="0" offset="100%"></stop>
        </linearGradient>
        <filter x="-5.2%" y="-15.0%" width="110.4%" height="130.0%" filterUnits="objectBoundingBox" id="filter-4">
            <feGaussianBlur stdDeviation="12" in="SourceGraphic"></feGaussianBlur>
        </filter>
        <filter x="-58.8%" y="-58.8%" width="217.6%" height="217.6%" filterUnits="objectBoundingBox" id="filter-5">
            <feGaussianBlur stdDeviation="10" in="SourceGraphic"></feGaussianBlur>
        </filter>
    </defs>
    <g id="12.25订单详情-积分中心" stroke="none" stroke-width="1" fill="none" fill-rule="evenodd">
        <g id="订单详情" transform="translate(-605.000000, -279.000000)">
            <rect fill="#F9F9F9" x="0" y="0" width="750" height="1720"></rect>
            <g id="top背景">
                <g id="椭圆形-+-椭圆形-copy-Mask">
                    <mask id="mask-2" fill="white">
                        <use xlink:href="#path-1"></use>
                    </mask>
                    <use id="Mask" fill="#1859E1" fill-rule="nonzero" xlink:href="#path-1"></use>
                    <circle id="椭圆形" fill="url(#linearGradient-3)" fill-rule="nonzero" opacity="0.712983631" mask="url(#mask-2)" cx="407" cy="405" r="201"></circle>
                    <circle id="椭圆形-copy" fill="url(#linearGradient-3)" fill-rule="nonzero" mask="url(#mask-2)" cx="633" cy="353" r="257"></circle>
                </g>
            </g>
            <g id="by" transform="translate(31.000000, 208.000000)">
                <polygon id="阴影" fill="#C8DEF7" opacity="0.218191964" filter="url(#filter-4)" points="0 23 690 23 690 263 0 263"></polygon>
                <path d="M14,0 L676,0 C683.731986,-1.42034288e-15 690,6.2680135 690,14 L690,249 C690,256.731986 683.731986,263 676,263 L14,263 C6.2680135,263 9.46895252e-16,256.731986 0,249 L-1.77635684e-15,14 C-2.72325209e-15,6.2680135 6.2680135,1.42034288e-15 14,0 Z" id="背景" fill="#FFFFFF"></path>
            </g>
            <g id="电话" transform="translate(605.000000, 279.000000)">
                <g transform="translate(19.000000, 15.000000)">
                    <circle id="椭圆形" fill="#3490FB" filter="url(#filter-5)" cx="30.5" cy="34.5" r="25.5"></circle>
                    <circle id="椭圆形" fill="#3490FB" cx="30" cy="30" r="30"></circle>
                    <g transform="translate(16.000000, 16.000000)" fill="#FFFFFF" id="路径">
                        <path d="M20.1784667,16.3961 C18.7219333,16.3961 17.6558,17.6574333 16.395,17.6574333 C15.1352667,17.6574333 9.4622,12.1059667 9.4622,10.7246333 C9.4622,9.3481 10.7214,8.67876669 10.7214,7.25796666 C10.7214,6.23716666 6.93953334,0.0131666563 5.3646,0.0131666563 C3.78966666,0.0126333438 0.00833334375,2.8105 0.00833334375,5.36943334 C0.00833334375,12.8531667 13.7955333,27.1123667 22.3838,27.1123667 C24.7486,27.1123667 27.7416667,24.6281 27.7416667,21.7545 C27.7416667,20.7694333 21.5960667,16.3961 20.1784667,16.3961 Z"></path>
                    </g>
                </g>
            </g>
        </g>
    </g>
</svg>