<?xml version="1.0" encoding="UTF-8"?>
<svg width="110px" height="110px" viewBox="0 0 110 110" version="1.1" xmlns="http://www.w3.org/2000/svg" xmlns:xlink="http://www.w3.org/1999/xlink">
    <!-- Generator: Sketch 51 (57462) - http://www.bohemiancoding.com/sketch -->
    <title>Rectangle 5</title>
    <desc>Created with Sketch.</desc>
    <defs></defs>
    <g id="Page-1" stroke="none" stroke-width="1" fill="none" fill-rule="evenodd">
        <g id="首页暂无订单" transform="translate(-132.000000, -322.000000)">
            <g id="Group-3" transform="translate(132.000000, 322.000000)" fill="#D8D8D8" fill-rule="nonzero">
                <g id="9c075cf8f2c8bfad2f63895bc55943b7" transform="translate(2.000000, 13.000000)">
                    <path d="M21.0774174,65.1351351 C21.0774174,65.1351351 21.0774174,65.1351351 21.0774174,65.1351351 C21.4036108,65.6756757 22.0559976,66 22.7083843,66 C23.6869645,66 24.502448,65.1891892 24.502448,64.2162162 C24.502448,63.8918919 24.3937169,63.5135135 24.2306202,63.2432432 C24.2306202,63.2432432 24.2306202,63.2432432 24.2306202,63.2432432 C21.9472664,58.8648649 20.6424929,53.8918919 20.6424929,48.5945946 C20.6424929,30.972973 35.0493676,16.6486486 52.7725418,16.6486486 C61.7972256,16.6486486 69.9520604,20.3783784 75.8235414,26.3243243 C81.4775602,32.1081081 84.9569563,39.9459459 84.9569563,48.5945946 C84.9569563,53.4594595 83.869645,58.1081081 81.8581191,62.2702703 C81.6950224,62.5405405 81.6406569,62.8108108 81.6406569,63.1351351 C81.6406569,64.1081081 82.5648715,64.9189189 83.5434517,64.9189189 C84.1958384,64.9189189 84.7394941,64.5945946 85.0656875,64.1081081 C85.0656875,64.0540541 85.120053,64.0540541 85.120053,64 C85.1744186,63.9459459 85.1744186,63.8918919 85.2287842,63.7837838 C87.4577723,59.1891892 88.6538148,54 88.6538148,48.5405405 C88.6538148,47.7297297 88.5994492,46.8648649 88.5450836,46.0540541 L88.5450836,5.56756757 L96.0475316,12.0540541 C96.8086495,12.7027027 97.9503264,12.5945946 98.5483476,11.8918919 C99.2007344,11.1351351 99.1463688,10 98.3852509,9.40540541 L88.0557936,0.486486486 C87.7839657,0.216216216 87.4034068,0.108108108 87.0772134,0.0540540541 C86.9684823,0.0540540541 86.8597511,0 86.75102,0 C85.7724398,0 84.9569563,0.810810811 84.9569563,1.78378378 L84.9569563,32.8648649 C79.0854753,21.0810811 66.9075887,12.972973 52.8269074,12.972973 C33.0922073,12.972973 17,28.972973 17,48.5945946 C17,54.5405405 18.4678703,60.1621622 21.0774174,65.1351351 Z" id="Shape"></path>
                    <path d="M106.494348,71.224978 C104.120576,68.6538258 100.829665,70.5685136 98.1861465,71.5532102 C96.7834631,72.1002639 96.028172,71.9361478 94.7333873,71.1702727 C93.3307039,70.2949868 92.0898685,69.3649956 90.4713877,69.2008795 C88.745008,69.0367634 87.1804765,69.7479331 85.7238437,70.623219 C83.835616,71.826737 81.893439,72.26438 79.7894138,71.3343887 C78.170933,70.623219 76.8221989,69.4744063 75.0958193,69.0914687 C73.1536422,68.7085312 71.4272626,69.583817 69.8627311,70.6779244 C68.2981996,71.7720317 67.2731617,71.8814424 65.5467821,71.0061566 C63.7664531,70.0761653 61.824276,69.2008795 59.7742003,69.6932278 C57.8859726,70.1308707 56.2674917,71.3343887 54.4332133,71.826737 C52.3831376,72.3737907 50.4409605,70.7873351 48.7145809,69.9667546 C47.0961,69.2008795 45.2618217,68.982058 43.5893914,69.6385224 C41.9169612,70.2949868 40.6221765,71.826737 38.7878981,71.9908531 C36.5759743,72.1549692 34.7956453,70.7326297 32.7995189,70.02146 C30.8033925,69.3102902 28.8612154,69.7479331 27.0269371,70.7326297 C26.0018992,71.2796834 24.9768613,72.2096746 23.7360259,72.0455585 C22.4951906,71.8814424 21.6320008,70.7873351 20.5530135,70.2949868 C17.4778999,68.9273526 15.3199254,71.224978 12.6224572,72.1549692 C10.7342295,72.8114336 8.41440692,70.5685136 6.74197668,69.9120492 C4.31425535,68.982058 1.99443276,69.7479331 0.429901236,71.7720317 C-1.02673156,73.6320141 1.56283785,75.3825858 3.07342001,73.467898 C3.99055918,72.3190853 4.63795153,71.9908531 5.9866856,72.6473175 C7.38936903,73.3037819 8.68415374,74.2337732 10.1947359,74.7261214 C11.8132168,75.2731751 13.4316977,74.9449429 14.9422798,74.2337732 C16.452862,73.5773088 17.9634441,71.8814424 19.581925,72.9755497 C21.0925072,73.9602463 22.3872919,74.7261214 24.2215702,74.7808268 C26.1097979,74.8355322 27.7822281,73.5773088 29.3467597,72.7567283 C31.181038,71.7720317 32.9074176,73.2490766 34.5798479,73.9602463 C36.683873,74.7808268 39.057645,75.109059 41.2156195,74.2337732 C42.6183029,73.6867195 43.8051889,72.4284961 45.2618217,71.9908531 C46.9342519,71.4985048 49.2540745,73.5226034 50.7107073,74.1243624 C52.4910363,74.7808268 54.4332133,74.7808268 56.2135423,74.1790678 C58.2096687,73.5226034 59.9360483,71.8814424 62.0940229,72.4832014 C63.8743518,72.9755497 65.2230859,74.2884785 67.1113136,74.3978893 C68.9995413,74.5073 70.5101234,73.7414249 72.0207056,72.7020229 C72.668098,72.26438 73.3154903,71.7720317 74.1247307,71.7720317 C74.8260725,71.7173263 75.6353129,72.3737907 76.2287559,72.7020229 C78.1169836,73.8508356 80.0591606,74.5620054 82.2710845,74.5620054 C83.6198186,74.5620054 84.8606539,74.2337732 86.1014893,73.6867195 C87.1265272,73.2490766 87.989717,72.4284961 89.0147549,72.0455585 C90.7411345,71.3890941 92.3596154,73.1943712 93.7622988,73.905541 C95.6505265,74.8902375 97.5387542,74.7808268 99.4809312,74.0149517 C100.39807,73.6320141 101.31521,73.2490766 102.232349,72.9208444 C102.609994,72.8114336 102.98764,72.7020229 103.365285,72.6473175 C103.85083,72.5926122 103.581083,72.5926122 103.85083,72.866139 C105.469311,74.7261214 108.112829,73.0302551 106.494348,71.224978 Z" id="Shape"></path>
                    <path d="M91.7692746,80.9859429 C90.5812893,81.3987519 89.9332973,81.2955497 88.8533106,80.6763362 C87.7193247,80.0055215 86.6393381,79.2831058 85.2353554,79.1283024 C83.7773735,78.9734991 82.4813895,79.5411114 81.2394049,80.2635272 C79.6734243,81.1923474 77.999445,81.5019542 76.2174671,80.8311395 C74.8674838,80.3151283 73.7334978,79.3863081 72.2755158,79.0767013 C70.6555359,78.7670946 69.1975539,79.4379092 67.90157,80.3151283 C66.605586,81.1923474 65.6875974,81.2439485 64.2836148,80.5731339 C62.7716335,79.8507182 61.1516535,79.1799036 59.4236749,79.5411114 C57.8576943,79.9023193 56.507711,80.8311395 54.8877311,81.1923474 C53.1597525,81.6051564 51.5397725,80.3667294 50.0817906,79.7475159 C48.7318073,79.1283024 47.1658266,78.9734991 45.761844,79.4895103 C44.3578614,80.0055215 43.2778748,81.1923474 41.7118942,81.3471508 C39.8759169,81.5019542 38.3099363,80.3667294 36.6899563,79.8507182 C35.015977,79.2831058 33.3959971,79.6443137 31.8300165,80.4183305 C30.9660272,80.8311395 30.1020379,81.5535553 29.0220512,81.450353 C27.9960639,81.2955497 27.2400733,80.4699317 26.3220846,80.1087238 C23.7301167,79.0251002 21.9481388,80.8311395 19.6261675,81.5535553 C18.0601869,82.0695665 16.0622116,80.3151283 14.7122284,79.7991171 C12.6602538,79.0767013 10.7162778,79.6959148 9.36629452,81.2439485 C8.1243099,82.68878 10.3382825,84.1852126 11.5802671,82.7403812 C12.3362578,81.863162 12.8762511,81.6051564 14.010237,82.1211677 C15.1982223,82.6371789 16.278209,83.3595947 17.5201936,83.7724037 C18.8701769,84.2368138 20.2201602,83.927207 21.5161441,83.4111958 C22.7581288,82.8951845 24.0541127,81.6051564 25.4580953,82.4307744 C26.7540793,83.2047913 27.7800666,83.7724037 29.4000465,83.8240048 C31.0200265,83.8756059 32.3700098,82.8951845 33.7199931,82.2243699 C35.2859737,81.450353 36.7439556,82.6371789 38.1479383,83.1531902 C39.9299162,83.8240048 41.9278915,84.0304093 43.7098694,83.3595947 C44.8978547,82.8951845 45.8698427,81.9663643 47.1118273,81.6051564 C48.5158099,81.1923474 50.4597859,82.7919823 51.7017705,83.2563924 C53.2137518,83.7724037 54.8337317,83.7724037 56.345713,83.3079935 C58.0196923,82.7919823 59.4776743,81.5535553 61.2596522,82.0179654 C62.7176342,82.3791733 63.8516201,83.4627969 65.4716001,83.514398 C67.09158,83.6176003 68.3335646,82.9983868 69.6295486,82.1727688 C70.1695419,81.8115609 70.7095352,81.450353 71.4115265,81.450353 C72.0055192,81.3987519 72.7075105,81.9147632 73.1935045,82.1727688 C74.8134844,83.0499879 76.4334644,83.6176003 78.2694417,83.6176003 C79.4034276,83.6176003 80.4834142,83.3595947 81.5094016,82.9467857 C82.3733909,82.5855778 83.0753822,81.9663643 83.9393715,81.6567575 C85.3973534,81.1407463 86.7473367,82.5339767 87.935322,83.101589 C89.555302,83.8756059 91.0672832,83.7724037 92.7412625,83.2047913 C93.4972532,82.9467857 94.3072431,82.5855778 95.0632338,82.3275722 C95.3872298,82.2243699 95.6572264,82.1211677 95.9812224,82.1211677 C96.3592177,82.0695665 96.1432204,82.0695665 96.3592177,82.275971 C97.7632004,83.6692014 99.9231736,82.1727688 98.5731903,80.7795384 C96.7912124,78.7670946 93.9832472,80.211926 91.7692746,80.9859429 Z" id="Shape"></path>
                    <path d="M7.78975331,19.3255241 C7.93776012,19.2776819 9.41782821,18.8949446 9.96051984,20.0909988 C9.96051984,20.2345253 10.0098554,20.425894 10.059191,20.5694205 C10.1578623,20.8564735 10.4045403,21 10.7005539,21 C10.7498895,21 10.7992251,21 10.8978963,20.9521578 C11.2432455,20.8564735 11.4405879,20.5215783 11.3419167,20.1866831 C10.9472319,18.8949446 12.3779644,18.3208386 12.5753068,18.2251542 C12.920656,18.1294699 13.0686628,17.7467325 12.9699916,17.4118374 C12.8713204,17.0769422 12.4766356,16.9334157 12.1312864,17.0291 C11.5885947,17.2204687 10.7992251,17.6988904 10.3552047,18.4165229 C9.41782821,17.7467325 8.13510253,17.8424169 7.44440409,18.0337855 C7.09905487,18.1294699 6.90171246,18.4643651 7.04971927,18.7992602 C7.09905487,19.2776819 7.44440409,19.4212084 7.78975331,19.3255241 Z" id="Shape"></path>
                    <path d="M18.1014763,11.4124863 C18.3029153,11.3574328 20.3173044,10.7518444 21.0223405,12.5686094 C21.0727003,12.7888234 21.0727003,13.0640908 21.1734197,13.3393582 C21.2741392,13.7797861 21.6266573,14 21.9791754,14 C22.0798948,14 22.1302545,14 22.230974,13.9449465 C22.6842115,13.7797861 22.9360102,13.2843047 22.8352907,12.7888234 C22.2813337,10.7518444 24.2453631,9.92604219 24.446802,9.81593522 C24.9000396,9.65077477 25.1014785,9.10023993 24.9503993,8.60475857 C24.7993201,8.10927722 24.2957228,7.88906328 23.8424853,8.05422373 C23.0870894,8.32949115 22.0798948,9.04518644 21.4755781,10.2013096 C20.2165849,9.15529341 18.5043542,9.26540038 17.5978791,9.59572128 C17.1446415,9.76088174 16.8928429,10.2563631 17.0439221,10.8068979 C17.1446415,11.3023793 17.6482388,11.5776467 18.1014763,11.4124863 Z" id="Shape"></path>
                    <path d="M35.3436364,53.6563636 C35.8018182,54.1145455 36.5145455,54.1145455 36.9727273,53.6563636 L38.5,52.1290909 L40.0272727,53.6563636 C40.4854545,54.1145455 41.1981818,54.1145455 41.6563636,53.6563636 C42.1145455,53.1981818 42.1145455,52.4854545 41.6563636,52.0272727 L40.1290909,50.5 L41.6563636,48.9727273 C42.1145455,48.5145455 42.1145455,47.8018182 41.6563636,47.3436364 C41.1981818,46.8854545 40.4854545,46.8854545 40.0272727,47.3436364 L38.5,48.8709091 L36.9727273,47.3436364 C36.5145455,46.8854545 35.8018182,46.8854545 35.3436364,47.3436364 C34.8854545,47.8018182 34.8854545,48.5145455 35.3436364,48.9727273 L36.8709091,50.5 L35.3436364,52.0272727 C34.8854545,52.4854545 34.8854545,53.1981818 35.3436364,53.6563636 Z" id="Shape"></path>
                    <path d="M64.3436364,53.6563636 C64.8018182,54.1145455 65.5145455,54.1145455 65.9727273,53.6563636 L67.5,52.1290909 L69.0272727,53.6563636 C69.4854545,54.1145455 70.1981818,54.1145455 70.6563636,53.6563636 C71.1145455,53.1981818 71.1145455,52.4854545 70.6563636,52.0272727 L69.1290909,50.5 L70.6563636,48.9727273 C71.1145455,48.5145455 71.1145455,47.8018182 70.6563636,47.3436364 C70.1981818,46.8854545 69.4854545,46.8854545 69.0272727,47.3436364 L67.5,48.8709091 L65.9727273,47.3436364 C65.5145455,46.8854545 64.8018182,46.8854545 64.3436364,47.3436364 C63.8854545,47.8018182 63.8854545,48.5145455 64.3436364,48.9727273 L65.8709091,50.5 L64.3436364,52.0272727 C63.8854545,52.4854545 63.8854545,53.1981818 64.3436364,53.6563636 Z" id="Shape"></path>
                </g>
            </g>
        </g>
    </g>
</svg>