<?xml version="1.0" encoding="UTF-8"?>
<svg width="157px" height="157px" viewBox="0 0 157 157" version="1.1" xmlns="http://www.w3.org/2000/svg" xmlns:xlink="http://www.w3.org/1999/xlink">
    <!-- Generator: Sketch 51 (57462) - http://www.bohemiancoding.com/sketch -->
    <title>卡券-05</title>
    <desc>Created with Sketch.</desc>
    <defs></defs>
    <g id="Page-1" stroke="none" stroke-width="1" fill="none" fill-rule="evenodd">
        <g id="报错页面" transform="translate(-109.000000, -145.000000)">
            <g id="Group-3" transform="translate(109.000000, 145.000000)" fill-rule="nonzero">
                <g id="卡券-05">
                    <g id="Group">
                        <path d="M129.666803,134.845223 C128.184648,136.20605 126.806776,137.70599 125.350137,139.162629 C123.36997,141.142954 121.273532,143.003482 119.071961,144.734305 L32.9742939,144.734305 C30.7692716,143.000583 28.6695146,141.13705 26.6861704,139.15358 C8.29955118,120.776871 1.6552105,93.7017649 9.44637483,68.9012709 L2.63513906,62.0817918 C-0.779595209,58.6762605 -0.787036191,53.1478783 2.61791987,49.7333171 C6.02271186,46.3188031 11.5518806,46.3112992 14.9663946,49.7160411 L19.2657877,54.0760161 C21.3099183,56.120886 24.6248207,56.120886 26.6689512,54.0760161 C28.7138212,52.0318855 28.7138212,48.7168258 26.6689512,46.6726795 L18.654935,38.6587105 C16.6108044,36.6138405 16.6108044,33.2987179 18.654935,31.2545873 C20.6998049,29.2098747 24.0141253,29.2098747 26.059011,31.2545873 L37.1687274,42.3472508 C38.4659611,43.7768963 40.445717,44.3764365 42.3183431,43.9064103 C44.1904029,43.4363778 45.6522177,41.9730292 46.1199141,40.0996637 C46.5884112,38.2268645 45.9867639,36.2478622 44.5548443,34.9522189 L39.8018974,30.1822191 C62.3531068,16.4818925 90.7035627,16.6771672 113.063006,30.6859516 C135.423392,44.6945676 147.966402,70.1198524 145.477056,96.3879345 L155.46202,106.460413 C157.50689,108.504543 157.50689,111.819446 155.46202,113.863576 C153.417889,115.908446 150.102829,115.908446 148.058683,113.863576 L138.300583,104.018701 C136.255713,101.973988 132.941392,101.973988 130.89668,104.018701 C128.852549,106.062831 128.852549,109.377891 130.89668,111.422037 L141.998106,122.523684 C145.396133,125.927626 145.396133,131.441111 141.998049,134.845116 C138.592474,138.250188 133.072335,138.250188 129.666803,134.845223 Z" id="Shape" fill="#EDF5FF"></path>
                        <path d="M7.38785681,25.2980802 C7.38785681,27.1678117 8.38560283,28.8954095 10.0039204,29.8295123 L10.0039201,29.8295121 C11.6228292,30.7644109 13.6175787,30.7644109 15.2365035,29.8295127 C16.8554441,28.8954146 17.8525672,27.1678121 17.8525672,25.2980806 C17.8525672,22.4089502 15.5097433,20.0662994 12.6206129,20.0662994 C9.7307432,20.0662994 7.38785643,22.4089659 7.38785643,25.2980806 L7.38785681,25.2980802 Z M14.9050263,143.897422 L126.527621,143.897422 C126.758915,143.897422 126.980434,143.989371 127.144443,144.152641 C127.307676,144.316357 127.399437,144.538048 127.399662,144.769236 C127.399662,145.250578 127.008792,145.641277 126.527621,145.641277 L14.9050263,145.641277 C14.4236844,145.641277 14.0329857,145.250578 14.0329857,144.769236 C14.0329857,144.537943 14.1249918,144.31648 14.2882051,144.152641 C14.4519413,143.9893 14.6737487,143.897524 14.9050264,143.897422 Z M135.248043,143.897422 L140.479997,143.897422 C140.711291,143.897422 140.93355,143.989371 141.096819,144.152641 C141.260363,144.316148 141.352181,144.537976 141.352038,144.769236 C141.352038,145.250578 140.962135,145.641277 140.479997,145.641277 L135.248043,145.641277 C134.766134,145.641277 134.376174,145.250578 134.376174,144.769236 C134.376174,144.537943 134.467385,144.31648 134.631394,144.152641 C134.794985,143.989188 135.016789,143.897389 135.248045,143.897422 L135.248043,143.897422 Z M78.5644361,149.129203 L83.7971926,149.129203 C84.2789875,149.129517 84.669359,149.520243 84.6692332,150.002038 L84.6692332,150.001992 C84.6689453,150.483477 84.2787233,150.87374 83.7972398,150.874078 L78.5644833,150.874078 C78.3331222,150.873942 78.1113054,150.781842 77.9478886,150.618064 C77.6074471,150.277977 77.6071608,149.726299 77.9472475,149.385858 C77.9474611,149.385644 77.9476748,149.38543 77.9478886,149.385217 C78.1113118,149.221449 78.3331239,149.129351 78.5644833,149.129203 L78.5644361,149.129203 Z M11.4170463,155.234002 L34.0901745,155.234002 C34.321468,155.234002 34.5429308,155.325951 34.7069958,155.489221 C34.8702286,155.652937 34.9619902,155.874628 34.9622152,156.105816 C34.9622152,156.337109 34.8700386,156.558799 34.7069958,156.722637 C34.5432391,156.885947 34.321446,156.977716 34.0901746,156.977856 L11.4170463,156.977856 C11.1857529,156.977856 10.9633242,156.885907 10.8002251,156.722637 C10.6365991,156.559093 10.5447714,156.337161 10.5450058,156.105816 C10.5450058,155.874522 10.6362162,155.653003 10.8002252,155.489221 C10.9638828,155.325763 11.1857404,155.233967 11.4170464,155.234002 L11.4170463,155.234002 Z M53.2754802,155.234002 L138.736181,155.234002 C138.967474,155.234002 139.188993,155.325951 139.352775,155.489221 C139.516102,155.652872 139.607881,155.874606 139.607995,156.105816 C139.607995,156.337109 139.516045,156.558799 139.352775,156.722637 C139.189124,156.885964 138.967391,156.977743 138.736181,156.977856 L53.2754802,156.977856 C53.0441868,156.977856 52.8224974,156.885907 52.658659,156.722637 C52.4953175,156.558901 52.4035417,156.337093 52.4034395,156.105816 C52.4034395,155.874522 52.4954456,155.653003 52.6586589,155.489221 C52.8223952,155.32588 53.0442025,155.234104 53.2754802,155.234002 L53.2754802,155.234002 Z M92.5179291,149.129203 L115.191057,149.129203 C115.672685,149.12983 116.062808,149.52041 116.06287,150.002038 C116.06287,150.233331 115.97092,150.454851 115.80765,150.618063 C115.644227,150.781831 115.422415,150.873929 115.191056,150.874077 L92.5179274,150.874077 C92.286634,150.874077 92.0642053,150.7819 91.9011062,150.618063 C91.7374093,150.45489 91.6455502,150.233169 91.6458868,150.002038 C91.6458868,149.770745 91.7370972,149.548486 91.9011062,149.385217 C92.0645309,149.221314 92.2864719,149.129197 92.5179273,149.129203 L92.5179291,149.129203 Z M32.3461846,149.129203 L71.5886335,149.129203 C71.8198482,149.12924 72.041525,149.221367 72.2046587,149.385217 C72.3685349,149.548659 72.4606473,149.770589 72.4606725,150.002038 C72.4606725,150.233331 72.3684959,150.454851 72.2046586,150.618063 C72.0415171,150.781903 71.819845,150.874028 71.5886334,150.874077 L32.3461845,150.874077 C31.8647262,150.873701 31.4745199,150.483495 31.4741439,150.002036 L31.4741439,150.001923 C31.4741438,149.520153 31.864528,149.129514 32.3462978,149.129201 L32.3461846,149.129203 Z M101.238351,8.72967194 C102.648618,8.72967194 103.920959,7.87928412 104.460721,6.57614479 C105.000312,5.27243126 104.702358,3.77243627 103.704612,2.77474689 C102.706866,1.77700088 101.206927,1.47904697 99.9032138,2.01863773 C98.6000697,2.55839838 97.7496866,3.83068201 97.7496866,5.24174704 C97.7496866,7.16745115 99.3119153,8.72967981 101.238359,8.72967981 L101.238351,8.72967194 Z M101.238351,10.4735203 C98.348434,10.4735203 96.0058304,8.13085381 96.0058304,5.24173918 C96.0058304,2.35182224 98.3484969,0.00898266533 101.238351,0.00898266533 C104.127481,0.00898266533 106.470368,2.35180651 106.470368,5.24173918 L106.470368,5.24219859 C106.470368,6.62981431 105.919111,7.96059539 104.937878,8.94173527 L104.937878,8.94173502 C103.956578,9.92288591 102.625699,10.4740063 101.238027,10.4738442 L101.238351,10.4735203 Z M123.039641,102.038815 C124.450477,102.038815 125.722202,101.188654 126.261791,99.8854451 C126.802121,98.582301 126.503598,97.0815635 125.505852,96.0838741 C124.508106,95.0861281 123.008168,94.7884008 121.704281,95.3279349 C120.401137,95.8675256 119.550911,97.1400421 119.550911,98.5508712 C119.550911,100.476811 121.112968,102.038804 123.039646,102.038804 L123.039641,102.038815 Z M123.039641,103.782899 C120.149725,103.782899 117.806885,101.440075 117.806885,98.5509451 C117.806885,95.6610282 120.149772,93.3183616 123.039641,93.3183616 C125.928772,93.3183616 128.271423,95.6610282 128.271423,98.5509451 L128.271423,98.5515612 C128.271423,99.9392241 127.720145,101.270052 126.738878,102.251224 L126.738878,102.251223 C125.75762,103.232333 124.426809,103.783451 123.0392,103.783333 L123.039641,103.782899 Z M75.9484511,39.2513372 C77.3592865,39.2513372 78.6310116,38.4009493 79.1713874,37.09781 C79.711148,35.7940965 79.4124563,34.2941487 78.4147103,33.2964121 C77.4177603,32.2986661 75.9170259,32.0007122 74.6138787,32.540303 C73.3099387,33.0800636 72.4605089,34.3523472 72.4605089,35.7626257 C72.4605089,37.6891321 74.0217701,39.2513608 75.9484417,39.2513608 L75.9484511,39.2513372 Z M75.9484511,40.9951856 C73.0585342,40.9951856 70.7164969,38.652519 70.7164969,35.7626021 C70.7164969,32.8734717 73.0585814,30.5306479 75.9484511,30.5306479 C78.838368,30.5306479 81.1810346,32.8734717 81.1810346,35.7626021 L81.1810346,35.7628881 C81.1810346,37.1506391 80.6295257,38.4815052 79.647928,39.4624877 L79.6479281,39.4624876 C78.6667647,40.4438367 77.3359537,40.9952371 75.9482499,40.9953912 L75.9484511,40.9951856 Z M27.1135854,118.607302 C28.5244207,118.607302 29.7969325,117.75788 30.3365216,116.454734 C30.8761124,115.150794 30.5783284,113.650853 29.580639,112.653163 C28.5829496,111.655474 27.0822153,111.356724 25.7790681,111.897224 C24.475128,112.436815 23.6256982,113.708529 23.6256982,115.119374 C23.6256414,117.046053 25.1876421,118.607307 27.1135681,118.607307 L27.1135854,118.607302 Z M27.1135854,120.352126 C24.2242348,120.352126 21.8816312,118.009302 21.8816312,115.119369 C21.8816312,112.229452 24.2242977,109.887415 27.1135854,109.887415 C30.0035023,109.887415 32.3461688,112.229499 32.3461688,115.119369 L32.3461689,115.118813 C32.3461689,116.50657 31.7949117,117.837493 30.8136585,118.818822 L30.8136584,118.818822 C29.8324949,119.800171 28.5016839,120.35157 27.1139801,120.351725 L27.1135854,120.352126 Z M124.783474,22.6820795 L130.015428,22.6820795 C130.246722,22.6820795 130.468981,22.7742561 130.63225,22.9372988 C130.796088,23.1013072 130.887469,23.3228267 130.887469,23.5540634 C130.887469,23.7853002 130.796031,24.0076157 130.63225,24.1708847 C130.468723,24.3345375 130.24678,24.4263699 130.015428,24.4261041 L124.783474,24.4261041 C124.552181,24.4261041 124.329922,24.3347231 124.166653,24.1708847 C124.002814,24.0076157 123.911434,23.7853569 123.911434,23.5540635 C123.911434,23.32277 124.002871,23.1013072 124.166653,22.9372989 C124.330389,22.7739574 124.552197,22.6821817 124.783474,22.6820794 Z" id="Shape" fill="#B6DEFF"></path>
                        <path d="M128.188911,26.1710033 C128.188911,26.4022967 128.101318,26.6237595 127.945781,26.7870285 C127.790095,26.9507804 127.578787,27.0428582 127.358395,27.0429857 C127.137936,27.0428749 126.926555,26.9507985 126.770792,26.7870285 C126.615133,26.6236572 126.527676,26.4020654 126.527662,26.1710033 L126.527662,20.9384198 C126.52777,20.7071483 126.615196,20.4853456 126.770789,20.3216016 C126.926751,20.1582335 127.138063,20.066453 127.358392,20.0663822 C127.578649,20.0664944 127.789878,20.1582733 127.945778,20.3216016 C128.101357,20.4853552 128.188781,20.7071515 128.188908,20.9384229 L128.188911,26.1710033 Z" id="Shape" fill="#B6DEFF"></path>
                        <path d="M57.6353607,9.60160401 L62.8679442,9.60160401 C63.0992376,9.60160401 63.3209285,9.68942566 63.4847654,9.84498116 C63.6481084,10.0008916 63.7398904,10.212155 63.7399848,10.4324443 C63.7399848,10.65281 63.6479787,10.8640255 63.4847654,11.0201233 C63.3210292,11.1757474 63.0992219,11.2631872 62.8679442,11.2632846 L57.6353607,11.2632846 C57.4040673,11.2632846 57.1823764,11.1756795 57.0185395,11.0201233 C56.8551981,10.8641228 56.7634223,10.652795 56.7633201,10.4324442 C56.7633201,10.2120785 56.8552694,10.0010249 57.0185394,9.84498113 C57.1822457,9.6892881 57.404053,9.60177041 57.6353606,9.60160404 Z" id="Shape" fill="#EAF4FF"></path>
                        <path d="M61.1241273,7.85769269 L61.1241273,13.0896469 C61.1241273,13.3209403 61.0319506,13.5431991 60.8681134,13.7062416 C60.7048444,13.8702499 60.4833816,13.961461 60.2520882,13.961461 C60.0207948,13.961461 59.798536,13.8702506 59.635267,13.7062416 C59.4713719,13.5429049 59.3792516,13.3210362 59.3792531,13.0896469 L59.3792531,7.85769266 C59.3792531,7.62639925 59.4714298,7.40414042 59.635267,7.24087144 C59.798536,7.07703297 60.0207948,6.98565205 60.2520882,6.98565205 C60.4833816,6.98565189 60.7048444,7.07703297 60.8681134,7.24087144 C61.0319786,7.40432131 61.1240894,7.62624506 61.1241272,7.85769263 Z M19.2656934,94.1905454 L24.4974745,94.1905454 C24.728768,94.1905454 24.9504589,94.2458853 25.1142958,94.3441499 C25.277623,94.4426439 25.3694019,94.5760949 25.3695151,94.7152493 C25.3695151,94.854454 25.2775658,94.9882211 25.1142958,95.0864851 C24.9507515,95.1849639 24.7288198,95.2402307 24.4974745,95.2400896 L19.2656934,95.2400896 C19.0344,95.2400896 18.8119712,95.1851944 18.6488721,95.0864851 C18.48515,94.9880933 18.393305,94.8544984 18.3936527,94.7152493 C18.3936527,94.5760446 18.4848631,94.4427225 18.6488721,94.3441499 C18.8125297,94.2457723 19.0343873,94.1905245 19.2656933,94.1905453 Z" id="Shape" fill="#B6DEFF"></path>
                        <path d="M22.7536733,92.4464138 L22.7536733,97.678431 C22.7536733,98.1603407 22.3629746,98.5510395 21.8816327,98.5510395 C21.3995531,98.5510395 21.0095921,98.1603407 21.0095921,97.678431 L21.0095921,92.4464138 C21.0095921,92.2151204 21.1017687,91.9936576 21.2648115,91.8295926 C21.4280805,91.6665502 21.6503393,91.5743732 21.8816327,91.5743732 C22.1129261,91.5743731 22.334389,91.6665498 22.498454,91.8295926 C22.6616789,91.9934059 22.7534343,92.2151629 22.7536734,92.4464139 Z M100.36579,43.6113908 L105.59831,43.6113908 C106.079652,43.6113908 106.470351,44.0020895 106.470351,44.4832599 C106.470351,44.9653396 106.079652,45.3553005 105.59831,45.3553005 L100.36579,45.3553005 C100.134496,45.3553005 99.9128068,45.2640901 99.7497644,45.1000811 C99.4091655,44.7605945 99.4082641,44.2092776 99.74775,43.8686804 C99.7484204,43.8680078 99.7490919,43.8673363 99.7497644,43.8666659 C99.9130979,43.7032035 100.13471,43.6113695 100.36579,43.6113899 L100.36579,43.6113908 Z" id="Shape" fill="#B6DEFF"></path>
                        <path d="M103.772176,41.8674008 L103.772176,47.1001573 L103.772176,47.1001174 C103.772017,47.5816166 103.400121,47.9718858 102.941365,47.9719708 C102.720997,47.9719708 102.509237,47.8800215 102.35368,47.7161835 C102.197786,47.5529617 102.110279,47.3312723 102.110516,47.1001583 L102.110516,41.8674017 L102.110516,41.8673749 C102.110408,41.6360689 102.197889,41.4142002 102.353698,41.2506182 C102.5097,41.0872768 102.72103,40.995501 102.941383,40.9953987 C103.161751,40.9953987 103.372753,41.0875754 103.529069,41.2506181 C103.684585,41.4144062 103.772008,41.6361475 103.772233,41.8673827 L103.772176,41.8674008 Z" id="Shape" fill="#D5ECFF"></path>
                        <path d="M109.086211,103.303168 C102.722567,92.97411 91.3148497,86.8425521 79.1887234,87.2331643 C67.0633051,87.6246025 56.074013,94.4778334 50.3883477,105.195349 L50.3883473,105.195349 C49.6856386,106.545035 49.5537995,108.120222 50.022369,109.567941 L50.0223686,109.56794 C50.4911584,111.015955 51.521898,112.21501 52.8831352,112.895837 C55.7258892,114.34327 57.8620331,112.329252 59.3276548,109.520761 C63.076777,102.335306 71.9282734,98.6377353 80.2567931,98.6377353 C87.9640458,98.6131852 95.125574,102.613721 99.144774,109.190023 C100.816966,111.904802 104.358779,112.774516 107.098208,111.142722 C108.412097,110.376427 109.362863,109.114197 109.736721,107.639845 L109.736721,107.639844 C110.110886,106.165575 109.876459,104.602775 109.0862,103.303168 L109.086211,103.303168 Z M119.664582,75.4243417 C104.819209,65.766655 86.5073776,63.0452378 69.4950589,67.9679272 C69.396347,68.060672 68.204758,69.0787053 65.9203514,71.0203186 L68.4577105,73.0868508 L66.5304647,76.0695204 L69.757035,76.3921948 L70.6290756,76.7146992 L70.6290735,76.7146995 C71.763021,76.5388186 72.9089086,76.4512479 74.0564244,76.4527738 C88.0874421,72.4327558 101.569337,76.3742362 113.821944,83.9091883 C116.089131,85.3045093 120.309993,84.9728555 121.269376,83.2550301 C122.228138,81.5371543 122.297923,77.1331313 119.664578,75.4243483 L119.664582,75.4243417 Z" id="Shape" fill="#FFFFFF"></path>
                        <path d="M60.2521323,69.3107806 L60.7664347,68.639346 C63.4699023,65.1514132 64.6383567,63.6162427 64.8037416,63.4598405 L64.9608737,63.3107781 L65.1705159,63.2502554 C84.0114598,57.8086637 104.2879,60.8259898 120.72838,71.5171549 C123.964169,73.627216 124.914742,79.7229691 122.690848,83.0453597 C120.500148,86.3006871 116.107215,87.2040978 112.810168,85.077613 C99.8425973,76.6294241 83.8384767,74.2484515 68.9720869,78.5545619 L68.6674267,78.5545619 L68.6674263,78.5545619 C67.4703139,78.5587784 66.2751742,78.6521031 65.0919165,78.8337623 L63.879414,78.9818586 L64.6121666,75.807627 L60.627214,75.4064149 L63.0859788,71.6130872 L60.2521445,69.3107719 L60.2521323,69.3107806 Z M113.769783,83.5866741 C116.265878,85.1950432 119.59077,84.5133265 121.251651,82.0514407 C122.995499,79.5141445 122.175973,74.5172341 119.786771,72.955792 C103.838057,62.5922346 84.1848976,59.6371894 65.8942403,64.855001 C65.5454817,65.2995737 64.3853177,66.7904743 62.667497,69.023351 L65.3973935,71.247009 L63.6525698,73.958893 L66.7309968,74.2641211 L66.1556028,76.9850349 C66.9974311,76.8787175 67.8451776,76.8261771 68.6937013,76.8277324 C83.9859103,72.4499652 100.425006,74.9154315 113.760882,83.5866768 L113.769917,83.5866768 L113.769783,83.5866741 Z" id="Shape" fill="#B6DEFF"></path>
                        <path d="M48.2170912,71.9709709 L48.2170944,71.9709681 C41.9753691,77.5081126 36.9307137,84.2620859 33.3925818,91.8185683 C32.0415307,94.7069592 33.2720477,98.1431198 36.1485611,99.5188834 C39.0258142,100.88795 40.700098,98.855689 42.0607595,95.9696294 L42.0607616,95.9696248 C45.0649676,89.5535477 49.4059075,83.8537397 54.7926593,79.2522711 C53.5951033,78.9790376 53.9819384,78.4678044 55.9526517,77.7178321 L51.8540393,76.2964268 L52.4556876,72.5988565 C49.7875685,72.9185198 48.3743955,72.7088773 48.2170966,71.9710107 L48.2170912,71.9709709 Z" id="Shape" fill="#FFFFFF"></path>
                        <path d="M56.623985,77.6825932 L58.3680693,78.0665856 L57.0334985,79.1997543 L57.0334998,79.1997533 C51.2305878,84.1333761 46.5479449,90.2491081 43.2986741,97.1380259 L43.2986742,97.1380257 C42.4848054,98.8678102 41.0151894,100.20198 39.2150067,100.845318 L39.2150063,100.845318 C37.4145718,101.488438 35.4320928,101.387696 33.7061154,100.565378 C30.0265577,98.8212939 27.7504352,93.6500946 29.4074617,90.1441494 L29.4074585,90.1441561 C33.3497473,81.791882 38.9550249,74.3319908 45.8801879,68.2209467 L46.9961386,67.2353061 L47.3105728,68.6917752 L47.3105731,68.6917765 C47.6467325,69.8882707 48.0813283,71.054894 48.6099102,72.1797093 L55.2107691,72.1797093 L53.9294462,77.0727449 L56.623994,77.6826332 L56.623985,77.6825932 Z M30.9771383,90.8940803 C29.7563956,93.5102068 31.5870266,97.6439948 34.465071,98.9958466 L34.4650704,98.9958463 C35.7717934,99.6088763 37.2685587,99.6775236 38.6259165,99.1866784 C39.9835859,98.6963224 41.0905334,97.6862146 41.7028019,96.3789898 L41.702804,96.3789854 C44.806716,89.8020226 49.1777817,83.902079 54.5655875,79.0171137 L52.6644245,78.6159016 L51.7926119,78.4325152 L52.9698807,73.9507001 L47.4669678,73.9507001 L47.2402774,73.4266237 C46.7087569,72.2238952 46.3074866,71.2289855 46.0195347,70.4357108 L46.019535,70.4357105 C39.7314019,76.2198391 34.6231914,83.1672306 30.9771417,90.8940061 L30.9771383,90.8940803 Z" id="Shape" fill="#B6DEFF"></path>
                        <path d="M65.4841022,123.840279 C65.4841022,131.064654 71.340155,136.920707 78.5645305,136.920707 C85.7889059,136.920707 91.6459341,131.064654 91.6459341,123.840279 C91.6459341,119.166665 89.1526702,114.848693 85.1048704,112.511942 C81.0577943,110.175017 76.0714554,110.175017 72.0242691,112.511942 C67.977193,114.848693 65.4841022,119.166665 65.4841022,123.840279 Z" id="Shape" fill="#FFFFFF"></path>
                        <path d="M70.7165441,135.054767 C75.4739273,138.477524 81.9191705,138.354142 86.5417665,134.751642 C91.1651963,131.149137 92.8598367,124.929955 90.7034149,119.480277 L90.7034149,120.255764 C90.7116551,125.169486 88.3860446,129.794442 84.4384699,132.719598 C80.4902818,135.643793 75.387829,136.520429 70.6902411,135.081016 L70.7164961,135.054761 L70.7165441,135.054767 Z" id="Shape" fill="#EAF4FF"></path>
                        <path d="M77.692504,138.664823 C71.3439778,138.664823 65.6203367,134.840803 63.1906594,128.974981 C60.7609979,123.109725 62.1038057,116.358442 66.5932962,111.868903 C71.0825523,107.379647 77.8340557,106.036777 83.6998463,108.466266 C89.564929,110.895927 93.3896881,116.619569 93.3896881,122.968268 C93.3897449,131.637185 86.3615941,138.66476 77.6924568,138.66476 L77.692504,138.664823 Z M77.692504,136.920738 C85.3989701,136.920738 91.6459498,130.673979 91.6459498,122.968268 C91.6459498,115.262604 85.3989701,109.015797 77.692504,109.015797 C69.9870132,109.015797 63.7400336,115.262557 63.7400336,122.968268 L63.7400336,122.968355 C63.740033,126.668773 65.2101136,130.217602 67.8268317,132.834059 L67.8268314,132.834059 C70.4432726,135.450799 73.9921334,136.920872 77.6925667,136.920794 L77.692504,136.920738 Z" id="Shape" fill="#B6DEFF"></path>
                        <path d="M77.692504,120.744484 L74.2653262,117.31707 C73.6515741,116.703318 72.6559818,116.703318 72.0414951,117.31707 C71.4277431,117.931562 71.4277431,118.927028 72.0414951,119.540728 L75.468846,122.968079 L72.0414951,126.395493 C71.6446579,126.792893 71.4897738,127.37171 71.6351105,127.914189 C71.7802977,128.456708 72.2040876,128.880432 72.746628,129.025537 C73.2891181,129.171285 73.8681476,129.016322 74.2653246,128.619096 L77.6925025,125.191745 L81.1198534,128.619096 C81.5170728,129.016248 82.0960598,129.171199 82.6385499,129.025537 C83.1811532,128.880259 83.605113,128.456667 83.7508634,127.914191 C83.8958908,127.371361 83.7410888,126.792103 83.3436844,126.395494 L79.9163335,122.968081 L83.3436844,119.54073 C83.9574364,118.926978 83.9574364,117.931558 83.3436844,117.317072 C82.7299323,116.70332 81.7335534,116.70332 81.1198533,117.317072 L77.6925024,120.744485 L77.692504,120.744484 Z M57.635518,67.1130952 L59.4759733,66.6332887 L61.8561909,62.5092071 L57.6355652,61.924607 L57.6355652,67.1130952 L57.635518,67.1130952 Z M52.7522674,67.5233434 L55.1152118,67.6542204 L52.3159238,62.7966593 L50.3624222,65.2562106 L52.7522517,67.5233503 L52.7522674,67.5233434 Z M60.5568664,78.6682983 L59.7723997,78.6682983 L58.5073872,84.1269429 L62.5979294,83.2286481 L60.5568664,78.6683015 L60.5568664,78.6682983 Z M108.214547,113.262572 C104.82374,115.289429 100.432397,114.203375 98.3779147,110.829103 C94.0373209,103.696096 86.1924809,99.4521251 77.847569,99.7232569 C69.5019021,99.9942171 61.9488807,104.737157 58.080042,112.137662 C56.2499852,115.635946 51.9417195,117.006534 48.4267916,115.207107 C44.9388588,113.462456 43.4734101,107.45428 45.3401212,103.870527 C51.5959105,91.8565972 63.8448838,84.150194 77.3827515,83.7108143 C90.9207766,83.2722085 103.64344,90.1679505 110.665021,101.750869 C112.757636,105.178047 111.563146,111.264833 108.214563,113.262603 L108.214547,113.262572 Z M78.6088775,85.4697963 C65.2864049,85.4427458 53.0584646,92.8415284 46.9006981,104.654945 C45.4620731,107.419167 46.7000921,112.33805 49.238189,113.637563 C51.8975613,114.997423 55.1573249,113.963136 56.5457052,111.317125 C60.6998497,103.354078 68.8217208,98.2457264 77.7982824,97.9492512 C86.7757248,97.6528312 95.2164727,102.214712 99.8869868,109.887481 C101.444441,112.439958 104.766949,113.260228 107.333632,111.727323 C109.810409,110.253634 110.822304,105.247738 109.191313,102.605418 C102.698828,91.9350972 91.099659,85.4351557 78.6088775,85.4697649 L78.6088775,85.4697963 Z" id="Shape" fill="#B6DEFF"></path>
                    </g>
                </g>
            </g>
        </g>
    </g>
</svg>