<?xml version="1.0" standalone="no"?><!DOCTYPE svg PUBLIC "-//W3C//DTD SVG 1.1//EN" "http://www.w3.org/Graphics/SVG/1.1/DTD/svg11.dtd"><svg t="1537424089228" class="icon" style="" viewBox="0 0 1024 1024" version="1.1" xmlns="http://www.w3.org/2000/svg" p-id="2510" xmlns:xlink="http://www.w3.org/1999/xlink" width="200" height="200"><defs><style type="text/css"></style></defs><path d="M512 138.752C146.432 138.752 0 504.832 0 504.832S146.432 870.4 512 870.4s512-365.568 512-365.568-146.432-366.08-512-366.08z m0 585.216c-121.344 0-219.648-98.304-219.648-219.648S390.656 284.672 512 284.672s219.648 98.304 219.648 219.648-98.304 219.648-219.648 219.648z m109.568-219.136c0 60.416-49.152 109.568-109.568 109.568-60.416 0-109.568-49.152-109.568-109.568 0-60.416 49.152-109.568 109.568-109.568 60.416-0.512 109.568 48.64 109.568 109.568z m0 0" p-id="2511"></path></svg>