<?xml version="1.0" encoding="UTF-8"?>
<svg width="750px" height="229px" viewBox="0 0 750 229" version="1.1" xmlns="http://www.w3.org/2000/svg" xmlns:xlink="http://www.w3.org/1999/xlink">
    <!-- Generator: Sketch 52.5 (67469) - http://www.bohemiancoding.com/sketch -->
    <title>banner</title>
    <desc>Created with Sketch.</desc>
    <defs>
        <rect id="path-1" x="0" y="0" width="702" height="161" rx="14"></rect>
        <filter x="-4.7%" y="-18.6%" width="109.4%" height="141.0%" filterUnits="objectBoundingBox" id="filter-3">
            <feOffset dx="0" dy="3" in="SourceAlpha" result="shadowOffsetOuter1"></feOffset>
            <feGaussianBlur stdDeviation="10.5" in="shadowOffsetOuter1" result="shadowBlurOuter1"></feGaussianBlur>
            <feColorMatrix values="0 0 0 0 0.520969429   0 0 0 0 0.574470273   0 0 0 0 0.686410502  0 0 0 0.184358016 0" type="matrix" in="shadowBlurOuter1"></feColorMatrix>
        </filter>
        <radialGradient cx="50%" cy="14.7303753%" fx="50%" fy="14.7303753%" r="85.2696247%" gradientTransform="translate(0.500000,0.147304),scale(0.206804,1.000000),rotate(90.000000),scale(1.000000,3.338140),translate(-0.500000,-0.147304)" id="radialGradient-4">
            <stop stop-color="#000000" offset="0%"></stop>
            <stop stop-color="#2062E7" offset="100%"></stop>
        </radialGradient>
        <radialGradient cx="42.0546178%" cy="45.5410746%" fx="42.0546178%" fy="45.5410746%" r="42.2705114%" gradientTransform="translate(0.420546,0.455411),scale(0.840468,1.000000),rotate(-67.774283),scale(1.000000,1.538504),translate(-0.420546,-0.455411)" id="radialGradient-5">
            <stop stop-color="#8DB0EB" offset="0%"></stop>
            <stop stop-color="#8DB0EB" offset="100%"></stop>
        </radialGradient>
        <radialGradient cx="52.9469765%" cy="28.6240847%" fx="52.9469765%" fy="28.6240847%" r="54.2099834%" gradientTransform="translate(0.529470,0.286241),scale(0.827705,1.000000),rotate(108.460181),scale(1.000000,3.925275),translate(-0.529470,-0.286241)" id="radialGradient-6">
            <stop stop-color="#F4F8FF" offset="0%"></stop>
            <stop stop-color="#89B1E9" offset="100%"></stop>
        </radialGradient>
        <filter x="-47.2%" y="-56.3%" width="194.5%" height="212.7%" filterUnits="objectBoundingBox" id="filter-7">
            <feGaussianBlur stdDeviation="7.35625" in="SourceGraphic"></feGaussianBlur>
        </filter>
        <linearGradient x1="78.2262224%" y1="24.9293251%" x2="50%" y2="123.255884%" id="linearGradient-8">
            <stop stop-color="#9ABFFF" offset="0%"></stop>
            <stop stop-color="#5B87D2" offset="100%"></stop>
        </linearGradient>
        <path d="M1.24863053,9.64497962 C0.852663489,7.83915757 0.256999804,6.49590645 0.852663489,4.05816146 C1.44832717,1.62041646 8.30201153,0.238785903 9.16671402,1.01956259 C10.031448,1.80032465 9.89072044,2.21822922 13.3163053,4.03816029 C16.7418901,5.85807673 26.5607537,7.97480879 28.6623935,10.3356926 C30.7640333,12.6965617 31.1552225,14.2575595 26.7872945,14.2575595 L13.2763534,14.2575595 C10.8514835,13.3783267 10.0358801,12.9048049 8.67650953,12.0909269 C8.39926659,13.1107526 8.67650953,13.9791806 8.67650953,13.9791806 L2.85789692,13.9791806 C2.85789692,13.9791806 1.64456614,11.4507871 1.24863053,9.64497962 Z" id="path-9"></path>
        <linearGradient x1="50%" y1="0%" x2="33.4022007%" y2="100%" id="linearGradient-11">
            <stop stop-color="#91BAFF" offset="0%"></stop>
            <stop stop-color="#5B87D2" offset="100%"></stop>
        </linearGradient>
        <path d="M4.43046286,16.0621462 C3.14118208,14.8445902 1.94305128,14.1012628 1.09996698,11.84822 C0.256912912,9.59513913 4.95281415,4.80465712 6.06088335,4.95712038 C7.16898278,5.10960266 7.28286733,5.51664703 10.9852188,5.11179077 C14.6876307,4.7069345 21.3098951,0.202409105 24.2531472,0.940104482 C27.1963993,1.67783791 29.8385089,1.69288826 26.3703962,4.04812502 C24.7403385,5.15513425 18.4294049,11.9017049 16.4705423,13.2320338 C14.0705923,13.8427621 13.167346,13.9072826 11.6486031,13.9953205 C11.9790407,14.9529679 12.6680014,15.4917171 12.6680014,15.4917171 L8.04804335,18.6291724 C8.04804335,18.6291724 5.71974363,17.2797022 4.43046286,16.0621462 Z" id="path-12"></path>
        <linearGradient x1="87.5676604%" y1="16.2692604%" x2="57.9084106%" y2="80.0144172%" id="linearGradient-14">
            <stop stop-color="#F5F8FF" offset="0%"></stop>
            <stop stop-color="#FFFFFF" offset="100%"></stop>
        </linearGradient>
        <path d="M78.3251246,40.9631421 C87.3230218,36.1702165 92.4503514,22.1786038 96.166705,18.2444258 C99.8830836,14.3102478 101.524104,21.8371939 100.909751,24.0531676 C100.295397,26.2691412 95.766279,41.1634126 86.3121464,53.1922612 C86.3121464,61.0505021 77.1626379,47.2684242 78.3251246,40.9631421 Z" id="path-15"></path>
        <filter x="1.4%" y="4.5%" width="99.1%" height="85.5%" filterUnits="objectBoundingBox" id="filter-16">
            <feGaussianBlur stdDeviation="1" in="SourceAlpha" result="shadowBlurInner1"></feGaussianBlur>
            <feOffset dx="0" dy="0" in="shadowBlurInner1" result="shadowOffsetInner1"></feOffset>
            <feComposite in="shadowOffsetInner1" in2="SourceAlpha" operator="arithmetic" k2="-1" k3="1" result="shadowInnerInner1"></feComposite>
            <feColorMatrix values="0 0 0 0 0.898039216   0 0 0 0 0.941176471   0 0 0 0 1  0 0 0 1 0" type="matrix" in="shadowInnerInner1"></feColorMatrix>
        </filter>
        <linearGradient x1="0%" y1="100%" x2="62.3886698%" y2="0%" id="linearGradient-17">
            <stop stop-color="#6B86C0" offset="0%"></stop>
            <stop stop-color="#A1B8E3" offset="100%"></stop>
        </linearGradient>
        <linearGradient x1="44.0581192%" y1="6.11586042%" x2="60.528684%" y2="43.2752937%" id="linearGradient-18">
            <stop stop-color="#8DB0EB" offset="0%"></stop>
            <stop stop-color="#8DB0EB" offset="100%"></stop>
        </linearGradient>
        <path d="M2.86025082,19.0282416 C5.48088873,15.4914569 11.8969163,8.11409295 25.7085195,5.42660992 C39.5200406,2.73912689 52.2052415,0.229696811 75.4888193,7.15840857 C77.4058046,29.6472132 79.5902305,52.2895536 81.7947677,56.8749938 C80.1132088,58.9218745 74.0386645,60.4858155 70.4750074,60.4858155 C69.182132,55.4226545 65.1309583,43.2244491 63.0729469,37.1909177 C61.0148534,31.1573256 60.2850971,23.6676924 60.6827281,21.026877 C53.6660676,23.0210215 39.2929871,29.0824078 34.2538102,30.8779876 C29.2145513,32.673628 11.9247439,38.366225 6.20186173,33.7832123 C0.478897465,29.2002602 0.23953082,22.5650263 2.86025082,19.0282416 Z" id="path-19"></path>
        <filter x="-4.0%" y="-3.0%" width="109.1%" height="110.1%" filterUnits="objectBoundingBox" id="filter-21">
            <feGaussianBlur stdDeviation="3" in="SourceAlpha" result="shadowBlurInner1"></feGaussianBlur>
            <feOffset dx="3" dy="1" in="shadowBlurInner1" result="shadowOffsetInner1"></feOffset>
            <feComposite in="shadowOffsetInner1" in2="SourceAlpha" operator="arithmetic" k2="-1" k3="1" result="shadowInnerInner1"></feComposite>
            <feColorMatrix values="0 0 0 0 0.398509229   0 0 0 0 0.594992226   0 0 0 0 0.92620642  0 0 0 1 0" type="matrix" in="shadowInnerInner1"></feColorMatrix>
        </filter>
        <linearGradient x1="50%" y1="100%" x2="100%" y2="39.0738882%" id="linearGradient-22">
            <stop stop-color="#002343" offset="0%"></stop>
            <stop stop-color="#1A72FF" stop-opacity="0.436933877" offset="100%"></stop>
        </linearGradient>
        <linearGradient x1="50%" y1="16.3760257%" x2="50%" y2="76.5597425%" id="linearGradient-23">
            <stop stop-color="#6081C1" offset="0%"></stop>
            <stop stop-color="#90AADB" offset="100%"></stop>
        </linearGradient>
        <path d="M2.79137755,12.4490983 C2.09671555,8.96375455 0.756641938,2.85453298 0.489117338,1.5491694 C0.221575719,0.243805824 13.1823598,4.75279756 13.1823598,4.75279756 L14.8121666,13.2985352 L16.6776742,27.7512154 C16.6776742,27.7512154 3.48607359,15.934442 2.79137755,12.4490983 Z" id="path-24"></path>
        <linearGradient x1="76.2362807%" y1="86.2362536%" x2="67.0850084%" y2="62.8012707%" id="linearGradient-26">
            <stop stop-color="#B1C2E4" offset="0%"></stop>
            <stop stop-color="#FFFFFF" stop-opacity="0" offset="100%"></stop>
        </linearGradient>
        <path d="M24.7044605,0.259740426 C24.7044605,0.259740426 29.6256607,1.0609529 29.9646613,1.67685291 C33.1648818,4.00210394 36.2438789,10.9223904 37.5585479,14.5075413 C38.8732169,18.0926922 41.394238,21.7951295 43.6668221,24.6737767 C45.9393517,27.5524239 47.0294906,28.1463327 50.0071415,30.2762042 C52.9847924,32.4060757 54.07858,34.0958789 52.3934337,35.683692 C50.7082874,37.2715539 41.0043737,36.6549697 34.0964392,45.2890542 C28.0617377,47.7638942 28.0691984,48.668954 26.276171,43.3213311 C24.483198,37.9737082 9.74001932,24.6030139 7.34871698,22.7183686 C4.95736019,20.8337234 5.88118458,19.0228708 5.27844417,13.2503781 C4.67570375,7.4779342 0.327836763,2.79747525 3.9848504,2.79747525 C6.86681873,3.87059661 9.67417968,1.67685291 10.9413069,1.67685291 C15.5579782,2.82665023 16.6092342,7.37203439 18.5257723,6.41883834 C20.4423103,5.46564228 21.6694654,5.46564228 21.6694654,5.46564228 C22.1166195,6.37319439 22.2604429,7.92762966 22.707597,8.83518177 C23.1548056,9.74273388 25.0258168,11.5630182 25.8572805,13.2503781 L24.3874064,8.34008671 L24.7974747,5.40406694 L24.7044605,0.259740426 Z" id="path-27"></path>
        <linearGradient x1="121.686655%" y1="39.4293622%" x2="50%" y2="77.1316441%" id="linearGradient-29">
            <stop stop-color="#FFFFFF" offset="0%"></stop>
            <stop stop-color="#B8CBEB" offset="70.1100963%"></stop>
            <stop stop-color="#A1B8E3" offset="100%"></stop>
        </linearGradient>
        <linearGradient x1="58.6985816%" y1="100%" x2="71.4553806%" y2="2.77555756e-15%" id="linearGradient-30">
            <stop stop-color="#7992C7" offset="0%"></stop>
            <stop stop-color="#A1B8E3" offset="100%"></stop>
        </linearGradient>
        <path d="M12.7120435,10.5488088 C16.2176969,11.9686947 27.5707814,6.31689694 31.1734909,6.81880927 C34.4852064,7.28022115 30.2831253,2.09932817 29.0394422,1.18252754 C27.7957592,0.265751352 2.92882137,0.681250513 1.62358121,2.59465536 C0.318375898,4.50807243 9.80478622,9.37125376 12.7120435,10.5488088 Z" id="path-31"></path>
        <linearGradient x1="106.474328%" y1="20.3175342%" x2="13.8996672%" y2="50%" id="linearGradient-33">
            <stop stop-color="#8DB0EB" offset="0%"></stop>
            <stop stop-color="#7C9CD2" offset="100%"></stop>
        </linearGradient>
        <path d="M62.2545555,25.6332931 C62.2545555,25.6332931 60.5625066,23.06151 61.8705013,20.5107937 C63.178496,17.9600775 70.0837075,21.362205 75.6759167,15.0733735 C81.2680962,8.78450329 76.2991565,0.297680842 70.5500188,1.95288064 C64.8008515,3.60808044 66.2106304,6.57286722 67.25286,8.78450329 C68.2950303,10.9961394 62.9326729,11.826793 59.0979686,13.3836163 C55.2632643,14.9404782 52.1332273,19.129502 52.8089445,25.6332931 C53.4846618,32.1370841 59.5161583,37.4622507 61.4357772,38.4420734 C60.8776082,34.5986623 60.852777,32.8327937 60.852777,31.7623642 C58.6508289,32.7801072 56.0861021,27.7328688 57.5793234,26.4050368 C60.4318316,23.8684682 61.8705013,29.645935 61.8705013,29.645935 C61.8705013,29.645935 62.2545555,28.8233215 62.9326729,28.0436923 C62.6743156,26.6522344 62.2545555,25.6332931 62.2545555,25.6332931 Z" id="path-34"></path>
        <filter x="-8.9%" y="-4.5%" width="109.4%" height="113.0%" filterUnits="objectBoundingBox" id="filter-35">
            <feGaussianBlur stdDeviation="2" in="SourceAlpha" result="shadowBlurInner1"></feGaussianBlur>
            <feOffset dx="3" dy="2" in="shadowBlurInner1" result="shadowOffsetInner1"></feOffset>
            <feComposite in="shadowOffsetInner1" in2="SourceAlpha" operator="arithmetic" k2="-1" k3="1" result="shadowInnerInner1"></feComposite>
            <feColorMatrix values="0 0 0 0 0   0 0 0 0 0   0 0 0 0 0  0 0 0 0.13988904 0" type="matrix" in="shadowInnerInner1"></feColorMatrix>
        </filter>
        <linearGradient x1="23.861433%" y1="57.5324188%" x2="50%" y2="33.7873003%" id="linearGradient-36">
            <stop stop-color="#EEF5FF" offset="0%"></stop>
            <stop stop-color="#ADC8F2" offset="100%"></stop>
        </linearGradient>
        <path d="M50.6380068,41.6666596 C44.7164707,38.410339 32.8878465,29.1527082 29.778826,29.9083003 C26.6698394,30.6638925 27.4766587,32.0675363 27.4766587,35.287074 C27.4766587,38.506646 43.7250422,49.3790973 46.2268081,54.7589326 C47.2977512,57.0618756 50.0414444,62.7505989 54.9527392,61.8236611 C59.8640001,60.8967233 58.3741335,56.0148966 57.3156421,52.0772689 C56.0714249,47.4487103 54.2843767,43.6718455 50.6380068,41.6666596 Z" id="path-37"></path>
        <filter x="-6.0%" y="-5.8%" width="109.4%" height="111.1%" filterUnits="objectBoundingBox" id="filter-38">
            <feGaussianBlur stdDeviation="1" in="SourceAlpha" result="shadowBlurInner1"></feGaussianBlur>
            <feOffset dx="4" dy="-2" in="shadowBlurInner1" result="shadowOffsetInner1"></feOffset>
            <feComposite in="shadowOffsetInner1" in2="SourceAlpha" operator="arithmetic" k2="-1" k3="1" result="shadowInnerInner1"></feComposite>
            <feColorMatrix values="0 0 0 0 0.898039216   0 0 0 0 0.941176471   0 0 0 0 1  0 0 0 1 0" type="matrix" in="shadowInnerInner1"></feColorMatrix>
        </filter>
        <path d="M44.7972919,63.7112033 C71.8922019,80.6480728 99.8752118,82.4989558 109.284186,67.4362128 C120.58388,45.4779051 81.8380994,54.9790657 54.7431894,38.0421962 C27.6481585,21.1054094 28.3178614,6.96802512 9.62845984,0.235165368 C0.219606424,15.2979911 17.702261,46.7744165 44.7972919,63.7112033 Z" id="path-39"></path>
        <path d="M-3.66989454,42.3302453 C10.4722553,51.5175505 26.6724029,51.6705552 32.5140168,42.6720125 C38.3556941,33.6734698 31.6267409,18.9309236 17.484591,9.74361834 C3.34244119,0.556313097 -12.8577064,0.403256795 -18.6993838,9.40185116 C-24.5409976,18.4003938 -17.8121079,33.1429401 -3.66989454,42.3302453 Z" id="path-41"></path>
        <filter x="-3.1%" y="-6.7%" width="106.2%" height="113.3%" filterUnits="objectBoundingBox" id="filter-42">
            <feGaussianBlur stdDeviation="2" in="SourceAlpha" result="shadowBlurInner1"></feGaussianBlur>
            <feOffset dx="-6" dy="-8" in="shadowBlurInner1" result="shadowOffsetInner1"></feOffset>
            <feComposite in="shadowOffsetInner1" in2="SourceAlpha" operator="arithmetic" k2="-1" k3="1" result="shadowInnerInner1"></feComposite>
            <feColorMatrix values="0 0 0 0 0.5803922   0 0 0 0 0.6745098   0 0 0 0 0.85490197  0 0 0 0.43 0" type="matrix" in="shadowInnerInner1"></feColorMatrix>
        </filter>
        <path d="M45.9440837,78.9493533 C56.3663622,74.0876282 59.6064731,58.9719405 53.1809815,45.1875378 C46.7554899,31.4031351 33.0976443,24.1698985 22.6753147,29.0316236 C12.2529851,33.8933487 9.01292522,49.0090364 15.4384168,62.7934391 C21.8639085,76.5778419 35.5217541,83.8110784 45.9440837,78.9493533 Z" id="path-43"></path>
        <filter x="-2.3%" y="-1.4%" width="104.5%" height="102.8%" filterUnits="objectBoundingBox" id="filter-44">
            <feGaussianBlur stdDeviation="2" in="SourceAlpha" result="shadowBlurInner1"></feGaussianBlur>
            <feOffset dx="-3" dy="-5" in="shadowBlurInner1" result="shadowOffsetInner1"></feOffset>
            <feComposite in="shadowOffsetInner1" in2="SourceAlpha" operator="arithmetic" k2="-1" k3="1" result="shadowInnerInner1"></feComposite>
            <feColorMatrix values="0 0 0 0 0.5803922   0 0 0 0 0.6745098   0 0 0 0 0.85490197  0 0 0 0.43 0" type="matrix" in="shadowInnerInner1"></feColorMatrix>
        </filter>
        <path d="M72.9728377,102.182308 C83.3951162,97.3205828 86.6352271,82.2048951 80.2097355,68.4204923 C73.7842439,54.6360896 60.1263983,47.4028531 49.7040687,52.2645782 C39.2817391,57.1263032 36.0416792,72.2419909 42.4671708,86.0263937 C48.8926625,99.8107964 62.5505081,107.044033 72.9728377,102.182308 Z" id="path-45"></path>
        <filter x="-2.3%" y="-1.4%" width="104.5%" height="102.8%" filterUnits="objectBoundingBox" id="filter-46">
            <feGaussianBlur stdDeviation="2" in="SourceAlpha" result="shadowBlurInner1"></feGaussianBlur>
            <feOffset dx="-5" dy="-3" in="shadowBlurInner1" result="shadowOffsetInner1"></feOffset>
            <feComposite in="shadowOffsetInner1" in2="SourceAlpha" operator="arithmetic" k2="-1" k3="1" result="shadowInnerInner1"></feComposite>
            <feColorMatrix values="0 0 0 0 0.5803922   0 0 0 0 0.6745098   0 0 0 0 0.85490197  0 0 0 0.43 0" type="matrix" in="shadowInnerInner1"></feColorMatrix>
        </filter>
        <path d="M123.426461,109.993387 C133.84879,105.131662 137.08885,90.0159746 130.66341,76.2315719 C124.237918,62.4471691 110.580021,55.2139326 100.157743,60.0756577 C89.7354132,64.9373828 86.4953533,80.0530705 92.920845,93.8374732 C99.3463366,107.621876 113.004182,114.855112 123.426461,109.993387 Z" id="path-47"></path>
        <filter x="-0.3%" y="0.3%" width="100.6%" height="99.4%" filterUnits="objectBoundingBox" id="filter-48">
            <feGaussianBlur stdDeviation="2" in="SourceAlpha" result="shadowBlurInner1"></feGaussianBlur>
            <feOffset dx="-2" dy="3" in="shadowBlurInner1" result="shadowOffsetInner1"></feOffset>
            <feComposite in="shadowOffsetInner1" in2="SourceAlpha" operator="arithmetic" k2="-1" k3="1" result="shadowInnerInner1"></feComposite>
            <feColorMatrix values="0 0 0 0 0.5803922   0 0 0 0 0.6745098   0 0 0 0 0.85490197  0 0 0 0.43 0" type="matrix" in="shadowInnerInner1"></feColorMatrix>
        </filter>
        <path d="M87.7265261,94.7174386 C99.1406087,96.1193964 109.262004,90.1800426 110.333356,81.4515493 C111.404708,72.7230561 103.020256,64.5106829 91.6062174,63.1087251 C80.1921788,61.7067673 70.0707834,67.6461211 68.9994757,76.3745795 C67.928124,85.1030728 76.3125315,93.3154459 87.7265261,94.7174386 Z" id="path-49"></path>
        <filter x="-6.3%" y="-7.4%" width="112.4%" height="114.8%" filterUnits="objectBoundingBox" id="filter-50">
            <feGaussianBlur stdDeviation="2" in="SourceAlpha" result="shadowBlurInner1"></feGaussianBlur>
            <feOffset dx="-4" dy="1" in="shadowBlurInner1" result="shadowOffsetInner1"></feOffset>
            <feComposite in="shadowOffsetInner1" in2="SourceAlpha" operator="arithmetic" k2="-1" k3="1" result="shadowInnerInner1"></feComposite>
            <feColorMatrix values="0 0 0 0 0.5803922   0 0 0 0 0.6745098   0 0 0 0 0.85490197  0 0 0 0.43 0" type="matrix" in="shadowInnerInner1"></feColorMatrix>
        </filter>
        <linearGradient x1="75.5386921%" y1="0%" x2="50%" y2="100%" id="linearGradient-51">
            <stop stop-color="#EEF5FF" offset="0%"></stop>
            <stop stop-color="#D9E8FF" offset="100%"></stop>
        </linearGradient>
        <path d="M75.9377373,132.757485 L4.99316629,132.757485 L4.99316629,12.0679011 C4.99316629,8.16110004 8.15366045,4.99401198 12.0523276,4.99401198 L19.4644469,4.99401198 C20.1703631,4.99401198 20.5233211,5.34770643 20.5233211,6.05509535 C20.5233211,9.28088531 22.6309286,10.6531233 25.8176921,10.6531233 L55.1132115,10.6531233 C58.5221079,10.6531233 60.4075824,9.28088531 60.4075824,6.05509535 C60.4075824,5.34770643 60.7605405,4.99401198 61.4664566,4.99401198 L68.878576,4.99401198 C72.7772431,4.99401198 75.9377373,8.16110004 75.9377373,12.0679011 L75.9377373,132.757485 Z" id="path-52"></path>
        <linearGradient x1="50%" y1="0%" x2="50%" y2="100%" id="linearGradient-54">
            <stop stop-color="#FFC62C" stop-opacity="0" offset="0%"></stop>
            <stop stop-color="#FF6663" stop-opacity="0.1" offset="100%"></stop>
        </linearGradient>
        <circle id="path-55" cx="29.2" cy="29.2" r="29.2"></circle>
        <linearGradient x1="50%" y1="0%" x2="50%" y2="100%" id="linearGradient-56">
            <stop stop-color="#FEEC80" stop-opacity="0" offset="0%"></stop>
            <stop stop-color="#FFC62B" stop-opacity="0.6" offset="100%"></stop>
        </linearGradient>
        <circle id="path-57" cx="29.6" cy="29.6" r="23.2"></circle>
    </defs>
    <g id="12.25订单详情-积分中心" stroke="none" stroke-width="1" fill="none" fill-rule="evenodd">
        <g id="我的积分" transform="translate(0.000000, -484.000000)">
            <g id="banner" transform="translate(0.000000, 484.000000)">
                <g>
                    <rect id="矩形" fill="#FFFFFF" x="0" y="0" width="750" height="229"></rect>
                    <g transform="translate(28.000000, 29.000000)">
                        <mask id="mask-2" fill="white">
                            <use xlink:href="#path-1"></use>
                        </mask>
                        <g id="阴影">
                            <use fill="black" fill-opacity="1" filter="url(#filter-3)" xlink:href="#path-1"></use>
                            <use fill="#FFFFFF" fill-rule="evenodd" xlink:href="#path-1"></use>
                        </g>
                        <g id="Phone" mask="url(#mask-2)">
                            <g transform="translate(410.000000, 21.000000)">
                                <path d="M11.697798,140 C-5.48991625,71.5668234 6.12911157,30.5423263 46.5548815,16.9265087 C107.193536,-3.49721763 135.53009,69.7114985 161.492787,63.6332335 C187.455483,57.5549685 219.164362,22.6932724 255.7388,50.3158683 C280.173447,68.6291409 284.473118,98.5238515 268.637813,140 L11.697798,140 Z" id="Detail" fill="#F2F5F9"></path>
                                <g id="Person-6" stroke-width="1" fill="none" transform="translate(0.790903, 0.000000)">
                                    <path d="M79.5846709,140.799697 C102.418325,140.799697 120.928635,137.078376 120.928635,132.48791 C120.928635,127.897444 102.418325,124.176122 79.5846709,124.176122 C56.7510166,124.176122 38.2407072,127.897444 38.2407072,132.48791 C38.2407072,137.078376 56.7510166,140.799697 79.5846709,140.799697 Z" id="chair-shadow" fill-opacity="0.39" fill="url(#radialGradient-4)"></path>
                                    <path d="M50.9699596,127.336676 C76.3065236,139.495163 113.506725,137.889204 130.193699,104.893935 C141.217942,83.6636046 117.696623,58.2417672 91.8601019,40.5647955 C68.6714265,24.6995989 48.0463738,21.1018649 35.944648,30.0335628 C34.5626896,31.0534819 32.1063623,30.8530195 30.990519,32.24079 C0.274041934,67.3143241 25.6335371,115.17807 50.9699596,127.336676 Z" id="chair" fill="url(#radialGradient-5)"></path>
                                    <path d="M66.6204472,96.9583638 C93.7154169,113.895235 121.698422,115.746085 131.107341,100.683373 C139.837424,84.4097437 118.658157,54.9778249 91.5631874,38.0409536 C64.4682178,21.1041802 40.8606668,18.4195765 31.4516296,33.4823865 C22.042829,48.5450987 39.5254776,80.0215904 66.6204472,96.9583638 Z" id="cushion" fill="url(#radialGradient-6)"></path>
                                    <path d="M72.7435969,85.0765228 C84.8922993,92.6750135 97.4391745,93.5053714 101.657897,86.747696 C105.572246,79.4467598 96.0759961,66.2425406 83.9272938,58.6440499 C71.7785914,51.0456031 61.1935598,49.8411932 56.9747843,56.5989125 C52.756115,63.3565878 60.5948945,77.4780761 72.7435969,85.0765228 Z" id="shadow" fill="#94B0D7" filter="url(#filter-7)"></path>
                                    <g id="shoe" transform="translate(149.559105, 124.977273)">
                                        <mask id="mask-10" fill="white">
                                            <use xlink:href="#path-9"></use>
                                        </mask>
                                        <use id="Path-17" fill="url(#linearGradient-8)" xlink:href="#path-9"></use>
                                        <path d="M1.26325756,12.6106204 C2.5168079,9.37959735 7.4024018,3.35173048 8.81794085,1.39004378 C9.76163354,0.08225264 6.63497734,0.852919805 -0.562027783,3.70204527 C-0.180871111,11.7951108 0.427557337,14.7646358 1.26325756,12.6106204 Z" id="Path-21" fill="#3D82F0" style="mix-blend-mode: multiply;" opacity="0.200000003" mask="url(#mask-10)"></path>
                                    </g>
                                    <g id="shoe" transform="translate(157.767838, 69.498580)">
                                        <mask id="mask-13" fill="white">
                                            <use xlink:href="#path-12"></use>
                                        </mask>
                                        <use id="Path-17-Copy" fill="url(#linearGradient-11)" xlink:href="#path-12"></use>
                                        <path d="M6.33810795,18.1535631 C4.39846806,14.1336369 6.39626813,5.06405453 5.51152672,4.26089961 C4.92169912,3.725463 3.18466313,5.88897414 0.300418739,10.751433 C-1.07140204,12.1126699 -0.655127126,13.810945 1.54924349,15.8462583 C4.85579941,18.8992283 8.27774784,22.1734894 6.33810795,18.1535631 Z" id="Path-19" fill="#617FC8" style="mix-blend-mode: multiply;" opacity="0.200000003" mask="url(#mask-13)"></path>
                                    </g>
                                    <g id="sleeve">
                                        <use fill="url(#linearGradient-14)" fill-rule="evenodd" xlink:href="#path-15"></use>
                                        <use fill="black" fill-opacity="1" filter="url(#filter-16)" xlink:href="#path-15"></use>
                                    </g>
                                    <path d="M74.4760749,25.0870108 C74.4760749,25.0870108 95.8037108,16.6494114 98.6869415,17.2072286 C101.570144,17.7650294 92.9528182,27.5971637 91.1897013,28.3905238 C89.4265845,29.1839168 87.0302328,31.1194679 84.3785166,31.1884129 C81.7268004,31.2573907 75.6315323,32.5707288 75.6315323,32.5707288 L74.4760749,25.0870108 Z" id="arm" fill="url(#linearGradient-17)"></path>
                                    <g id="leg" transform="translate(76.881789, 69.298295)">
                                        <mask id="mask-20" fill="white">
                                            <use xlink:href="#path-19"></use>
                                        </mask>
                                        <g id="Path-7">
                                            <use fill="url(#linearGradient-18)" fill-rule="evenodd" xlink:href="#path-19"></use>
                                            <use fill="black" fill-opacity="1" filter="url(#filter-21)" xlink:href="#path-19"></use>
                                        </g>
                                        <path d="M50.4670103,25.1304094 C50.4670103,21.9964631 58.3998759,5.45605409 60.5241137,3.68777687 C61.9402723,2.50892538 60.5455422,2.00714659 56.3399234,2.18244049 C46.759073,12.1301298 41.3395787,19.7794528 40.0814405,25.1304094 C38.1942331,33.1568444 50.4670103,28.2643557 50.4670103,25.1304094 Z" id="Path" fill="url(#linearGradient-22)" style="mix-blend-mode: multiply;" opacity="0.300000012" mask="url(#mask-20)"></path>
                                    </g>
                                    <g id="neck" transform="translate(59.663472, 30.443182)">
                                        <mask id="mask-25" fill="white">
                                            <use xlink:href="#path-24"></use>
                                        </mask>
                                        <use id="Path-4" fill="url(#linearGradient-23)" xlink:href="#path-24"></use>
                                        <path d="M1.19632173,1.91236978 C1.19632173,3.22447162 6.11455558,8.83543341 8.77154171,10.3735797 C10.5428658,11.3990106 13.0241912,11.8642152 16.2155178,11.7691935 L15.4862514,4.21336599 L1.19632173,0.603861652 C1.19632173,0.601465848 1.19632173,1.03763522 1.19632173,1.91236978 Z" id="Path-22" fill="#7890CB" style="mix-blend-mode: multiply;" opacity="0.200000003" mask="url(#mask-25)"></path>
                                    </g>
                                    <g id="shirt" transform="translate(49.052183, 39.656250)">
                                        <mask id="mask-28" fill="white">
                                            <use xlink:href="#path-27"></use>
                                        </mask>
                                        <g id="Path-9">
                                            <use fill="#FFFFFF" xlink:href="#path-27"></use>
                                            <use fill="url(#linearGradient-26)" xlink:href="#path-27"></use>
                                        </g>
                                        <path d="M40.9833101,32.0689941 L46.5177797,38.3963554 L46.4482681,37.2290515 C46.3980078,36.3850325 45.0617637,35.1345391 42.3950317,33.1166382 C42.1424649,32.9255224 41.8774146,32.72734 41.5947871,32.518065 C41.4501945,32.4109997 41.2333706,32.2519037 40.9833101,32.0689941 Z M23.2828467,10.6175675 L46.3500526,36.9894802 L45.6496828,37.2766063 C45.6216147,36.8052591 44.2602693,35.5312752 41.9123029,33.7545825 C41.662072,33.5652342 41.3992199,33.3686954 41.1187208,33.1609965 C40.4936162,32.6981304 38.5016587,31.250614 38.3440467,31.1348985 C37.3835153,30.4296962 36.8418258,30.0071272 36.5578221,29.7260681 C34.4671016,27.6570656 31.7690427,24.8895591 30.9274074,23.891372 C30.0811773,22.8876716 25.4570734,14.9786059 24.6686564,13.3972085 L23.2828467,10.6175675 Z" id="Shape-1" stroke="#D9E8FF" stroke-width="0.8" fill-opacity="0" fill="#000000" opacity="0.6" mask="url(#mask-28)"></path>
                                        <path d="M19.0010272,11.6531181 C20.4577714,9.00293629 21.6102928,7.67784538 22.4585913,7.67784538 C23.3068898,7.67784538 23.1583983,6.38928046 22.0131165,3.81215064 L18.0453929,6.81373779 L19.0010272,11.6531181 Z" id="Path-23" fill="#CCDFFD" opacity="0.300000012" mask="url(#mask-28)"></path>
                                    </g>
                                    <path d="M100.892846,73.1548473 C108.145641,66.4950328 128.905579,53.6056492 140.744365,51.6373581 C147.526362,52.7658708 165.175712,71.9020095 165.175712,71.9020095 C164.379877,72.7408938 162.282185,80.178945 158.969069,82.5170326 C150.624896,75.5879049 141.925337,72.3524708 139.589297,68.7696416 C136.675509,70.5441186 129.185391,75.7260384 124.87716,83.3389793 C120.569015,90.9519202 117.710967,99.6251763 112.801307,99.8422859 C107.891648,100.059395 100.967907,100.620324 94.58994,96.5152098 C90.8857882,94.1309783 80.2213909,88.816637 85.4023133,85.3345395 C88.3714994,83.3389793 97.8522746,75.9467739 100.892846,73.1548473 Z" id="leg" fill="url(#linearGradient-18)"></path>
                                    <path d="M72.62173,17.5730211 C73.1129848,18.8132132 75.8082747,24.2561158 76.0678995,25.6128315 C76.3275005,26.9695947 78.8924896,36.0195534 77.3645463,37.4131876 C75.8365792,38.8068694 71.2547746,39.5124931 69.9743528,39.0662051 C68.6939072,38.6199409 65.941222,38.3340543 64.86901,36.451708 C64.0449866,35.0050197 61.4269622,31.6467648 60.7402443,31.839056 C60.4893634,32.3548434 59.6149017,32.9059525 59.1770157,32.5518775 C57.2849973,31.0220092 55.6631822,29.3651307 56.4330267,25.6128315 C57.2028713,21.8605561 59.9019495,20.0092651 62.7958237,18.7911431 C65.6896979,17.5730211 72.1304513,16.3328528 72.62173,17.5730211 Z" id="face" fill="url(#linearGradient-29)"></path>
                                    <g id="arm" transform="translate(26.828541, 27.839489)">
                                        <mask id="mask-32" fill="white">
                                            <use xlink:href="#path-31"></use>
                                        </mask>
                                        <use id="Path-13" fill="url(#linearGradient-30)" xlink:href="#path-31"></use>
                                        <path d="M5.80964311,2.77309939 C6.54671275,3.04139387 21.4984768,9.55925988 25.1977331,8.65644217 C27.663904,8.0545637 24.5910675,9.19223545 15.9792237,12.0694574 C8.70812354,5.69302242 5.31826335,2.59423641 5.80964311,2.77309939 Z" id="Path-24" fill="#6B84C2" opacity="0.5" mask="url(#mask-32)"></path>
                                    </g>
                                    <g id="hair">
                                        <use fill="url(#linearGradient-33)" fill-rule="evenodd" xlink:href="#path-34"></use>
                                        <use fill="black" fill-opacity="1" filter="url(#filter-35)" xlink:href="#path-34"></use>
                                    </g>
                                    <path d="M73.8762397,44.9228894 C75.6269862,45.5450679 75.962375,48.7799224 76.2629268,49.6922174 C76.5634545,50.6044994 75.0011445,42.541799 75.0011445,42.541799 C74.4514276,43.3003069 73.2753725,38.1513213 73.4964797,38.9064835 C74.0910242,40.9369606 73.5929223,43.2370241 73.8762397,44.9228894 Z" id="colar" fill="#CCDFFD"></path>
                                    <path d="M68.163759,53.073835 C68.163759,50.2082348 69.3024967,46.4508393 70.7084153,45.1102994 C68.6695223,45.2361738 62.6718033,41.6514561 62.0315937,39.6532353 C61.3913954,37.6549983 61.2724352,37.3694571 61.2724352,37.3694571 C61.2724352,37.3694571 60.0377672,39.7593014 60.0377672,41.2750335 C60.9113779,44.5634542 64.8089549,50.2720399 68.163759,53.073835 Z" id="colar" fill="url(#linearGradient-36)"></path>
                                    <g id="sleeve">
                                        <use fill="url(#linearGradient-14)" fill-rule="evenodd" xlink:href="#path-37"></use>
                                        <use fill="black" fill-opacity="1" filter="url(#filter-38)" xlink:href="#path-37"></use>
                                    </g>
                                    <g id="glasses" transform="translate(60.264111, 19.427557)">
                                        <path d="M6.29506808,6.32224372 C7.33138935,6.59805294 8.62691317,6.39623067 9.31937823,5.64006409" id="Path-18" stroke="#8EA7D7" stroke-width="0.6" fill-opacity="0" fill="#000000" stroke-linecap="round"></path>
                                        <path d="M14.6100336,4.11911672 C15.5050421,4.39492594 16.6239188,4.19310366 17.2219378,3.43693709" id="Path-18-Copy" stroke="#8EA7D7" stroke-width="0.6" fill-opacity="0" fill="#000000" stroke-linecap="round"></path>
                                        <polygon id="Path-14" stroke="#8EA7D7" stroke-width="0.8" fill-opacity="0" fill="#000000" points="4.00424143 4.69777431 5.11761387 9.61645276 11.3196582 8.12737719 10.3853627 3.00425335"></polygon>
                                        <polygon id="Path-14-Copy" stroke="#8EA7D7" stroke-width="0.8" fill-opacity="0" fill="#000000" points="13.0676994 2.18437841 14.0777243 7.21021926 18.7216823 5.87792949 17.8740822 0.848323295"></polygon>
                                        <polygon id="Path-15" fill="#8EA7D7" points="3.87922183 5.31656483 0.222451651 6.31797807 0.833832055 7.53887905 4.78599148 8.47222134"></polygon>
                                        <polygon id="Path-16" fill="#8EA7D7" points="10.5909211 4.55534068 13.3811363 3.69547861 13.6881799 5.16915373 10.7911357 5.97718147"></polygon>
                                    </g>
                                    <g id="cushion" transform="translate(21.823216, 33.247159)">
                                        <g id="Mask-by-Oval">
                                            <g id="Oval-3-+-Oval-3-Copy-+-Oval-3-Copy-2-+-Oval-3-Copy-4-+-Oval-3-Copy-3-Mask">
                                                <mask id="mask-40" fill="white">
                                                    <use xlink:href="#path-39"></use>
                                                </mask>
                                                <use id="Mask" fill-opacity="0" fill="#000000" xlink:href="#path-39"></use>
                                                <g id="Oval-3" mask="url(#mask-40)">
                                                    <use fill="#EEF5FF" fill-rule="evenodd" xlink:href="#path-41"></use>
                                                    <use fill="black" fill-opacity="1" filter="url(#filter-42)" xlink:href="#path-41"></use>
                                                </g>
                                                <g id="Oval-3-Copy" mask="url(#mask-40)">
                                                    <use fill="#EEF5FF" fill-rule="evenodd" xlink:href="#path-43"></use>
                                                    <use fill="black" fill-opacity="1" filter="url(#filter-44)" xlink:href="#path-43"></use>
                                                </g>
                                                <g id="Oval-3-Copy-2" mask="url(#mask-40)">
                                                    <use fill="#EEF5FF" fill-rule="evenodd" xlink:href="#path-45"></use>
                                                    <use fill="black" fill-opacity="1" filter="url(#filter-46)" xlink:href="#path-45"></use>
                                                </g>
                                                <g id="Oval-3-Copy-4" mask="url(#mask-40)">
                                                    <use fill="#EEF5FF" fill-rule="evenodd" xlink:href="#path-47"></use>
                                                    <use fill="black" fill-opacity="1" filter="url(#filter-48)" xlink:href="#path-47"></use>
                                                </g>
                                                <g id="Oval-3-Copy-3" mask="url(#mask-40)">
                                                    <use fill="#EEF5FF" fill-rule="evenodd" xlink:href="#path-49"></use>
                                                    <use fill="black" fill-opacity="1" filter="url(#filter-50)" xlink:href="#path-49"></use>
                                                </g>
                                            </g>
                                        </g>
                                    </g>
                                    <path d="M78.1447231,53.9865036 C78.1447231,53.9865036 82.8834859,53.0901001 83.4517673,52.4525486 C84.0200679,51.814997 87.2293924,59.1809234 87.2293924,59.1809234 L85.6710562,60.9505499 L81.9566567,60.9505499 L78.1447231,53.9865036 Z" id="pocket" fill="url(#linearGradient-51)"></path>
                                </g>
                                <path d="M3.73971467,133.757485 L270.220042,133.757485 C271.988949,133.757485 273.422931,135.15492 273.422931,136.878743 C273.422931,138.602565 271.988949,140 270.220042,140 L3.73971467,140 C1.97080817,140 0.53682612,138.602565 0.53682612,136.878743 C0.53682612,135.15492 1.97080817,133.757485 3.73971467,133.757485 Z" id="Detail" fill="#D3E0F1"></path>
                                <g id="Detail" stroke-width="1" fill="none" transform="translate(188.000000, 1.000000)">
                                    <g id="iPhone">
                                        <path d="M80.9309036,132.757485 L0,132.757485 L0,12.3857275 C-8.36605767e-16,5.54527907 5.53794756,1.25656998e-15 12.3693521,0 L68.5615515,0 C75.392956,-1.25656998e-15 80.9309036,5.54527907 80.9309036,12.3857275 L80.9309036,132.757485 Z" id="Detail" fill="#B6C5D9"></path>
                                        <mask id="mask-53" fill="white">
                                            <use xlink:href="#path-52"></use>
                                        </mask>
                                        <use id="Detail" fill="#F2F5F9" xlink:href="#path-52"></use>
                                        <path d="M11.2346241,15.3982036 L69.6962794,15.3982036 C70.8453001,15.3982036 71.7767654,16.3298266 71.7767654,17.4790419 L71.7767654,51.3967066 C71.7767654,52.5459219 70.8453001,53.4775449 69.6962794,53.4775449 L11.2346241,53.4775449 C10.0856035,53.4775449 9.15413819,52.5459219 9.15413819,51.3967066 L9.15413819,17.4790419 C9.15413819,16.3298266 10.0856035,15.3982036 11.2346241,15.3982036 Z" id="Detail" fill="#E2EAF5" mask="url(#mask-53)"></path>
                                        <path d="M12.2748671,59.7200599 L68.6560364,59.7200599 C70.3795674,59.7200599 71.7767654,61.1174945 71.7767654,62.8413174 C71.7767654,64.5651403 70.3795674,65.9625749 68.6560364,65.9625749 L12.2748671,65.9625749 C10.5513361,65.9625749 9.15413819,64.5651403 9.15413819,62.8413174 C9.15413819,61.1174945 10.5513361,59.7200599 12.2748671,59.7200599 Z" id="Detail" fill="#E2EAF5" mask="url(#mask-53)"></path>
                                        <path d="M12.2748671,70.1242515 L68.6560364,70.1242515 C70.3795674,70.1242515 71.7767654,71.5216861 71.7767654,73.245509 C71.7767654,74.9693319 70.3795674,76.3667665 68.6560364,76.3667665 L12.2748671,76.3667665 C10.5513361,76.3667665 9.15413819,74.9693319 9.15413819,73.245509 C9.15413819,71.5216861 10.5513361,70.1242515 12.2748671,70.1242515 Z" id="Detail" fill="#E2EAF5" mask="url(#mask-53)"></path>
                                        <path d="M12.2748671,80.5284431 L68.6560364,80.5284431 C70.3795674,80.5284431 71.7767654,81.9258777 71.7767654,83.6497006 C71.7767654,85.3735235 70.3795674,86.7709581 68.6560364,86.7709581 L12.2748671,86.7709581 C10.5513361,86.7709581 9.15413819,85.3735235 9.15413819,83.6497006 C9.15413819,81.9258777 10.5513361,80.5284431 12.2748671,80.5284431 Z" id="Detail" fill="#E2EAF5" mask="url(#mask-53)"></path>
                                        <path d="M12.2748671,90.9326347 L68.6560364,90.9326347 C70.3795674,90.9326347 71.7767654,92.3300693 71.7767654,94.0538922 C71.7767654,95.7777151 70.3795674,97.1751497 68.6560364,97.1751497 L12.2748671,97.1751497 C10.5513361,97.1751497 9.15413819,95.7777151 9.15413819,94.0538922 C9.15413819,92.3300693 10.5513361,90.9326347 12.2748671,90.9326347 Z" id="Detail" fill="#E2EAF5" mask="url(#mask-53)"></path>
                                        <path d="M12.2748671,101.336826 L68.6560364,101.336826 C70.3795674,101.336826 71.7767654,102.734261 71.7767654,104.458084 C71.7767654,106.181907 70.3795674,107.579341 68.6560364,107.579341 L12.2748671,107.579341 C10.5513361,107.579341 9.15413819,106.181907 9.15413819,104.458084 C9.15413819,102.734261 10.5513361,101.336826 12.2748671,101.336826 Z" id="Detail" fill="#E2EAF5" mask="url(#mask-53)"></path>
                                        <path d="M12.2748671,111.741018 L68.6560364,111.741018 C70.3795674,111.741018 71.7767654,113.138453 71.7767654,114.862275 C71.7767654,116.586098 70.3795674,117.983533 68.6560364,117.983533 L12.2748671,117.983533 C10.5513361,117.983533 9.15413819,116.586098 9.15413819,114.862275 C9.15413819,113.138453 10.5513361,111.741018 12.2748671,111.741018 Z" id="Detail" fill="#E2EAF5" mask="url(#mask-53)"></path>
                                        <path d="M12.2748671,122.14521 L68.6560364,122.14521 C70.3795674,122.14521 71.7767654,123.542644 71.7767654,125.266467 C71.7767654,126.99029 70.3795674,128.387725 68.6560364,128.387725 L12.2748671,128.387725 C10.5513361,128.387725 9.15413819,126.99029 9.15413819,125.266467 C9.15413819,123.542644 10.5513361,122.14521 12.2748671,122.14521 Z" id="Detail" fill="#E2EAF5" mask="url(#mask-53)"></path>
                                    </g>
                                </g>
                                <g id="Group-2" stroke-width="1" fill="none" transform="translate(201.000000, 38.000000)">
                                    <g id="Oval-31">
                                        <use fill="#FFC62C" xlink:href="#path-55"></use>
                                        <use fill="url(#linearGradient-54)" xlink:href="#path-55"></use>
                                    </g>
                                    <g id="Oval-31-Copy">
                                        <use fill="#FEEC80" xlink:href="#path-57"></use>
                                        <use fill="url(#linearGradient-56)" xlink:href="#path-57"></use>
                                    </g>
                                    <text id="积分" font-family="PingFangSC-Medium, PingFang SC" font-size="19.2" font-weight="400" fill="#F5A623">
                                        <tspan x="10.4" y="36.8">积分</tspan>
                                    </text>
                                </g>
                                <g id="Detail" stroke-width="1" fill="none" transform="translate(27.898254, 107.122754)">
                                    <polygon fill="#B6C5D9" points="0 0 37.8648443 0 37.8648443 7.90718563 0 7.90718563"></polygon>
                                    <polygon fill="#E2EAF5" points="3.12072893 7.90718563 34.7441154 7.90718563 34.7441154 26.6347305 3.12072893 26.6347305"></polygon>
                                    <path d="M11.4426727,13.5254491 L26.4221716,13.5254491 C27.5711923,13.5254491 28.5026576,14.4570722 28.5026576,15.6062874 C28.5026576,16.7555027 27.5711923,17.6871257 26.4221716,17.6871257 L11.4426727,17.6871257 C10.2936521,17.6871257 9.36218679,16.7555027 9.36218679,15.6062874 C9.36218679,14.4570722 10.2936521,13.5254491 11.4426727,13.5254491 Z" fill="#D3E0F1"></path>
                                </g>
                                <g id="Detail" stroke-width="1" fill="none" transform="translate(33.099468, 88.811377)">
                                    <polygon fill="#B6C5D9" points="0 0 27.4624146 0 27.4624146 5.41017964 0 5.41017964"></polygon>
                                    <polygon fill="#E2EAF5" points="2.28853455 5.41017964 25.17388 5.41017964 25.17388 18.3113772 2.28853455 18.3113772"></polygon>
                                    <path d="M8.32194381,9.36377246 L19.3485194,9.36377246 C20.1528338,9.36377246 20.8048595,10.0159086 20.8048595,10.8203593 C20.8048595,11.62481 20.1528338,12.2769461 19.3485194,12.2769461 L8.32194381,12.2769461 C7.51762935,12.2769461 6.86560364,11.62481 6.86560364,10.8203593 C6.86560364,10.0159086 7.51762935,9.36377246 8.32194381,9.36377246 Z" fill="#D3E0F1"></path>
                                </g>
                                <path d="M18.0983177,120.856287 L21.03265,120.856287 C21.3773562,120.856287 21.6567957,121.135774 21.6567957,121.480539 L21.6567957,133.757485 L6.0531511,133.757485 L6.0531511,121.480539 C6.0531511,121.135774 6.33259069,120.856287 6.67729689,120.856287 L10.4528965,120.856287 C5.19583735,114.514334 4.10421599,108.6638 6.19185016,105.321343 C7.43759938,103.488972 10.8716796,109.735604 13.1273816,115.604917 C12.9509686,105.345061 15.0603229,90.3021227 18.2586687,92.6280491 C23.6553473,96.4521692 24.7133606,106.974201 18.0983223,120.856278 L18.0983177,120.856287 Z" id="Flowers" fill="#B6C5D9"></path>
                            </g>
                        </g>
                        <g id="文字" transform="translate(21.000000, 21.000000)" fill="#4D6079">
                            <text id="轻松做任务" font-family="PingFangSC-Medium, PingFang SC" font-size="38" font-weight="400" letter-spacing="0.475">
                                <tspan x="0" y="40">轻松做任务</tspan>
                            </text>
                            <text id="领取更多积分" font-family="PingFangSC-Regular, PingFang SC" font-size="28" font-weight="normal" letter-spacing="0.35">
                                <tspan x="0" y="83">领取更多积分</tspan>
                            </text>
                        </g>
                    </g>
                </g>
            </g>
        </g>
    </g>
</svg>