<?xml version="1.0" standalone="no"?><!DOCTYPE svg PUBLIC "-//W3C//DTD SVG 1.1//EN" "http://www.w3.org/Graphics/SVG/1.1/DTD/svg11.dtd"><svg t="1544090484299" class="icon" style="" viewBox="0 0 1024 1024" version="1.1" xmlns="http://www.w3.org/2000/svg" p-id="3436" xmlns:xlink="http://www.w3.org/1999/xlink" width="200" height="200"><defs><style type="text/css"></style></defs><path d="M512 64C265.6 64 64 265.6 64 512s201.6 448 448 448 448-201.6 448-448S758.4 64 512 64z m272 323.2l-320 320c-16 16-44.8 16-64 0l-134.4-134.4c-16-16-16-44.8 0-64 16-16 44.8-16 64 0l102.4 102.4 288-288c16-16 44.8-16 64 0 16 19.2 16 48 0 64z" p-id="3437"></path></svg>