<?xml version="1.0" encoding="UTF-8"?>
<svg width="31px" height="31px" viewBox="0 0 31 31" version="1.1" xmlns="http://www.w3.org/2000/svg" xmlns:xlink="http://www.w3.org/1999/xlink">
    <!-- Generator: Sketch 51 (57462) - http://www.bohemiancoding.com/sketch -->
    <title>Rectangle 5</title>
    <desc>Created with Sketch.</desc>
    <defs></defs>
    <g id="Page-1" stroke="none" stroke-width="1" fill="none" fill-rule="evenodd">
        <g id="常见问题" transform="translate(-170.000000, -174.000000)">
            <g id="Group-3" transform="translate(170.000000, 174.000000)" fill="#1F7CF0" fill-rule="nonzero">
                <g id="积分" transform="translate(1.000000, 0.000000)">
                    <path d="M11.8415802,11.2343274 C15.3829928,11.2343274 19.0663247,10.4554747 21.2783125,8.97046014 L21.2783125,11.6740758 L23.3277815,11.6740758 L23.3277814,5.75445381 C23.3277814,2.19569246 17.4114971,0.27439244 11.8450395,0.27439244 C6.27840802,0.27439244 0.358820848,2.19568898 0.358820848,5.75445381 L0.358820848,21.9104863 C0.358820848,25.4692477 6.27493131,27.3905477 11.8415628,27.3905477 L11.8415628,25.3447154 C5.99463887,25.3447154 2.40465665,23.3436666 2.40465665,21.9104968 L2.40465665,17.0536706 C4.61680788,18.5352188 8.29667351,19.3177083 11.8415628,19.3177083 L11.8415628,17.2682393 C5.99463887,17.2682393 2.40465665,15.2673574 2.40465665,13.8342328 L2.40465665,8.97396466 C4.61680788,10.4555129 8.30015022,11.2343657 11.8415628,11.2343657 L11.8415802,11.2343274 Z M11.8415802,2.32021434 C17.6885041,2.32021434 21.2783125,4.32130488 21.2783125,5.75443295 C21.2783125,7.18760275 17.6884694,9.18848468 11.8415802,9.18848468 C5.99465629,9.18848468 2.40467407,7.18760275 2.40467407,5.75443295 C2.40467407,4.32130488 5.99809823,2.32021434 11.8415802,2.32021434 Z M21.0221484,12.3559492 C15.9369024,12.3559492 13.2782267,14.3118772 13.2782267,16.2435726 L13.2782267,26.6255183 C13.2782267,28.5570468 15.9403582,30.5130027 21.0221484,30.5130027 C26.0695679,30.5130027 28.7246278,28.5847736 28.766244,26.6669955 L28.7697116,26.6669955 L28.7697116,16.2435726 C28.766244,14.3118738 26.1075801,12.3559492 21.0221393,12.3559492 L21.0221484,12.3559492 Z M21.0221484,14.4019101 C24.7817594,14.4019101 26.7202344,15.6931641 26.7202344,16.2435796 C26.7202344,16.7939951 24.7817698,18.085249 21.0221484,18.085249 C17.2627113,18.085249 15.3240625,16.7939951 15.3240625,16.2435796 C15.3240625,15.6931641 17.2626522,14.4019101 21.0221484,14.4019101 Z M21.0221484,28.4671878 C17.2627113,28.4671878 15.3240625,27.1759338 15.3240625,26.6255183 L15.3240625,24.1467451 C16.622249,24.8530737 18.5298438,25.3238621 21.0221484,25.3238621 C23.5146234,25.3238621 25.4187624,24.8530737 26.7202344,24.1467451 L26.7202344,26.6255183 C26.7202344,27.1758921 24.7817698,28.4671878 21.0221484,28.4671878 Z M21.0221484,23.274407 C17.2627113,23.274407 15.3240625,21.9831531 15.3240625,21.4327376 L15.3240625,18.9541347 C16.622249,19.6602964 18.5298438,20.1310848 21.0221484,20.1310848 C23.5146234,20.1310848 25.4187624,19.6602964 26.7202344,18.9541347 L26.7202344,21.4327376 C26.7202344,21.9831531 24.7817698,23.274407 21.0221484,23.274407 Z" id="Shape"></path>
                </g>
            </g>
        </g>
    </g>
</svg>