<?xml version="1.0" encoding="UTF-8"?>
<svg width="23px" height="28px" viewBox="0 0 23 28" version="1.1" xmlns="http://www.w3.org/2000/svg" xmlns:xlink="http://www.w3.org/1999/xlink">
    <!-- Generator: Sketch 52.5 (67469) - http://www.bohemiancoding.com/sketch -->
    <title>116订单、订单明细、收支明细</title>
    <desc>Created with Sketch.</desc>
    <defs>
        <filter x="-7.4%" y="-18.1%" width="114.8%" height="136.3%" filterUnits="objectBoundingBox" id="filter-1">
            <feGaussianBlur stdDeviation="17" in="SourceGraphic"></feGaussianBlur>
        </filter>
        <linearGradient x1="98.1631963%" y1="75.099598%" x2="0%" y2="15.7747971%" id="linearGradient-2">
            <stop stop-color="#6B7FAF" offset="0%"></stop>
            <stop stop-color="#8FA3D1" offset="100%"></stop>
        </linearGradient>
    </defs>
    <g id="12.25订单详情-积分中心" stroke="none" stroke-width="1" fill="none" fill-rule="evenodd">
        <g id="我的积分" transform="translate(-551.000000, -203.000000)">
            <g id="卡" transform="translate(0.000000, 142.000000)">
                <g id="卡片">
                    <g id="分组-7" transform="translate(30.000000, 36.000000)">
                        <path d="M14,6 L676,6 C683.731986,6 690,12.2680135 690,20 L690,273 C690,280.731986 683.731986,287 676,287 L14,287 C6.2680135,287 9.46895252e-16,280.731986 0,273 L-1.77635684e-15,20 C-2.72325209e-15,12.2680135 6.2680135,6 14,6 Z" id="背景" fill-opacity="0.560207201" fill="#859AC9" filter="url(#filter-1)"></path>
                        <path d="M14,0 L676,0 C683.731986,-1.42034288e-15 690,6.2680135 690,14 L690,267 C690,274.731986 683.731986,281 676,281 L14,281 C6.2680135,281 9.46895252e-16,274.731986 0,267 L-1.77635684e-15,14 C-2.72325209e-15,6.2680135 6.2680135,1.42034288e-15 14,0 Z" id="背景" fill="url(#linearGradient-2)"></path>
                    </g>
                </g>
                <g id="积分明细" transform="translate(551.000000, 56.000000)" fill="#FFFFFF" fill-rule="nonzero">
                    <g transform="translate(0.000000, 5.000000)" id="116订单、订单明细、收支明细">
                        <g>
                            <path d="M21.0125,0.003125 L1.921875,0.003125 C0.88125,0.003125 0.0375,0.834375 0.015625,1.871875 L0.146875,1.871875 C0.103125,1.871875 0.0625,1.875 0.015625,1.878125 L0.015625,26.0875 C0.015625,27.140625 0.871875,27.996875 1.925,27.996875 L21.0125,27.996875 C22.0625,27.996875 22.91875,27.140625 22.91875,26.0875 L22.91875,1.875 C22.896875,0.834375 22.05,0.003125 21.0125,0.003125 Z M12.03125,20.6875 C12.03125,21.2375 11.58125,21.6875 11.03125,21.6875 L6.46875,21.6875 C5.91875,21.6875 5.46875,21.2375 5.46875,20.6875 C5.46875,20.1375 5.91875,19.6875 6.46875,19.6875 L11.03125,19.6875 C11.58125,19.6875 12.03125,20.1375 12.03125,20.6875 Z M14.84375,14 C14.84375,14.55 14.39375,15 13.84375,15 L6.46875,15 C5.91875,15 5.46875,14.55 5.46875,14 C5.46875,13.45 5.91875,13 6.46875,13 L13.84375,13 C14.39375,13 14.84375,13.45 14.84375,14 Z M17.46875,7.3125 C17.46875,7.8625 17.01875,8.3125 16.46875,8.3125 L6.46875,8.3125 C5.91875,8.3125 5.46875,7.8625 5.46875,7.3125 C5.46875,6.7625 5.91875,6.3125 6.46875,6.3125 L16.46875,6.3125 C17.01875,6.3125 17.46875,6.7625 17.46875,7.3125 Z" id="形状"></path>
                        </g>
                    </g>
                </g>
            </g>
        </g>
    </g>
</svg>