<?xml version="1.0" encoding="UTF-8"?>
<svg width="85px" height="85px" viewBox="0 0 85 85" version="1.1" xmlns="http://www.w3.org/2000/svg" xmlns:xlink="http://www.w3.org/1999/xlink">
    <!-- Generator: Sketch 51 (57462) - http://www.bohemiancoding.com/sketch -->
    <title>Rectangle 2</title>
    <desc>Created with Sketch.</desc>
    <defs></defs>
    <g id="Page-1" stroke="none" stroke-width="1" fill="none" fill-rule="evenodd">
        <g id="咨询客服" transform="translate(-147.000000, -143.000000)">
            <g id="Group-3" transform="translate(147.000000, 143.000000)" fill="#D8D8D8" fill-rule="nonzero">
                <g id="客服" transform="translate(6.000000, 13.000000)">
                    <path d="M36.0702531,7.0519396 C23.6988028,7.0519396 13.6696214,17.2210045 13.6696214,29.765308 C13.6696214,35.9126127 16.0779641,41.4748058 19.9798769,45.5679321 C21.7552845,47.1887576 23.6928524,48.61738 25.8221992,49.7405847 C26.9797798,50.3471914 28.257333,50.963702 29.5981538,51.518793 L29.5981536,51.5187929 C31.6953286,52.1579709 33.8765977,52.4835668 36.0702811,52.4848943 C48.4420127,52.4848943 58.4680994,42.3126855 58.4680994,29.7650285 C58.4680994,17.2210044 48.4417314,7.05193956 36.0702811,7.05193956 L36.0702531,7.0519396 Z M23.8635304,34.345876 C36.5561362,45.2146993 48.2769758,34.345876 48.2769758,34.345876 C48.2769758,34.345876 48.2769758,45.5900091 36.0702531,45.5900091 C23.8635304,45.5902922 23.8635304,34.345876 23.8635304,34.345876 Z M36.0702531,0 C22.2890525,0 10.727173,9.62985396 7.56907349,22.6168163 C7.56907349,22.6168163 -0.336795987,23.8846605 0.0111576458,31.9511452 C0.361964822,40.0145069 8.70296484,40.5053719 8.70296484,40.5053719 C8.80185204,40.7621112 10.5533228,40.2554262 11.1831209,40.1461637 L11.1831205,40.1461627 C9.84493039,36.8477821 9.15865919,33.3243134 9.16177509,29.7682042 C9.16177509,14.694472 21.2094674,2.47769122 36.0701894,2.47769122 C50.9311927,2.47769122 62.9757902,14.694472 62.9757902,29.7682042 C62.9757902,41.7925095 55.3101895,51.9935721 44.6631038,55.6272723 C43.9728881,55.8650463 43.2533183,55.5505622 43.2533183,55.5505622 C43.2533183,55.5505622 41.4477013,55.2066389 39.1864036,55.8554225 C38.0707153,56.179814 37.5936664,57.3831192 37.6600639,58.4392334 C37.7438471,59.6943414 38.2146304,60.5998636 39.5101405,60.798571 C41.177828,61.0649348 43.5502641,61.3666812 44.443957,59.5564856 C44.6873276,59.0653692 44.9509318,58.1536221 45.52089,57.9580236 C53.7504471,55.1231353 60.3365967,48.6845463 63.4588247,40.5022759 C63.4588247,40.5022759 71.7516845,39.5172135 71.994204,31.7652149 C72.2401398,24.0132373 64.5776641,22.6392206 64.5776641,22.6392206 C61.4252408,9.63919375 49.8571224,4.7873677e-05 36.0702246,4.7873677e-05 L36.0702531,0 Z" id="Shape"></path>
                </g>
            </g>
        </g>
    </g>
</svg>