<?xml version="1.0" standalone="no"?><!DOCTYPE svg PUBLIC "-//W3C//DTD SVG 1.1//EN" "http://www.w3.org/Graphics/SVG/1.1/DTD/svg11.dtd"><svg t="1544668058319" class="icon" style="" viewBox="0 0 1024 1024" version="1.1" xmlns="http://www.w3.org/2000/svg" p-id="8468" xmlns:xlink="http://www.w3.org/1999/xlink" width="200" height="200"><defs><style type="text/css"></style></defs><path d="M972.3 456.8H175.2L545 87c19.8-19.8 19.8-51.8 0-71.6-19.8-19.8-51.8-19.8-71.6 0L17.2 471.7C8 480.8 2.4 493.5 2.4 507.5c0 14 5.7 26.7 14.8 35.8l456.2 456.2c19.8 19.8 51.8 19.8 71.6 0 19.8-19.8 19.8-51.8 0-71.6L175.2 558.1h797.1c28 0 50.6-22.7 50.6-50.6s-22.6-50.7-50.6-50.7z m0 0" p-id="8469"></path></svg>