<?xml version="1.0" encoding="UTF-8"?>
<svg width="30px" height="30px" viewBox="0 0 30 30" version="1.1" xmlns="http://www.w3.org/2000/svg" xmlns:xlink="http://www.w3.org/1999/xlink">
    <!-- Generator: Sketch 52.5 (67469) - http://www.bohemiancoding.com/sketch -->
    <title>不可退</title>
    <desc>Created with Sketch.</desc>
    <g id="12.25订单详情-积分中心" stroke="none" stroke-width="1" fill="none" fill-rule="evenodd">
        <g id="退单详情-退单说明" transform="translate(-98.000000, -724.000000)" fill="#E84747" fill-rule="nonzero">
            <g id="分组-7" transform="translate(35.000000, 153.000000)">
                <g id="分组-2">
                    <g id="分组-4" transform="translate(35.000000, 29.000000)">
                        <g id="不可退" transform="translate(28.000000, 542.000000)">
                            <g id="错误--关闭-01">
                                <path d="M14.6875,29.3541562 C6.58732942,29.3541563 0.02084375,22.7876706 0.02084375,14.6875 C0.02084375,6.58732942 6.58732942,0.02084375 14.6875,0.02084375 C22.7876706,0.02084375 29.3541563,6.58732942 29.3541563,14.6875 C29.3541563,18.5773391 27.8089237,22.3078605 25.0583921,25.0583921 C22.3078605,27.8089237 18.5773391,29.3541563 14.6875,29.3541562 Z M12.6741562,14.5275 L7.6075,19.5941563 C7.14541631,19.8870563 6.90914762,20.4325063 7.01156681,20.969928 C7.113986,21.5073497 7.53430652,21.9276702 8.07172821,22.0300894 C8.6091499,22.1325086 9.15459997,21.8962399 9.4475,21.4341563 L14.5141562,16.3675 L19.5808438,21.4341563 C19.8737438,21.8962399 20.4191938,22.1325086 20.9566155,22.0300894 C21.4940372,21.9276702 21.9143577,21.5073497 22.0167769,20.969928 C22.1191961,20.4325063 21.8829274,19.8870563 21.4208437,19.5941563 L16.3541562,14.5275 L21.4208437,9.46084375 C21.8829274,9.16794372 22.1191961,8.62249365 22.0167769,8.08507196 C21.9143577,7.54765027 21.4940372,7.12732975 20.9566155,7.02491056 C20.4191938,6.92249137 19.8737438,7.15876006 19.5808438,7.62084375 L14.5141562,12.6875 L9.4475,7.62084375 C8.92307989,7.29716394 8.24516295,7.37505007 7.8078134,7.80922795 C7.37046384,8.24340583 7.28764567,8.92073793 7.6075,9.4475 L12.6741562,14.5275 Z" id="形状"></path>
                            </g>
                        </g>
                    </g>
                </g>
            </g>
        </g>
    </g>
</svg>