<?xml version="1.0" encoding="UTF-8"?>
<svg width="30px" height="30px" viewBox="0 0 30 30" version="1.1" xmlns="http://www.w3.org/2000/svg" xmlns:xlink="http://www.w3.org/1999/xlink">
    <!-- Generator: Sketch 52.5 (67469) - http://www.bohemiancoding.com/sketch -->
    <title>对</title>
    <desc>Created with Sketch.</desc>
    <defs>
        <path d="M-5.68434189e-14,7.38964445e-13 L750,7.38964445e-13 L750,258 C625.786499,294.63111 501.119832,312.946664 376,312.946664 C250.880168,312.946664 125.546834,294.63111 -5.68434189e-14,258 L-5.68434189e-14,7.38964445e-13 Z" id="path-1"></path>
        <filter x="-5.2%" y="-15.0%" width="110.4%" height="130.0%" filterUnits="objectBoundingBox" id="filter-3">
            <feGaussianBlur stdDeviation="12" in="SourceGraphic"></feGaussianBlur>
        </filter>
    </defs>
    <g id="12.25订单详情-积分中心" stroke="none" stroke-width="1" fill="none" fill-rule="evenodd">
        <g id="退单详情-退单说明" transform="translate(-98.000000, -304.000000)">
            <rect fill="#F9F9F9" x="0" y="0" width="750" height="1334"></rect>
            <g id="椭圆形-+-椭圆形-copy-Mask">
                <mask id="mask-2" fill="white">
                    <use xlink:href="#path-1"></use>
                </mask>
                <use id="Mask" fill="#1859E1" fill-rule="nonzero" xlink:href="#path-1"></use>
            </g>
            <g id="by" transform="translate(31.000000, 208.000000)">
                <polygon id="阴影" fill="#C8DEF7" opacity="0.218191964" filter="url(#filter-3)" points="0 23 690 23 690 263 0 263"></polygon>
                <path d="M14,0 L676,0 C683.731986,-1.42034288e-15 690,6.2680135 690,14 L690,249 C690,256.731986 683.731986,263 676,263 L14,263 C6.2680135,263 9.46895252e-16,256.731986 0,249 L-1.77635684e-15,14 C-2.72325209e-15,6.2680135 6.2680135,1.42034288e-15 14,0 Z" id="背景" fill="#FFFFFF"></path>
            </g>
            <g id="优选" transform="translate(61.000000, 325.000000)">
                <rect id="矩形" fill="#EFF3FD" x="0" y="0" width="110" height="38" rx="8"></rect>
                <g id="分组-3" transform="translate(10.000000, 2.000000)" fill="#1859E1" font-family="PingFang-SC-Medium, PingFang SC" font-size="24" font-weight="400" letter-spacing="1.20000005" line-spacing="34">
                    <text id="上海">
                        <tspan x="38" y="25">上海</tspan>
                    </text>
                </g>
            </g>
            <rect id="写备注" fill-opacity="0.4" fill="#000000" fill-rule="nonzero" x="0" y="0" width="750" height="1334"></rect>
            <g id="分组-7" transform="translate(35.000000, 153.000000)" fill-rule="nonzero">
                <g id="分组-2">
                    <rect id="Rectangle-17" stroke="#979797" stroke-width="2" fill="#FFFFFF" x="1" y="1" width="678" height="886" rx="26"></rect>
                    <g id="分组-4" transform="translate(35.000000, 29.000000)" fill="#7ED321">
                        <g id="可退" transform="translate(28.000000, 122.000000)">
                            <g id="对">
                                <path d="M14.9002514,1.34374997e-06 C6.66880478,0.00333390625 -0.00099978125,6.67780406 0,14.9085842 C0.00099978125,23.1393642 6.67347037,29.8121681 14.9045838,29.8131679 C23.1356971,29.8141677 29.8095007,23.1440299 29.8134998,14.9129165 C29.8151805,10.9571927 28.2444968,7.16300732 25.4473462,4.36591923 C22.6501956,1.56883114 18.8559751,-0.00176772975 14.9002514,1.34374997e-06 Z M23.4552905,11.0428036 L13.8081684,20.6829273 C13.553952,20.9451817 13.2043014,21.0932095 12.8390572,21.0932095 C12.473813,21.0932095 12.1241624,20.9451817 11.869946,20.6829273 L6.31921825,15.1328661 C5.78390088,14.5975487 5.78390087,13.7296278 6.31921823,13.1943104 C6.8545356,12.6589931 7.72245653,12.658993 8.25777391,13.1943104 L12.8583861,17.7949226 L21.5427289,9.14290572 C21.8881497,8.79237749 22.3949747,8.65392864 22.8706324,8.78016365 C23.3462902,8.90639866 23.7177684,9.27794076 23.8439217,9.75362022 C23.9700749,10.2292997 23.8315389,10.7361008 23.4809513,11.0814614 L23.4552905,11.0428036 Z" id="形状"></path>
                            </g>
                        </g>
                    </g>
                </g>
            </g>
        </g>
    </g>
</svg>