<?xml version="1.0" encoding="UTF-8"?>
<svg width="59px" height="59px" viewBox="0 0 59 59" version="1.1" xmlns="http://www.w3.org/2000/svg" xmlns:xlink="http://www.w3.org/1999/xlink">
    <!-- Generator: Sketch 52.5 (67469) - http://www.bohemiancoding.com/sketch -->
    <title>分组 8 copy</title>
    <desc>Created with Sketch.</desc>
    <defs>
        <filter x="-4.0%" y="-30.0%" width="108.0%" height="160.0%" filterUnits="objectBoundingBox" id="filter-1">
            <feGaussianBlur stdDeviation="10" in="SourceGraphic"></feGaussianBlur>
        </filter>
        <linearGradient x1="50%" y1="6.35344232%" x2="50%" y2="97.0485264%" id="linearGradient-2">
            <stop stop-color="#FE3A23" offset="0%"></stop>
            <stop stop-color="#FF5950" offset="100%"></stop>
        </linearGradient>
        <path d="M15.0034194,41.7025562 L6.63116165,33.3302985 C6.20400996,32.9031468 5.86028941,32.4241576 5.6,31.9135808 C6.41205384,30.3206773 6.41205384,28.4203237 5.6,26.8274202 C5.86028941,26.3168433 6.20400996,25.8378542 6.63116165,25.4107025 L25.440202,6.60166213 C25.8514076,6.1904565 26.3106527,5.85656913 26.7998716,5.6 C28.4479121,6.52042327 30.4622488,6.5436357 32.1287647,5.66963729 C32.5699223,5.91602182 32.9848326,6.22669677 33.359798,6.60166213 L52.1688384,25.4107025 C52.59599,25.8378542 52.9397106,26.3168433 53.2,26.8274202 C52.3879462,28.4203237 52.3879462,30.3206773 53.2,31.9135808 C52.9397106,32.4241576 52.59599,32.9031468 52.1688384,33.3302985 L43.5477043,41.9514326 C42.8977765,41.5388988 42.1267871,41.3 41.3,41.3 C38.9804041,41.3 37.1,43.1804041 37.1,45.5 C37.1,46.3267871 37.3388988,47.0977765 37.7514326,47.7477043 L37.6424948,47.856642 C37.1445871,46.0927115 35.523258,44.8 33.6,44.8 C31.2804041,44.8 29.4,46.6804041 29.4,49 C29.4,50.8566241 30.6046877,52.4318783 32.2750317,52.9867314 C32.1443959,53.0649937 32.0112573,53.1374618 31.8759862,53.2041357 C30.3474686,52.4988713 28.5665251,52.5193266 27.0526501,53.2655016 C26.7784087,53.1389655 26.5122931,52.9890683 26.2573034,52.8158099 C27.6992512,52.1506439 28.7,50.6921907 28.7,49 C28.7,46.6804041 26.8195959,44.8 24.5,44.8 C22.770019,44.8 21.2843317,45.8459458 20.6408193,47.3399561 L20.5974438,47.2965806 C20.8555905,46.7518972 21,46.1428129 21,45.5 C21,43.1804041 19.1195959,41.3 16.8,41.3 C16.1571871,41.3 15.5481028,41.4444095 15.0034194,41.7025562 Z M15.5360482,42.235185 C15.9280956,42.0833018 16.3543197,42 16.8,42 C18.7329966,42 20.3,43.5670034 20.3,45.5 C20.3,45.9456803 20.2166982,46.3719044 20.064815,46.7639518 L19.5095397,46.2086765 C19.5685755,45.9823328 19.6,45.7448362 19.6,45.5 C19.6,43.9536027 18.3463973,42.7 16.8,42.7 C16.5551638,42.7 16.3176672,42.7314245 16.0913235,42.7904603 L15.5360482,42.235185 Z M16.7030609,43.4021977 C16.7351911,43.4007379 16.7675094,43.4 16.8,43.4 C17.959798,43.4 18.9,44.340202 18.9,45.5 C18.9,45.5324906 18.8992621,45.5648089 18.8978023,45.5969391 L16.7030609,43.4021977 Z M43.0378786,42.4612582 L42.5200577,42.9790791 C42.1512815,42.8002714 41.7373506,42.7 41.3,42.7 C39.7536027,42.7 38.5,43.9536027 38.5,45.5 C38.5,45.9373506 38.6002714,46.3512815 38.7790791,46.7200577 L38.2612582,47.2378786 C37.9677784,46.7258239 37.8,46.1325053 37.8,45.5 C37.8,43.5670034 39.3670034,42 41.3,42 C41.9325053,42 42.5258239,42.1677784 43.0378786,42.4612582 Z M41.984911,43.5142258 L41.3959035,44.1032333 C41.3642133,44.1010894 41.3322339,44.1 41.3,44.1 C40.5268014,44.1 39.9,44.7268014 39.9,45.5 C39.9,45.5322339 39.9010894,45.5642133 39.9032333,45.5959035 L39.3142258,46.184911 C39.2401988,45.9702434 39.2,45.7398162 39.2,45.5 C39.2,44.340202 40.140202,43.4 41.3,43.4 C41.5398162,43.4 41.7702434,43.4401988 41.984911,43.5142258 Z M33.0204247,52.4522359 C31.3632433,52.1760737 30.1,50.73556 30.1,49 C30.1,47.0670034 31.6670034,45.5 33.6,45.5 C35.343497,45.5 36.789243,46.7748238 37.0559516,48.4431852 L36.3982151,49.1009217 C36.3994017,49.067428 36.4,49.0337838 36.4,49 C36.4,47.4536027 35.1463973,46.2 33.6,46.2 C32.0536027,46.2 30.8,47.4536027 30.8,49 C30.8,50.5463973 32.0536027,51.8 33.6,51.8 C33.6337838,51.8 33.667428,51.7994017 33.7009223,51.798215 L33.359798,52.1393388 C33.2499849,52.2491519 33.1367458,52.353451 33.0204247,52.4522359 Z M34.7266007,50.7725361 C34.4010629,50.9798758 34.0145597,51.1 33.6,51.1 C32.440202,51.1 31.5,50.159798 31.5,49 C31.5,47.840202 32.440202,46.9 33.6,46.9 C34.759798,46.9 35.7,47.840202 35.7,49 C35.7,49.4145597 35.5798758,49.8010629 35.3725361,50.1266007 L34.7266007,50.7725361 Z M25.6243937,52.3154791 C25.5619988,52.2584328 25.5005825,52.1997193 25.440202,52.1393388 L25.0473837,51.7465205 C26.3317188,51.4919862 27.3,50.3590702 27.3,49 C27.3,47.4536027 26.0463973,46.2 24.5,46.2 C23.1409298,46.2 22.0080138,47.1682812 21.7534795,48.4526163 L21.182487,47.8816238 C21.649063,46.4970667 22.9580928,45.5 24.5,45.5 C26.4329966,45.5 28,47.0670034 28,49 C28,50.5396725 27.0058213,51.8471421 25.6243937,52.3154791 Z M24.3984529,51.0975897 L22.4024103,49.1015471 C22.4008101,49.0679007 22.4,49.034045 22.4,49 C22.4,47.840202 23.340202,46.9 24.5,46.9 C25.659798,46.9 26.6,47.840202 26.6,49 C26.6,50.159798 25.659798,51.1 24.5,51.1 C24.465955,51.1 24.4320993,51.0991899 24.398451,51.0975878 Z M24.5,49.7 C24.1134007,49.7 23.8,49.3865993 23.8,49 C23.8,48.6134007 24.1134007,48.3 24.5,48.3 C24.8865993,48.3 25.2,48.6134007 25.2,49 C25.2,49.3865993 24.8865993,49.7 24.5,49.7 Z M24.5,50.4 C25.2731986,50.4 25.9,49.7731986 25.9,49 C25.9,48.2268014 25.2731986,47.6 24.5,47.6 C23.7268014,47.6 23.1,48.2268014 23.1,49 C23.1,49.7731986 23.7268014,50.4 24.5,50.4 Z M33.6,49.7 C33.2134007,49.7 32.9,49.3865993 32.9,49 C32.9,48.6134007 33.2134007,48.3 33.6,48.3 C33.9865993,48.3 34.3,48.6134007 34.3,49 C34.3,49.3865993 33.9865993,49.7 33.6,49.7 Z M33.6,50.4 C34.3731986,50.4 35,49.7731986 35,49 C35,48.2268014 34.3731986,47.6 33.6,47.6 C32.8268014,47.6 32.2,48.2268014 32.2,49 C32.2,49.7731986 32.8268014,50.4 33.6,50.4 Z" id="path-3"></path>
        <filter x="-5.3%" y="-5.2%" width="110.5%" height="110.5%" filterUnits="objectBoundingBox" id="filter-4">
            <feGaussianBlur stdDeviation="1" in="SourceAlpha" result="shadowBlurInner1"></feGaussianBlur>
            <feOffset dx="0" dy="-3" in="shadowBlurInner1" result="shadowOffsetInner1"></feOffset>
            <feComposite in="shadowOffsetInner1" in2="SourceAlpha" operator="arithmetic" k2="-1" k3="1" result="shadowInnerInner1"></feComposite>
            <feColorMatrix values="0 0 0 0 0.878431373   0 0 0 0 0.168627451   0 0 0 0 0.0823529412  0 0 0 0.723307292 0" type="matrix" in="shadowInnerInner1"></feColorMatrix>
        </filter>
        <polygon id="path-5" points="0.155681803 0.144094523 5.02637143 0.144094523 5.02637143 5.09081572 0.155681803 5.09081572"></polygon>
        <polygon id="path-7" points="0 0.00289000912 3.08578286 0.00289000912 3.08578286 1.44286376 0 1.44286376"></polygon>
        <polygon id="path-9" points="0.0793266291 0.0875 1.69220347 0.0875 1.69220347 2.97064091 0.0793266291 2.97064091"></polygon>
        <path d="M31.3232981,17.5024031 C33.8243687,16.6425276 37.4711971,16.6425276 38.5274268,19.4753436 C39.5836564,22.3081597 38.6349376,24.3020871 37.9546103,23.9622969 C35.5520207,21.7037312 40.8866966,18.9563036 30.896608,19.4753436 C27.4028028,22.5891546 29.4576358,17.9559565 31.3232981,17.5024031 Z" id="path-11"></path>
        <filter x="-10.0%" y="-14.3%" width="120.0%" height="128.6%" filterUnits="objectBoundingBox" id="filter-12">
            <feGaussianBlur stdDeviation="0.5" in="SourceAlpha" result="shadowBlurInner1"></feGaussianBlur>
            <feOffset dx="0" dy="-1" in="shadowBlurInner1" result="shadowOffsetInner1"></feOffset>
            <feComposite in="shadowOffsetInner1" in2="SourceAlpha" operator="arithmetic" k2="-1" k3="1" result="shadowInnerInner1"></feComposite>
            <feColorMatrix values="0 0 0 0 0.714817177   0 0 0 0 0.714506926   0 0 0 0 0.714506926  0 0 0 0.5 0" type="matrix" in="shadowInnerInner1"></feColorMatrix>
        </filter>
        <path d="M32.1203665,24.2951182 C32.3771605,24.0327909 32.6757544,23.9453485 33.0161482,24.0327909 C33.5267389,24.1639545 33.6972341,24.0327909 33.9946406,24.0327909 C34.2920471,24.0327909 35.0159406,24 35.0159406,24.1475591 C35.0159406,24.2459318 35.2572384,24.2951182 35.7398341,24.2951182 L36,24.6599734 L36,25 L32,25 L32.1203665,24.2951182 Z" id="path-13"></path>
        <filter x="-12.5%" y="-50.0%" width="125.0%" height="200.0%" filterUnits="objectBoundingBox" id="filter-14">
            <feGaussianBlur stdDeviation="0.5" in="SourceAlpha" result="shadowBlurInner1"></feGaussianBlur>
            <feOffset dx="0" dy="0" in="shadowBlurInner1" result="shadowOffsetInner1"></feOffset>
            <feComposite in="shadowOffsetInner1" in2="SourceAlpha" operator="arithmetic" k2="-1" k3="1" result="shadowInnerInner1"></feComposite>
            <feColorMatrix values="0 0 0 0 0.714817177   0 0 0 0 0.714506926   0 0 0 0 0.714506926  0 0 0 0.5 0" type="matrix" in="shadowInnerInner1"></feColorMatrix>
        </filter>
    </defs>
    <g id="Page-1" stroke="none" stroke-width="1" fill="none" fill-rule="evenodd">
        <g id="我的-已实名认证" transform="translate(-135.000000, -1234.000000)">
            <g id="分组-6" transform="translate(0.000000, 1234.000000)">
                <g id="抢单-未点击" transform="translate(135.000000, 0.000000)">
                    <g id="分组-8-copy">
                        <g id="合并形状">
                            <use fill="url(#linearGradient-2)" fill-rule="evenodd" xlink:href="#path-3"></use>
                            <use fill="black" fill-opacity="1" filter="url(#filter-4)" xlink:href="#path-3"></use>
                        </g>
                        <g id="分组" transform="translate(17.882365, 32.327434) scale(-1, 1) rotate(-59.000000) translate(-17.882365, -32.327434) translate(14.032365, 28.827434)">
                            <g transform="translate(2.671429, 1.821591)">
                                <mask id="mask-6" fill="white">
                                    <use xlink:href="#path-5"></use>
                                </mask>
                                <g id="Clip-2"></g>
                                <path d="M3.57479571,3.28750227 C3.48333857,3.29593409 3.40256714,3.22784318 3.39423857,3.13525227 C3.39266714,3.11854773 3.39612429,3.10311591 3.39926714,3.08736591 L2.91259571,2.81945682 C2.84471,2.92222955 2.74492429,3.00257045 2.62392429,3.040275 L2.74633857,3.58118409 C2.78578143,3.58229773 2.82506714,3.59566136 2.85602429,3.62541136 C2.92281,3.68904773 2.92595286,3.79547955 2.86293857,3.86309318 C2.79992429,3.93086591 2.69479571,3.93388864 2.62801,3.87025227 C2.56122429,3.80645682 2.55808143,3.700025 2.62109571,3.63241136 C2.63241,3.62016136 2.64623857,3.612525 2.65991,3.60457045 L2.53623857,3.05841136 C2.52822429,3.05936591 2.52083857,3.06222955 2.51266714,3.063025 C2.41618143,3.07193409 2.32425286,3.05236591 2.24191,3.01482045 L1.97901,3.504025 C2.00776714,3.53122955 2.02835286,3.56782045 2.03228143,3.61061591 C2.04061,3.70320682 1.97335286,3.78513864 1.88189571,3.79372955 C1.79059571,3.80200227 1.70966714,3.73391136 1.70133857,3.64147955 C1.69285286,3.54888864 1.76026714,3.46695682 1.85156714,3.458525 C1.86806714,3.45693409 1.88346714,3.46059318 1.89871,3.46361591 L2.16365286,2.97091136 C2.05585286,2.89820682 1.97461,2.788275 1.94019571,2.65591136 L1.40009571,2.75693409 C1.39742429,2.79686591 1.38218143,2.83600227 1.35185286,2.86607045 C1.28601,2.93097955 1.18088143,2.92938864 1.11676714,2.86288864 C1.05265286,2.79622955 1.05406714,2.68979773 1.11975286,2.62488864 C1.18559571,2.56013864 1.29088143,2.56157045 1.35483857,2.62807045 C1.36631,2.64016136 1.37322429,2.65447955 1.38061,2.66847955 L1.92306714,2.56713864 C1.92306714,2.56682045 1.92291,2.56650227 1.92291,2.56618409 C1.91411,2.46850227 1.93328143,2.37543409 1.97052429,2.29191136 L1.48731,2.02575227 C1.46043857,2.055025 1.42429571,2.07586591 1.38186714,2.07968409 C1.29056714,2.088275 1.20963857,2.020025 1.20131,1.92743409 C1.19298143,1.83500227 1.26023857,1.75307045 1.35169571,1.74463864 C1.44299571,1.73620682 1.52392429,1.80429773 1.53225286,1.89688864 C1.53382429,1.91343409 1.53021,1.929025 1.52722429,1.944775 L2.01389571,2.21268409 C2.08178143,2.10991136 2.18156714,2.02957045 2.30256714,1.99170682 L2.18015286,1.45095682 C2.14071,1.44984318 2.10142429,1.43632045 2.07046714,1.40672955 C2.00368143,1.34293409 2.00053857,1.23650227 2.06355286,1.16904773 C2.12656714,1.101275 2.23169571,1.09809318 2.29848143,1.16188864 C2.36526714,1.22568409 2.36825286,1.33211591 2.30539571,1.39972955 C2.29408143,1.41197955 2.28025286,1.41961591 2.26658143,1.42757045 L2.39025286,1.97372955 C2.39826714,1.97261591 2.40565286,1.96991136 2.41366714,1.96911591 C2.51031,1.96004773 2.60208143,1.97961591 2.68458143,2.01732045 L2.94748143,1.52795682 C2.91856714,1.50091136 2.89798143,1.46416136 2.89421,1.42136591 C2.88572429,1.328775 2.95313857,1.24700227 3.04443857,1.23841136 C3.13589571,1.22997955 3.21682429,1.29807045 3.22515286,1.39066136 C3.23348143,1.48325227 3.16622429,1.56518409 3.07476714,1.57361591 C3.05842429,1.57504773 3.04302429,1.57154773 3.02762429,1.56836591 L2.76283857,2.06122955 C2.87063857,2.13393409 2.95188143,2.24370682 2.98629571,2.37607045 L3.52639571,2.27520682 C3.52906714,2.235275 3.54431,2.19613864 3.57463857,2.16607045 C3.64048143,2.10116136 3.74561,2.10275227 3.80972429,2.16925227 C3.87368143,2.23591136 3.87242429,2.34234318 3.80658143,2.40709318 C3.74089571,2.47200227 3.63561,2.47057045 3.57149571,2.40391136 C3.56002429,2.39197955 3.55311,2.37766136 3.54588143,2.36350227 L3.00326714,2.46500227 C3.00326714,2.46532045 3.00342429,2.46563864 3.00342429,2.46595682 C3.01222429,2.56363864 2.99305286,2.65654773 2.95596714,2.74022955 L3.43918143,3.00622955 C3.46605286,2.97711591 3.50219571,2.956275 3.54446714,2.95245682 C3.63592429,2.94386591 3.71669571,3.01211591 3.72518143,3.10454773 C3.73351,3.19713864 3.66625286,3.27891136 3.57479571,3.28750227 M5.02286714,2.800525 C5.06749571,2.24020682 4.68249571,1.74988864 4.14836714,1.64854773 C4.35721,1.14057045 4.16298143,0.545888636 3.67536714,0.276547727 C3.16716714,-0.00392954545 2.53639571,0.176161364 2.24143857,0.673956818 C2.22588143,0.655025 2.21079571,0.634661364 2.19366714,0.618752273 C1.75916714,0.208934091 1.07873857,0.233593182 0.673938571,0.673479545 C0.269138571,1.113525 0.293495714,1.80254773 0.728152857,2.21220682 C0.733495714,2.21713864 0.740567143,2.221275 0.746224286,2.22604773 C0.739624286,2.22938864 0.73161,2.23113864 0.725167143,2.23463864 C0.201252857,2.51750227 0.00293857143,3.17709318 0.282338571,3.70766136 C0.55561,4.22645682 1.18402429,4.42659318 1.70196714,4.17061591 C1.79138143,4.74700227 2.31356714,5.15347955 2.89028143,5.08284318 C3.47988143,5.010775 3.89992429,4.468275 3.82858143,3.87136591 C3.82528143,3.84416136 3.81742429,3.81584318 3.80972429,3.78800227 C3.82795286,3.79134318 3.84665286,3.79675227 3.86456714,3.79818409 C4.45652429,3.84670682 4.97509571,3.39997955 5.02286714,2.800525" id="Fill-1" fill="#FFFFFF" mask="url(#mask-6)"></path>
                            </g>
                            <g transform="translate(0.000000, 2.935227)">
                                <mask id="mask-8" fill="white">
                                    <use xlink:href="#path-7"></use>
                                </mask>
                                <g id="Clip-4"></g>
                                <path d="M3.08578286,0.992027273 C2.52635429,0.803345455 1.28712571,0.420095455 0.840211429,0.565345455 C0.840211429,0.565345455 2.22998286,1.06155 3.00988286,1.11182273 C2.63635429,1.35045909 1.32515429,1.99875455 -3.14285714e-05,0.380640909 C0.00704,0.345959091 1.92905429,-0.764018182 3.08578286,0.992027273" id="Fill-3" fill="#FFFFFF" mask="url(#mask-8)"></path>
                            </g>
                            <g transform="translate(1.257143, 0.071591)">
                                <mask id="mask-10" fill="white">
                                    <use xlink:href="#path-9"></use>
                                </mask>
                                <g id="Clip-6"></g>
                                <path d="M1.54381857,2.96077727 C1.36011857,2.39361818 0.925618571,1.15748182 0.544232857,0.880822727 C0.544232857,0.880822727 0.978732857,2.30643636 1.40349,2.97064091 C0.991618571,2.80900455 -0.304024286,2.12920909 0.190032857,0.0875954545 C0.221618571,0.0729590909 2.24750429,0.97405 1.54381857,2.96077727" id="Fill-5" fill="#FFFFFF" mask="url(#mask-10)"></path>
                            </g>
                        </g>
                        <path d="M11.2871764,26.6 C11.5876428,26.6 11.9,26.1862972 11.9,25.9 C11.9,25.6137028 11.3445089,25.2 11.0440425,25.2 C10.7435761,25.2 10.5,25.4320897 10.5,25.7183869 C10.5,26.004684 10.98671,26.6 11.2871764,26.6 Z" id="椭圆形" fill="#FFE796"></path>
                        <path d="M14.5410766,33.9534804 C16.0548761,32.9110092 15.1069149,33.7223253 15.1069149,33.437181 C15.1069149,33.1520368 14.8535805,32.9208817 14.5410766,32.9208817 C14.2285727,32.9208817 13.3234217,32.810839 13.3234217,33.0959833 C13.3234217,33.3811275 13.0272771,34.9959516 14.5410766,33.9534804 Z" id="椭圆形-copy-8" fill-opacity="0.91" fill="#FFE796"></path>
                        <path d="M43.1109148,38.5 C43.408625,38.5 43.3999739,37.9210594 43.3999739,37.6289361 C43.3999739,37.3368127 43.122556,37.1 42.8248458,37.1 C42.5271356,37.1 42,37.5078767 42,37.8 C42,38.0921233 42.8132046,38.5 43.1109148,38.5 Z" id="椭圆形-copy-9" fill="#FFE796"></path>
                        <path d="M46.7978484,28 C47.1280309,28 47.6,27.7691324 47.6,27.4843427 C47.6,27.199553 47.2989016,26.6 46.968719,26.6 C46.6385365,26.6 46.2,27.199553 46.2,27.4843427 C46.2,27.7691324 46.4676658,28 46.7978484,28 Z" id="椭圆形-copy-10" fill="#FFE796"></path>
                        <path d="M41.8705362,21.7 C42.1856346,21.7 42.6952659,21.4230156 42.6952659,21.081338 C42.6952659,20.7396604 42.7561708,19.6 42.4410723,19.6 C42.1259739,19.6 41.3,20.7396604 41.3,21.081338 C41.3,21.4230156 41.5554377,21.7 41.8705362,21.7 Z" id="椭圆形-copy-11" fill-opacity="0.8" fill="#FFE796"></path>
                        <path d="M1.46423885,33.6375974 L25.2206854,57.3940439 C27.6520424,55.3790863 31.1813603,55.3615997 33.6317743,57.3415842 L57.3357611,33.6375974 C55.3031638,31.1849555 55.3031638,27.6150445 57.3357611,25.1624026 L33.6958802,1.52252164 C31.2220284,3.57269634 27.6115004,3.55496694 25.157308,1.46933345 L1.46423885,25.1624026 C3.49683616,27.6150445 3.49683616,31.1849555 1.46423885,33.6375974 Z" id="线框" stroke="#F0270F" stroke-width="2.1"></path>
                        <text id="贺" font-family="PingFangSC-Medium, PingFang SC" font-size="24.5" font-weight="400" line-spacing="23.1" letter-spacing="1.225" fill="#FFF163">
                            <tspan x="16.1" y="39.2">贺</tspan>
                        </text>
                        <g id="路径-2-copy">
                            <use fill="#FFFFFF" fill-rule="evenodd" xlink:href="#path-11"></use>
                            <use fill="black" fill-opacity="1" filter="url(#filter-12)" xlink:href="#path-11"></use>
                        </g>
                        <g id="路径-3-copy-2">
                            <use fill="#FFFFFF" fill-rule="evenodd" xlink:href="#path-13"></use>
                            <use fill="black" fill-opacity="1" filter="url(#filter-14)" xlink:href="#path-13"></use>
                        </g>
                    </g>
                </g>
            </g>
        </g>
    </g>
</svg>