<?xml version="1.0" encoding="UTF-8"?>
<svg width="126px" height="123px" viewBox="0 0 126 123" version="1.1" xmlns="http://www.w3.org/2000/svg" xmlns:xlink="http://www.w3.org/1999/xlink">
    <!-- Generator: Sketch 52.5 (67469) - http://www.bohemiancoding.com/sketch -->
    <title>首页-点击中</title>
    <desc>Created with Sketch.</desc>
    <defs>
        <linearGradient x1="50%" y1="6.35344232%" x2="50%" y2="97.0485264%" id="linearGradient-1">
            <stop stop-color="#FE3A23" offset="0%"></stop>
            <stop stop-color="#FF5950" offset="100%"></stop>
        </linearGradient>
        <path d="M21.4334563,59.5750803 L9.47308807,47.6147121 C8.86287137,47.0044954 8.37184201,46.3202252 8,45.5908297 C9.16007691,43.3152533 9.16007691,40.6004624 8,38.324886 C8.37184201,37.5954905 8.86287137,36.9112203 9.47308807,36.3010036 L36.3431458,9.43094589 C36.9305824,8.84350929 37.5866467,8.36652732 38.2855308,8 C40.6398744,9.31489039 43.5174982,9.34805101 45.8982354,8.09948184 C46.5284605,8.45145974 47.1211895,8.8952811 47.6568542,9.43094589 L74.5269119,36.3010036 C75.1371286,36.9112203 75.628158,37.5954905 76,38.324886 C74.8399231,40.6004624 74.8399231,43.3152533 76,45.5908297 C75.628158,46.3202252 75.1371286,47.0044954 74.5269119,47.6147121 L62.2110061,59.9306179 C61.2825378,59.341284 60.1811245,59 59,59 C55.6862915,59 53,61.6862915 53,65 C53,66.1811245 53.341284,67.2825378 53.9306179,68.2110061 L53.7749926,68.3666314 C53.0636958,65.8467306 50.7475114,64 48,64 C44.6862915,64 42,66.6862915 42,70 C42,72.6523202 43.7209824,74.9026833 46.1071881,75.6953305 C45.9205656,75.8071339 45.7303675,75.9106597 45.5371232,76.0059081 C43.3535266,74.9983875 40.8093216,75.0276094 38.646643,76.0935738 C38.2548696,75.9128079 37.8747044,75.698669 37.5104334,75.4511571 C39.5703588,74.5009199 41,72.4174152 41,70 C41,66.6862915 38.3137085,64 35,64 C32.5285985,64 30.4061881,65.4942083 29.4868848,67.6285088 L29.4249197,67.5665437 C29.7937008,66.7884245 30,65.9183041 30,65 C30,61.6862915 27.3137085,59 24,59 C23.0816959,59 22.2115755,59.2062992 21.4334563,59.5750803 Z M22.1943546,60.3359786 C22.7544223,60.1190026 23.3633139,60 24,60 C26.7614237,60 29,62.2385763 29,65 C29,65.6366861 28.8809974,66.2455777 28.6640214,66.8056454 L27.870771,66.012395 C27.9551078,65.6890468 28,65.349766 28,65 C28,62.790861 26.209139,61 24,61 C23.650234,61 23.3109532,61.0448922 22.987605,61.129229 L22.1943546,60.3359786 Z M23.8615156,62.0031396 C23.9074158,62.0010541 23.9535848,62 24,62 C25.6568542,62 27,63.3431458 27,65 C27,65.0464152 26.9989459,65.0925842 26.9968604,65.1384844 L23.8615156,62.0031396 Z M61.4826838,60.6589403 L60.7429395,61.3986845 C60.2161165,61.1432449 59.6247866,61 59,61 C56.790861,61 55,62.790861 55,65 C55,65.6247866 55.1432449,66.2161165 55.3986845,66.7429395 L54.6589403,67.4826838 C54.2396835,66.751177 54,65.903579 54,65 C54,62.2385763 56.2385763,60 59,60 C59.903579,60 60.751177,60.2396835 61.4826838,60.6589403 Z M59.9784443,62.1631797 L59.137005,63.004619 C59.0917333,63.0015562 59.0460484,63 59,63 C57.8954305,63 57,63.8954305 57,65 C57,65.0460484 57.0015562,65.0917333 57.004619,65.137005 L56.1631797,65.9784443 C56.0574269,65.6717763 56,65.3425945 56,65 C56,63.3431458 57.3431458,62 59,62 C59.3425945,62 59.6717763,62.0574269 59.9784443,62.1631797 Z M47.1720353,74.9317656 C44.8046333,74.5372482 43,72.4793714 43,70 C43,67.2385763 45.2385763,65 48,65 C50.4907101,65 52.5560615,66.8211769 52.9370738,69.2045502 L51.9974501,70.1441739 C51.9991453,70.0963256 52,70.0482626 52,70 C52,67.790861 50.209139,66 48,66 C45.790861,66 44,67.790861 44,70 C44,72.209139 45.790861,74 48,74 C48.0482626,74 48.0963256,73.9991453 48.1441747,73.9974501 L47.6568542,74.4847698 C47.4999784,74.6416456 47.3382082,74.7906443 47.1720353,74.9317656 Z M49.6094296,72.5321944 C49.1443755,72.828394 48.5922281,73 48,73 C46.3431458,73 45,71.6568542 45,70 C45,68.3431458 46.3431458,67 48,67 C49.6568542,67 51,68.3431458 51,70 C51,70.5922281 50.828394,71.1443755 50.5321944,71.6094296 L49.6094296,72.5321944 Z M36.6062768,74.7363987 C36.5171412,74.654904 36.4294036,74.5710276 36.3431458,74.4847698 L35.7819767,73.9236007 C37.6167411,73.5599802 39,71.9415288 39,70 C39,67.790861 37.209139,66 35,66 C33.0584712,66 31.4400198,67.3832589 31.0763993,69.2180233 L30.2606956,68.4023197 C30.9272329,66.424381 32.7972754,65 35,65 C37.7614237,65 40,67.2385763 40,70 C40,72.1995321 38.5797447,74.0673459 36.6062768,74.7363987 Z M34.8549327,72.9965567 L32.0034433,70.1450673 C32.0011573,70.097001 32,70.0486357 32,70 C32,68.3431458 33.3431458,67 35,67 C36.6568542,67 38,68.3431458 38,70 C38,71.6568542 36.6568542,73 35,73 C34.9513643,73 34.902999,72.9988427 34.85493,72.996554 Z M35,71 C34.4477153,71 34,70.5522847 34,70 C34,69.4477153 34.4477153,69 35,69 C35.5522847,69 36,69.4477153 36,70 C36,70.5522847 35.5522847,71 35,71 Z M35,72 C36.1045695,72 37,71.1045695 37,70 C37,68.8954305 36.1045695,68 35,68 C33.8954305,68 33,68.8954305 33,70 C33,71.1045695 33.8954305,72 35,72 Z M48,71 C47.4477153,71 47,70.5522847 47,70 C47,69.4477153 47.4477153,69 48,69 C48.5522847,69 49,69.4477153 49,70 C49,70.5522847 48.5522847,71 48,71 Z M48,72 C49.1045695,72 50,71.1045695 50,70 C50,68.8954305 49.1045695,68 48,68 C46.8954305,68 46,68.8954305 46,70 C46,71.1045695 46.8954305,72 48,72 Z" id="path-2"></path>
        <filter x="-52.9%" y="-52.9%" width="205.9%" height="205.7%" filterUnits="objectBoundingBox" id="filter-3">
            <feGaussianBlur stdDeviation="12" in="SourceGraphic"></feGaussianBlur>
        </filter>
        <filter x="-58.1%" y="-58.0%" width="216.2%" height="216.0%" filterUnits="objectBoundingBox" id="filter-4">
            <feGaussianBlur stdDeviation="1.5" in="SourceAlpha" result="shadowBlurInner1"></feGaussianBlur>
            <feOffset dx="0" dy="-4" in="shadowBlurInner1" result="shadowOffsetInner1"></feOffset>
            <feComposite in="shadowOffsetInner1" in2="SourceAlpha" operator="arithmetic" k2="-1" k3="1" result="shadowInnerInner1"></feComposite>
            <feColorMatrix values="0 0 0 0 0.878431373   0 0 0 0 0.168627451   0 0 0 0 0.0823529412  0 0 0 0.723307292 0" type="matrix" in="shadowInnerInner1"></feColorMatrix>
        </filter>
        <path d="M21.4334563,59.5750803 L9.47308807,47.6147121 C8.86287137,47.0044954 8.37184201,46.3202252 8,45.5908297 C9.16007691,43.3152533 9.16007691,40.6004624 8,38.324886 C8.37184201,37.5954905 8.86287137,36.9112203 9.47308807,36.3010036 L36.3431458,9.43094589 C36.9305824,8.84350929 37.5866467,8.36652732 38.2855308,8 C40.6398744,9.31489039 43.5174982,9.34805101 45.8982354,8.09948184 C46.5284605,8.45145974 47.1211895,8.8952811 47.6568542,9.43094589 L74.5269119,36.3010036 C75.1371286,36.9112203 75.628158,37.5954905 76,38.324886 C74.8399231,40.6004624 74.8399231,43.3152533 76,45.5908297 C75.628158,46.3202252 75.1371286,47.0044954 74.5269119,47.6147121 L62.2110061,59.9306179 C61.2825378,59.341284 60.1811245,59 59,59 C55.6862915,59 53,61.6862915 53,65 C53,66.1811245 53.341284,67.2825378 53.9306179,68.2110061 L53.7749926,68.3666314 C53.0636958,65.8467306 50.7475114,64 48,64 C44.6862915,64 42,66.6862915 42,70 C42,72.6523202 43.7209824,74.9026833 46.1071881,75.6953305 C45.9205656,75.8071339 45.7303675,75.9106597 45.5371232,76.0059081 C43.3535266,74.9983875 40.8093216,75.0276094 38.646643,76.0935738 C38.2548696,75.9128079 37.8747044,75.698669 37.5104334,75.4511571 C39.5703588,74.5009199 41,72.4174152 41,70 C41,66.6862915 38.3137085,64 35,64 C32.5285985,64 30.4061881,65.4942083 29.4868848,67.6285088 L29.4249197,67.5665437 C29.7937008,66.7884245 30,65.9183041 30,65 C30,61.6862915 27.3137085,59 24,59 C23.0816959,59 22.2115755,59.2062992 21.4334563,59.5750803 Z M22.1943546,60.3359786 C22.7544223,60.1190026 23.3633139,60 24,60 C26.7614237,60 29,62.2385763 29,65 C29,65.6366861 28.8809974,66.2455777 28.6640214,66.8056454 L27.870771,66.012395 C27.9551078,65.6890468 28,65.349766 28,65 C28,62.790861 26.209139,61 24,61 C23.650234,61 23.3109532,61.0448922 22.987605,61.129229 L22.1943546,60.3359786 Z M23.8615156,62.0031396 C23.9074158,62.0010541 23.9535848,62 24,62 C25.6568542,62 27,63.3431458 27,65 C27,65.0464152 26.9989459,65.0925842 26.9968604,65.1384844 L23.8615156,62.0031396 Z M61.4826838,60.6589403 L60.7429395,61.3986845 C60.2161165,61.1432449 59.6247866,61 59,61 C56.790861,61 55,62.790861 55,65 C55,65.6247866 55.1432449,66.2161165 55.3986845,66.7429395 L54.6589403,67.4826838 C54.2396835,66.751177 54,65.903579 54,65 C54,62.2385763 56.2385763,60 59,60 C59.903579,60 60.751177,60.2396835 61.4826838,60.6589403 Z M59.9784443,62.1631797 L59.137005,63.004619 C59.0917333,63.0015562 59.0460484,63 59,63 C57.8954305,63 57,63.8954305 57,65 C57,65.0460484 57.0015562,65.0917333 57.004619,65.137005 L56.1631797,65.9784443 C56.0574269,65.6717763 56,65.3425945 56,65 C56,63.3431458 57.3431458,62 59,62 C59.3425945,62 59.6717763,62.0574269 59.9784443,62.1631797 Z M47.1720353,74.9317656 C44.8046333,74.5372482 43,72.4793714 43,70 C43,67.2385763 45.2385763,65 48,65 C50.4907101,65 52.5560615,66.8211769 52.9370738,69.2045502 L51.9974501,70.1441739 C51.9991453,70.0963256 52,70.0482626 52,70 C52,67.790861 50.209139,66 48,66 C45.790861,66 44,67.790861 44,70 C44,72.209139 45.790861,74 48,74 C48.0482626,74 48.0963256,73.9991453 48.1441747,73.9974501 L47.6568542,74.4847698 C47.4999784,74.6416456 47.3382082,74.7906443 47.1720353,74.9317656 Z M49.6094296,72.5321944 C49.1443755,72.828394 48.5922281,73 48,73 C46.3431458,73 45,71.6568542 45,70 C45,68.3431458 46.3431458,67 48,67 C49.6568542,67 51,68.3431458 51,70 C51,70.5922281 50.828394,71.1443755 50.5321944,71.6094296 L49.6094296,72.5321944 Z M36.6062768,74.7363987 C36.5171412,74.654904 36.4294036,74.5710276 36.3431458,74.4847698 L35.7819767,73.9236007 C37.6167411,73.5599802 39,71.9415288 39,70 C39,67.790861 37.209139,66 35,66 C33.0584712,66 31.4400198,67.3832589 31.0763993,69.2180233 L30.2606956,68.4023197 C30.9272329,66.424381 32.7972754,65 35,65 C37.7614237,65 40,67.2385763 40,70 C40,72.1995321 38.5797447,74.0673459 36.6062768,74.7363987 Z M34.8549327,72.9965567 L32.0034433,70.1450673 C32.0011573,70.097001 32,70.0486357 32,70 C32,68.3431458 33.3431458,67 35,67 C36.6568542,67 38,68.3431458 38,70 C38,71.6568542 36.6568542,73 35,73 C34.9513643,73 34.902999,72.9988427 34.85493,72.996554 Z M35,71 C34.4477153,71 34,70.5522847 34,70 C34,69.4477153 34.4477153,69 35,69 C35.5522847,69 36,69.4477153 36,70 C36,70.5522847 35.5522847,71 35,71 Z M35,72 C36.1045695,72 37,71.1045695 37,70 C37,68.8954305 36.1045695,68 35,68 C33.8954305,68 33,68.8954305 33,70 C33,71.1045695 33.8954305,72 35,72 Z M48,71 C47.4477153,71 47,70.5522847 47,70 C47,69.4477153 47.4477153,69 48,69 C48.5522847,69 49,69.4477153 49,70 C49,70.5522847 48.5522847,71 48,71 Z M48,72 C49.1045695,72 50,71.1045695 50,70 C50,68.8954305 49.1045695,68 48,68 C46.8954305,68 46,68.8954305 46,70 C46,71.1045695 46.8954305,72 48,72 Z" id="path-5"></path>
        <filter x="-5.1%" y="-5.1%" width="110.3%" height="110.3%" filterUnits="objectBoundingBox" id="filter-6">
            <feGaussianBlur stdDeviation="1.5" in="SourceAlpha" result="shadowBlurInner1"></feGaussianBlur>
            <feOffset dx="0" dy="-4" in="shadowBlurInner1" result="shadowOffsetInner1"></feOffset>
            <feComposite in="shadowOffsetInner1" in2="SourceAlpha" operator="arithmetic" k2="-1" k3="1" result="shadowInnerInner1"></feComposite>
            <feColorMatrix values="0 0 0 0 0.878431373   0 0 0 0 0.168627451   0 0 0 0 0.0823529412  0 0 0 0.723307292 0" type="matrix" in="shadowInnerInner1"></feColorMatrix>
        </filter>
        <polygon id="path-7" points="0.222402576 0.205849318 7.18053061 0.205849318 7.18053061 7.27259389 0.222402576 7.27259389"></polygon>
        <polygon id="path-9" points="0 0.00412858445 4.40826122 0.00412858445 4.40826122 2.06123395 0 2.06123395"></polygon>
        <polygon id="path-11" points="0.113323756 0.125 2.41743353 0.125 2.41743353 4.24377273 0.113323756 4.24377273"></polygon>
    </defs>
    <g id="Page-1" stroke="none" stroke-width="1" fill="none" fill-rule="evenodd">
        <g id="首页-抢单" transform="translate(-101.000000, -1186.000000)">
            <g id="分组-3" transform="translate(0.000000, 1186.000000)">
                <g id="首页-点击中" transform="translate(101.000000, 0.000000)">
                    <g id="分组-8" transform="translate(21.000000, 19.000000)">
                        <g id="合并形状" filter="url(#filter-3)">
                            <use fill="url(#linearGradient-1)" fill-rule="evenodd" xlink:href="#path-2"></use>
                            <use fill="black" fill-opacity="1" filter="url(#filter-4)" xlink:href="#path-2"></use>
                        </g>
                        <g id="合并形状">
                            <use fill="url(#linearGradient-1)" fill-rule="evenodd" xlink:href="#path-5"></use>
                            <use fill="black" fill-opacity="1" filter="url(#filter-6)" xlink:href="#path-5"></use>
                        </g>
                        <g id="分组" transform="translate(24.860133, 46.010984) scale(-1, 1) rotate(-59.000000) translate(-24.860133, -46.010984) translate(18.860133, 40.510984)">
                            <g transform="translate(3.816327, 2.602273)">
                                <mask id="mask-8" fill="white">
                                    <use xlink:href="#path-7"></use>
                                </mask>
                                <g id="Clip-2"></g>
                                <path d="M5.10685102,4.69643182 C4.97619796,4.70847727 4.8608102,4.61120455 4.84891224,4.47893182 C4.84666735,4.45506818 4.85160612,4.43302273 4.85609592,4.41052273 L4.16085102,4.02779545 C4.06387143,4.17461364 3.92132041,4.28938636 3.74846327,4.34325 L3.92334082,5.11597727 C3.97968776,5.11756818 4.0358102,5.13665909 4.08003469,5.17915909 C4.17544286,5.27006818 4.17993265,5.42211364 4.08991224,5.51870455 C3.99989184,5.61552273 3.84970816,5.61984091 3.7543,5.52893182 C3.65889184,5.43779545 3.65440204,5.28575 3.74442245,5.18915909 C3.76058571,5.17165909 3.78034082,5.16075 3.79987143,5.14938636 L3.62319796,4.36915909 C3.61174898,4.37052273 3.60119796,4.37461364 3.58952449,4.37575 C3.45168776,4.38847727 3.32036122,4.36052273 3.20272857,4.30688636 L2.82715714,5.00575 C2.86823878,5.04461364 2.89764694,5.09688636 2.90325918,5.15802273 C2.91515714,5.29029545 2.81907551,5.40734091 2.68842245,5.41961364 C2.55799388,5.43143182 2.44238163,5.33415909 2.43048367,5.20211364 C2.41836122,5.06984091 2.51466735,4.95279545 2.64509592,4.94075 C2.66866735,4.93847727 2.69066735,4.94370455 2.71244286,4.94802273 L3.09093265,4.24415909 C2.93693265,4.14029545 2.82087143,3.98325 2.77170816,3.79415909 L2.00013673,3.93847727 C1.99632041,3.99552273 1.9745449,4.05143182 1.93121837,4.09438636 C1.83715714,4.18711364 1.68697347,4.18484091 1.59538163,4.08984091 C1.5037898,3.99461364 1.5058102,3.84256818 1.59964694,3.74984091 C1.69370816,3.65734091 1.84411633,3.65938636 1.93548367,3.75438636 C1.95187143,3.77165909 1.96174898,3.79211364 1.9723,3.81211364 L2.74723878,3.66734091 C2.74723878,3.66688636 2.74701429,3.66643182 2.74701429,3.66597727 C2.73444286,3.52643182 2.76183061,3.39347727 2.81503469,3.27415909 L2.12472857,2.89393182 C2.08634082,2.93575 2.03470816,2.96552273 1.97409592,2.97097727 C1.84366735,2.98325 1.7280551,2.88575 1.71615714,2.75347727 C1.70425918,2.62143182 1.80034082,2.50438636 1.93099388,2.49234091 C2.06142245,2.48029545 2.17703469,2.57756818 2.18893265,2.70984091 C2.19117755,2.73347727 2.18601429,2.75575 2.18174898,2.77825 L2.87699388,3.16097727 C2.97397347,3.01415909 3.11652449,2.89938636 3.28938163,2.84529545 L3.11450408,2.07279545 C3.05815714,2.07120455 3.00203469,2.05188636 2.9578102,2.00961364 C2.86240204,1.91847727 2.85791224,1.76643182 2.94793265,1.67006818 C3.03795306,1.57325 3.18813673,1.56870455 3.2835449,1.65984091 C3.37895306,1.75097727 3.38321837,1.90302273 3.29342245,1.99961364 C3.27725918,2.01711364 3.25750408,2.02802273 3.23797347,2.03938636 L3.41464694,2.81961364 C3.42609592,2.81802273 3.43664694,2.81415909 3.44809592,2.81302273 C3.58615714,2.80006818 3.71725918,2.82802273 3.83511633,2.88188636 L4.21068776,2.18279545 C4.16938163,2.14415909 4.13997347,2.09165909 4.13458571,2.03052273 C4.12246327,1.89825 4.21876939,1.78143182 4.34919796,1.76915909 C4.47985102,1.75711364 4.59546327,1.85438636 4.60736122,1.98665909 C4.61925918,2.11893182 4.52317755,2.23597727 4.39252449,2.24802273 C4.36917755,2.25006818 4.34717755,2.24506818 4.32517755,2.24052273 L3.94691224,2.94461364 C4.10091224,3.04847727 4.21697347,3.20529545 4.26613673,3.39438636 L5.03770816,3.25029545 C5.04152449,3.19325 5.0633,3.13734091 5.10662653,3.09438636 C5.20068776,3.00165909 5.35087143,3.00393182 5.44246327,3.09893182 C5.53383061,3.19415909 5.53203469,3.34620455 5.43797347,3.43870455 C5.34413673,3.53143182 5.19372857,3.52938636 5.10213673,3.43415909 C5.08574898,3.41711364 5.07587143,3.39665909 5.0655449,3.37643182 L4.29038163,3.52143182 C4.29038163,3.52188636 4.29060612,3.52234091 4.29060612,3.52279545 C4.30317755,3.66234091 4.2757898,3.79506818 4.2228102,3.91461364 L4.91311633,4.29461364 C4.95150408,4.25302273 5.00313673,4.22325 5.06352449,4.21779545 C5.19417755,4.20552273 5.30956531,4.30302273 5.32168776,4.43506818 C5.33358571,4.56734091 5.23750408,4.68415909 5.10685102,4.69643182 M7.17552449,4.00075 C7.23927959,3.20029545 6.68927959,2.49984091 5.92623878,2.35506818 C6.22458571,1.62938636 5.94711633,0.779840909 5.25052449,0.395068182 C4.52452449,-0.00561363636 3.62342245,0.251659091 3.2020551,0.962795455 C3.17983061,0.93575 3.15827959,0.906659091 3.1338102,0.883931818 C2.51309592,0.298477273 1.5410551,0.333704545 0.962769388,0.962113636 C0.384483673,1.59075 0.419279592,2.57506818 1.04021837,3.16029545 C1.04785102,3.16734091 1.05795306,3.17325 1.06603469,3.18006818 C1.05660612,3.18484091 1.04515714,3.18734091 1.03595306,3.19234091 C0.287504082,3.59643182 0.00419795918,4.53870455 0.403340816,5.29665909 C0.793728571,6.03779545 1.69146327,6.32370455 2.43138163,5.95802273 C2.55911633,6.78143182 3.30509592,7.36211364 4.12897347,7.26120455 C4.97125918,7.15825 5.57132041,6.38325 5.46940204,5.53052273 C5.46468776,5.49165909 5.45346327,5.45120455 5.44246327,5.41143182 C5.46850408,5.41620455 5.49521837,5.42393182 5.5208102,5.42597727 C6.36646327,5.49529545 7.10727959,4.85711364 7.17552449,4.00075" id="Fill-1" fill="#FFFFFF" mask="url(#mask-8)"></path>
                            </g>
                            <g transform="translate(0.000000, 4.193182)">
                                <mask id="mask-10" fill="white">
                                    <use xlink:href="#path-9"></use>
                                </mask>
                                <g id="Clip-4"></g>
                                <path d="M4.40826122,1.41718182 C3.60907755,1.14763636 1.83875102,0.600136364 1.20030204,0.807636364 C1.20030204,0.807636364 3.1856898,1.5165 4.29983265,1.58831818 C3.76622041,1.92922727 1.89307755,2.85536364 -4.48979592e-05,0.543772727 C0.0100571429,0.494227273 2.75579184,-1.09145455 4.40826122,1.41718182" id="Fill-3" fill="#FFFFFF" mask="url(#mask-10)"></path>
                            </g>
                            <g transform="translate(1.795918, 0.102273)">
                                <mask id="mask-12" fill="white">
                                    <use xlink:href="#path-11"></use>
                                </mask>
                                <g id="Clip-6"></g>
                                <path d="M2.2054551,4.22968182 C1.94302653,3.41945455 1.32231224,1.65354545 0.77747551,1.25831818 C0.77747551,1.25831818 1.3981898,3.29490909 2.00498571,4.24377273 C1.41659796,4.01286364 -0.434320408,3.04172727 0.27147551,0.125136364 C0.316597959,0.104227273 3.21072041,1.3915 2.2054551,4.22968182" id="Fill-5" fill="#FFFFFF" mask="url(#mask-12)"></path>
                            </g>
                        </g>
                        <path d="M16.1245377,38 C16.5537754,38 17,37.4089959 17,37 C17,36.5910041 16.2064412,36 15.7772036,36 C15.3479659,36 15,36.3315567 15,36.7405527 C15,37.1495486 15.6953001,38 16.1245377,38 Z" id="椭圆形" fill="#FFE796"></path>
                        <path d="M20.7729666,48.504972 C22.9355372,47.0157274 21.581307,48.1747504 21.581307,47.7674015 C21.581307,47.3600526 21.2194007,47.029831 20.7729666,47.029831 C20.3265325,47.029831 19.0334595,46.8726272 19.0334595,47.2799761 C19.0334595,47.687325 18.6103959,49.9942165 20.7729666,48.504972 Z" id="椭圆形-copy-8" fill-opacity="0.91" fill="#FFE796"></path>
                        <path d="M61.5870211,55 C62.0123214,55 61.9999627,54.172942 61.9999627,53.7556229 C61.9999627,53.3383039 61.6036515,53 61.1783512,53 C60.7530509,53 60,53.582681 60,54 C60,54.417319 61.1617209,55 61.5870211,55 Z" id="椭圆形-copy-9" fill="#FFE796"></path>
                        <path d="M66.8540691,40 C67.3257584,40 68,39.6701891 68,39.2633467 C68,38.8565043 67.5698594,38 67.09817,38 C66.6264807,38 66,38.8565043 66,39.2633467 C66,39.6701891 66.3823798,40 66.8540691,40 Z" id="椭圆形-copy-10" fill="#FFE796"></path>
                        <path d="M59.8150517,31 C60.2651923,31 60.993237,30.604308 60.993237,30.1161971 C60.993237,29.6280862 61.080244,28 60.6301033,28 C60.1799627,28 59,29.6280862 59,30.1161971 C59,30.604308 59.3649111,31 59.8150517,31 Z" id="椭圆形-copy-11" fill-opacity="0.8" fill="#FFE796"></path>
                        <path d="M2.09176979,48.0537106 L36.0295506,81.9914913 C39.5029177,79.1129804 44.5448004,79.0879996 48.0453919,81.9165489 L81.9082302,48.0537106 C79.0045198,44.5499364 79.0045198,39.4500636 81.9082302,35.9462894 L48.1369717,2.17503091 C44.6028977,5.10385191 39.4450006,5.0785242 35.9390114,2.09904779 L2.09176979,35.9462894 C4.99548023,39.4500636 4.99548023,44.5499364 2.09176979,48.0537106 Z" id="线框" stroke="#F0270F" stroke-width="3"></path>
                        <text id="贺" font-family="PingFangSC-Medium, PingFang SC" font-size="35" font-weight="400" line-spacing="33" letter-spacing="1.75" fill="#FFF163">
                            <tspan x="23" y="57">贺</tspan>
                        </text>
                    </g>
                </g>
            </g>
        </g>
    </g>
</svg>