<?xml version="1.0" encoding="UTF-8"?>
<svg width="18px" height="20px" viewBox="0 0 18 20" version="1.1" xmlns="http://www.w3.org/2000/svg" xmlns:xlink="http://www.w3.org/1999/xlink">
    <!-- Generator: Sketch 51 (57462) - http://www.bohemiancoding.com/sketch -->
    <title>抢单</title>
    <desc>Created with Sketch.</desc>
    <defs></defs>
    <g id="Page-1" stroke="none" stroke-width="1" fill="none" fill-rule="evenodd">
        <g id="客户" transform="translate(-65.000000, -662.000000)">
            <g id="Group-3" transform="translate(63.000000, 661.000000)" fill="#999999" fill-rule="nonzero">
                <g id="抢单" transform="translate(2.000000, 1.000000)">
                    <path d="M15.2036932,17.0325229 C15.0937472,16.8471555 14.8785329,16.7582316 14.6740947,16.7957434 C16.6489469,15.2044368 17.9091286,12.7879789 17.9091286,10.0821906 C17.9091286,6.97932764 16.2467808,4.26430105 13.7547891,2.7305727 L13.7547891,3.96770891 C15.6435425,5.36486092 16.8705437,7.57996702 16.8705437,10.0821906 C16.8705437,14.3105569 13.3830931,17.7383714 9.08123381,17.7383714 C4.7793089,17.7383714 1.29185834,14.3105354 1.29185834,10.0821906 C1.29185834,7.57996702 2.51883765,5.36486092 4.40759104,3.96770891 L4.40759104,2.73055122 C1.91564313,4.26427956 0.253317201,6.97930616 0.253317201,10.0821691 C0.253317201,12.7491781 1.47762983,15.1350852 3.40386976,16.7267784 C3.2245901,16.7268214 3.05025036,16.8180227 2.95424984,16.9816908 L1.91566499,18.7502007 C1.77214509,18.9944139 1.85736959,19.3064748 2.10556766,19.4470472 L2.5553843,19.7022389 C2.80360422,19.8433055 3.12131086,19.7600535 3.26456846,19.5158403 L4.30315332,17.7473304 C4.36148041,17.64834 4.38412228,17.5329021 4.36741596,17.4196933 C5.73129219,18.2679619 7.3478911,18.7591597 9.08125567,18.7591597 C10.8361941,18.7591597 12.4715254,18.2557587 13.8460028,17.3879179 C13.8098277,17.511045 13.8229425,17.6476428 13.894003,17.7672464 L14.9021615,19.4649652 C15.0414191,19.6997253 15.349683,19.779991 15.5908646,19.6444029 L16.0275009,19.3997171 C16.2685951,19.2646017 16.3512841,18.9645076 16.2120702,18.7302632 L15.2036932,17.0325229 Z M4.64853223,1.77900714 C4.07495536,0.802047019 2.80463155,0.468072021 1.81116169,1.03132854 C0.817735554,1.59557333 0.477187264,2.84368807 1.05100458,3.82066967 L4.64853223,1.77900714 Z M16.5807716,0.985459342 C15.5910832,0.384347314 14.3261365,0.740730541 13.754811,1.78149933 L17.3378468,3.957246 C17.9091504,2.91643424 17.5701322,1.5861202 16.5807716,0.985459342 Z M6.69247772,15.186261 L13.754811,5.60860144 L10.2237755,5.60860144 L12.8719428,0.384347314 L7.57534588,0.384347314 L4.92693811,8.22095409 L9.34088549,8.22095409 L6.69247772,15.186261 Z" id="Shape"></path>
                </g>
            </g>
        </g>
    </g>
</svg>