<?xml version="1.0" encoding="UTF-8"?>
<svg width="31px" height="31px" viewBox="0 0 31 31" version="1.1" xmlns="http://www.w3.org/2000/svg" xmlns:xlink="http://www.w3.org/1999/xlink">
    <!-- Generator: Sketch 51 (57462) - http://www.bohemiancoding.com/sketch -->
    <title>其他</title>
    <desc>Created with Sketch.</desc>
    <defs></defs>
    <g id="Page-1" stroke="none" stroke-width="1" fill="none" fill-rule="evenodd">
        <g id="常见问题" transform="translate(-291.000000, -174.000000)">
            <g id="其他" transform="translate(291.000000, 174.000000)" fill="#1F7CF0" fill-rule="nonzero">
                <g id="Shape">
                    <path d="M22.2728635,13.8174307 C21.6699785,13.4687425 20.9270567,13.4687425 20.3243259,13.8174307 C19.7215952,14.1661189 19.3501343,14.8105194 19.3501343,15.5078989 C19.3501343,16.2052753 19.7214379,16.8496758 20.3243259,17.1982098 C20.927211,17.546898 21.6701328,17.546898 22.2728635,17.1982098 C22.8759059,16.8496758 23.2470552,16.2052753 23.2470552,15.5078989 C23.2470552,14.8105225 22.8759059,14.166122 22.2728635,13.8174307 Z M30.1856728,10.8223625 C29.8549528,9.78140787 29.4235453,8.78398063 28.8792121,7.8373631 C28.5111609,7.19730112 27.6584146,7.14354763 27.2442007,7.73450686 C26.9852013,8.10364422 27.0264058,8.47912902 27.2381595,8.86483989 C29.0417076,12.1491065 29.4797742,15.6133885 28.452298,19.2142704 C26.3728665,26.5031071 18.8107665,30.6249745 11.5576909,28.4669989 C6.24309312,26.8860496 2.3804175,22.0824746 1.97052709,16.5355209 C1.802921,14.2671066 2.17949254,12.0908663 3.08661016,10.0030512 C5.58412802,4.25532748 11.9579482,0.939142162 18.0859733,2.20284993 C19.4948249,2.49329486 20.8276192,2.98341162 22.0795609,3.69302608 C22.293948,3.81431589 22.5154613,3.89548556 22.7659398,3.85675957 C23.1868127,3.791545 23.5142802,3.48452413 23.5897203,3.08735278 C23.6725939,2.65191834 23.4777247,2.25613871 23.053444,2.02068468 C19.5819009,0.0918217026 15.8976674,-0.470637019 12.0264599,0.395742074 C5.00389467,1.96739711 0.00173701005,8.26501483 1.24932434e-05,15.4798183 C-0.000142410723,16.6340072 0.121612107,17.7753408 0.37580891,18.9005638 C2.34262336,27.6084963 11.253002,32.8609812 19.8007663,30.3535338 C25.8404779,28.581741 30.2035055,23.3188666 30.8375226,17.0200236 C31.049741,14.9120892 30.8277636,12.8435162 30.1856855,10.822322 L30.1856728,10.8223625 Z M14.4807402,13.8174307 C13.8778552,14.1661189 13.5063943,14.8105194 13.5063943,15.5078989 C13.5063943,16.5858762 14.3788122,17.4598432 15.4549319,17.4598432 C16.5310485,17.4598432 17.4034695,16.5858762 17.4034695,15.5078989 C17.4034695,14.8105225 17.0321659,14.166122 16.4291235,13.8174307 C15.8263928,13.4687425 15.0836283,13.4687425 14.4807402,13.8174307 Z M8.64101196,13.8174307 C8.03812694,14.1661189 7.66666602,14.8105194 7.66666602,15.5078989 C7.66666602,16.2052753 8.03796961,16.8496758 8.64101196,17.1982098 C9.24389699,17.546898 9.98666151,17.546898 10.5895496,17.1982098 C11.1924346,16.8496758 11.5637412,16.2052753 11.5637412,15.5078989 C11.5637412,14.8105225 11.1924376,14.166122 10.5895496,13.8174307 C9.98666453,13.4687425 9.24374269,13.4687425 8.64101196,13.8174307 Z"></path>
                </g>
            </g>
        </g>
    </g>
</svg>