<?xml version="1.0" encoding="UTF-8"?>
<svg width="59px" height="59px" viewBox="0 0 59 59" version="1.1" xmlns="http://www.w3.org/2000/svg" xmlns:xlink="http://www.w3.org/1999/xlink">
    <!-- Generator: Sketch 52.5 (67469) - http://www.bohemiancoding.com/sketch -->
    <title>我的-未点击</title>
    <desc>Created with Sketch.</desc>
    <defs>
        <linearGradient x1="50%" y1="6.35344232%" x2="50%" y2="97.0485264%" id="linearGradient-1">
            <stop stop-color="#FE3A23" offset="0%"></stop>
            <stop stop-color="#FF5950" offset="100%"></stop>
        </linearGradient>
        <path d="M9.4034194,36.1025562 L1.03116165,27.7302985 C0.604009958,27.3031468 0.26028941,26.8241576 6.15868467e-13,26.3135808 C0.812053839,24.7206773 0.812053839,22.8203237 6.1817218e-13,21.2274202 C0.26028941,20.7168433 0.604009958,20.2378542 1.03116165,19.8107025 L19.840202,1.00166213 C20.2514076,0.590456501 20.7106527,0.256569126 21.1998716,3.95128374e-13 C22.8479121,0.920423275 24.8622488,0.943635704 26.5287647,0.0696372876 C26.9699223,0.316021821 27.3848326,0.626696767 27.759798,1.00166213 L46.5688384,19.8107025 C46.99599,20.2378542 47.3397106,20.7168433 47.6,21.2274202 C46.7879462,22.8203237 46.7879462,24.7206773 47.6,26.3135808 C47.3397106,26.8241576 46.99599,27.3031468 46.5688384,27.7302985 L37.9477043,36.3514326 C37.2977765,35.9388988 36.5267871,35.7 35.7,35.7 C33.3804041,35.7 31.5,37.5804041 31.5,39.9 C31.5,40.7267871 31.7388988,41.4977765 32.1514326,42.1477043 L32.0424948,42.256642 C31.5445871,40.4927115 29.923258,39.2 28,39.2 C25.6804041,39.2 23.8,41.0804041 23.8,43.4 C23.8,45.2566241 25.0046877,46.8318783 26.6750317,47.3867314 C26.5443959,47.4649937 26.4112573,47.5374618 26.2759862,47.6041357 C24.7474686,46.8988713 22.9665251,46.9193266 21.4526501,47.6655016 C21.1784087,47.5389655 20.9122931,47.3890683 20.6573034,47.2158099 C22.0992512,46.5506439 23.1,45.0921907 23.1,43.4 C23.1,41.0804041 21.2195959,39.2 18.9,39.2 C17.170019,39.2 15.6843317,40.2459458 15.0408193,41.7399561 L14.9974438,41.6965806 C15.2555905,41.1518972 15.4,40.5428129 15.4,39.9 C15.4,37.5804041 13.5195959,35.7 11.2,35.7 C10.5571871,35.7 9.94810285,35.8444095 9.4034194,36.1025562 Z M9.93604819,36.635185 C10.3280956,36.4833018 10.7543197,36.4 11.2,36.4 C13.1329966,36.4 14.7,37.9670034 14.7,39.9 C14.7,40.3456803 14.6166982,40.7719044 14.464815,41.1639518 L13.9095397,40.6086765 C13.9685755,40.3823328 14,40.1448362 14,39.9 C14,38.3536027 12.7463973,37.1 11.2,37.1 C10.9551638,37.1 10.7176672,37.1314245 10.4913235,37.1904603 L9.93604819,36.635185 Z M11.1030609,37.8021977 C11.1351911,37.8007379 11.1675094,37.8 11.2,37.8 C12.359798,37.8 13.3,38.740202 13.3,39.9 C13.3,39.9324906 13.2992621,39.9648089 13.2978023,39.9969391 L11.1030609,37.8021977 Z M37.4378786,36.8612582 L36.9200577,37.3790791 C36.5512815,37.2002714 36.1373506,37.1 35.7,37.1 C34.1536027,37.1 32.9,38.3536027 32.9,39.9 C32.9,40.3373506 33.0002714,40.7512815 33.1790791,41.1200577 L32.6612582,41.6378786 C32.3677784,41.1258239 32.2,40.5325053 32.2,39.9 C32.2,37.9670034 33.7670034,36.4 35.7,36.4 C36.3325053,36.4 36.9258239,36.5677784 37.4378786,36.8612582 Z M36.384911,37.9142258 L35.7959035,38.5032333 C35.7642133,38.5010894 35.7322339,38.5 35.7,38.5 C34.9268014,38.5 34.3,39.1268014 34.3,39.9 C34.3,39.9322339 34.3010894,39.9642133 34.3032333,39.9959035 L33.7142258,40.584911 C33.6401988,40.3702434 33.6,40.1398162 33.6,39.9 C33.6,38.740202 34.540202,37.8 35.7,37.8 C35.9398162,37.8 36.1702434,37.8401988 36.384911,37.9142258 Z M27.4204247,46.8522359 C25.7632433,46.5760737 24.5,45.13556 24.5,43.4 C24.5,41.4670034 26.0670034,39.9 28,39.9 C29.743497,39.9 31.189243,41.1748238 31.4559516,42.8431852 L30.7982151,43.5009217 C30.7994017,43.467428 30.8,43.4337838 30.8,43.4 C30.8,41.8536027 29.5463973,40.6 28,40.6 C26.4536027,40.6 25.2,41.8536027 25.2,43.4 C25.2,44.9463973 26.4536027,46.2 28,46.2 C28.0337838,46.2 28.067428,46.1994017 28.1009223,46.198215 L27.759798,46.5393388 C27.6499849,46.6491519 27.5367458,46.753451 27.4204247,46.8522359 Z M29.1266007,45.1725361 C28.8010629,45.3798758 28.4145597,45.5 28,45.5 C26.840202,45.5 25.9,44.559798 25.9,43.4 C25.9,42.240202 26.840202,41.3 28,41.3 C29.159798,41.3 30.1,42.240202 30.1,43.4 C30.1,43.8145597 29.9798758,44.2010629 29.7725361,44.5266007 L29.1266007,45.1725361 Z M20.0243937,46.7154791 C19.9619988,46.6584328 19.9005825,46.5997193 19.840202,46.5393388 L19.4473837,46.1465205 C20.7317188,45.8919862 21.7,44.7590702 21.7,43.4 C21.7,41.8536027 20.4463973,40.6 18.9,40.6 C17.5409298,40.6 16.4080138,41.5682812 16.1534795,42.8526163 L15.582487,42.2816238 C16.049063,40.8970667 17.3580928,39.9 18.9,39.9 C20.8329966,39.9 22.4,41.4670034 22.4,43.4 C22.4,44.9396725 21.4058213,46.2471421 20.0243937,46.7154791 Z M18.7984529,45.4975897 L16.8024103,43.5015471 C16.8008101,43.4679007 16.8,43.434045 16.8,43.4 C16.8,42.240202 17.740202,41.3 18.9,41.3 C20.059798,41.3 21,42.240202 21,43.4 C21,44.559798 20.059798,45.5 18.9,45.5 C18.865955,45.5 18.8320993,45.4991899 18.798451,45.4975878 Z M18.9,44.1 C18.5134007,44.1 18.2,43.7865993 18.2,43.4 C18.2,43.0134007 18.5134007,42.7 18.9,42.7 C19.2865993,42.7 19.6,43.0134007 19.6,43.4 C19.6,43.7865993 19.2865993,44.1 18.9,44.1 Z M18.9,44.8 C19.6731986,44.8 20.3,44.1731986 20.3,43.4 C20.3,42.6268014 19.6731986,42 18.9,42 C18.1268014,42 17.5,42.6268014 17.5,43.4 C17.5,44.1731986 18.1268014,44.8 18.9,44.8 Z M28,44.1 C27.6134007,44.1 27.3,43.7865993 27.3,43.4 C27.3,43.0134007 27.6134007,42.7 28,42.7 C28.3865993,42.7 28.7,43.0134007 28.7,43.4 C28.7,43.7865993 28.3865993,44.1 28,44.1 Z M28,44.8 C28.7731986,44.8 29.4,44.1731986 29.4,43.4 C29.4,42.6268014 28.7731986,42 28,42 C27.2268014,42 26.6,42.6268014 26.6,43.4 C26.6,44.1731986 27.2268014,44.8 28,44.8 Z" id="path-2"></path>
        <polygon id="path-4" points="0 0.0179255556 1.56617561 0.0179255556 1.56617561 3.45165889 0 3.45165889"></polygon>
        <polygon id="path-6" points="0.12103 0.116003333 0.26103 0.116003333 0.26103 1.73333333 0.12103 1.73333333"></polygon>
        <polygon id="path-8" points="0.12103 0.0609555556 0.26103 0.0609555556 0.26103 1.67827111 0.12103 1.67827111"></polygon>
        <path d="M33.4099399,33.2883228 C33.8265125,32.943147 34.310893,32.8280884 34.8630816,32.943147 C35.6913644,33.1157349 35.606137,32.9038459 36.4503969,32.943147 C37.2946569,32.982448 37.5822915,33.0159654 38.107155,33.0941614 C38.6141496,33.230808 38.7205205,32.7442796 39.0326922,33.3278661 C39.3901253,33.8662429 39.485817,34.1249395 39.2019846,34.3114509 C38.2844205,34.9809935 36.7247255,34.3081283 35.6690702,34.3114509 C34.6134148,34.3147734 34.6222183,35.1290382 34.2344836,35.1159062 C33.7726626,35.100265 33.4635241,34.252494 33.2146808,34.2158213 C32.1144275,33.9156212 32.1795139,33.606455 33.4099399,33.2883228 Z" id="path-10"></path>
        <filter x="0.0%" y="-0.0%" width="100.0%" height="100.0%" filterUnits="objectBoundingBox" id="filter-11">
            <feOffset dx="0" dy="0" in="SourceAlpha" result="shadowOffsetInner1"></feOffset>
            <feComposite in="shadowOffsetInner1" in2="SourceAlpha" operator="arithmetic" k2="-1" k3="1" result="shadowInnerInner1"></feComposite>
            <feColorMatrix values="0 0 0 0 0.714817177   0 0 0 0 0.714506926   0 0 0 0 0.714506926  0 0 0 0.5 0" type="matrix" in="shadowInnerInner1"></feColorMatrix>
        </filter>
        <path d="M31.133073,25.5973213 C31.5523817,25.2441468 32.0399438,25.126422 32.5957593,25.2441468 C33.4294825,25.420734 33.7078773,25.2441468 34.1935005,25.2441468 C34.6791238,25.2441468 35.8611407,25.2 35.8611407,25.3986606 C35.8611407,25.531101 36.2551464,25.5973213 37.0431577,25.5973213 L37.4679722,26.0885303 L37.4679722,26.5463124 C35.5835817,26.7847246 34.1526947,26.9971328 33.1753112,27.1835371 C31.709236,27.4631435 31.0989549,27.2374014 30.950918,26.9846124 C30.430958,26.8142777 30.4916763,26.3518473 31.133073,25.5973213 Z" id="path-12"></path>
        <filter x="-7.3%" y="-23.7%" width="114.6%" height="147.3%" filterUnits="objectBoundingBox" id="filter-13">
            <feGaussianBlur stdDeviation="0.5" in="SourceAlpha" result="shadowBlurInner1"></feGaussianBlur>
            <feOffset dx="0" dy="0" in="shadowBlurInner1" result="shadowOffsetInner1"></feOffset>
            <feComposite in="shadowOffsetInner1" in2="SourceAlpha" operator="arithmetic" k2="-1" k3="1" result="shadowInnerInner1"></feComposite>
            <feColorMatrix values="0 0 0 0 0.714817177   0 0 0 0 0.714506926   0 0 0 0 0.714506926  0 0 0 0.5 0" type="matrix" in="shadowInnerInner1"></feColorMatrix>
        </filter>
    </defs>
    <g id="Page-1" stroke="none" stroke-width="1" fill="none" fill-rule="evenodd">
        <g id="我的-已实名认证" transform="translate(-558.000000, -1234.000000)">
            <g id="分组-6" transform="translate(0.000000, 1234.000000)">
                <g id="我的-未点击" transform="translate(558.000000, 0.000000)">
                    <g id="分组-8-copy-3">
                        <g id="分组" transform="translate(5.600000, 5.600000)">
                            <mask id="mask-3" fill="white">
                                <use xlink:href="#path-2"></use>
                            </mask>
                            <use id="Mask" fill="url(#linearGradient-1)" xlink:href="#path-2"></use>
                        </g>
                        <g id="分组" transform="translate(29.400000, 5.600000)">
                            <path d="M2.049726,4.43937 C2.049726,6.17371444 3.004806,6.52847 2.643186,6.52847 C1.661366,6.52847 0.865466,5.63724778 0.865466,4.53802556 C0.865466,3.43851444 1.661366,2.54729222 2.643186,2.54729222 C3.004806,2.54729222 2.049726,2.68523667 2.049726,4.43937" id="Fill-1" fill="#FFFFFF"></path>
                            <g transform="translate(0.000000, 2.827991)">
                                <mask id="mask-5" fill="white">
                                    <use xlink:href="#path-4"></use>
                                </mask>
                                <g id="Clip-4"></g>
                                <path d="M0.73661,1.62703667 C0.73661,3.12290333 1.81853,3.45165889 1.51123,3.45165889 C0.67655,3.45165889 -7e-05,2.68307 -7e-05,1.73479222 C-7e-05,0.786658889 0.67655,0.0179255556 1.51123,0.0179255556 C1.81853,0.0179255556 0.73661,0.114125556 0.73661,1.62703667" id="Fill-3" fill="#FFFFFF" mask="url(#mask-5)"></path>
                            </g>
                            <path d="M3.911894,4.55291778 C3.911894,5.66687333 3.547474,6.56994 3.098074,6.56994 C2.648534,6.56994 2.284114,5.66687333 2.284114,4.55291778 C2.284114,3.43896222 2.648534,2.53589556 3.098074,2.53589556 C3.547474,2.53589556 3.911894,3.43896222 3.911894,4.55291778" id="Fill-5" fill="#FFFFFF"></path>
                            <path d="M4.212334,4.43937 C4.212334,6.17371444 3.257254,6.52847 3.618874,6.52847 C4.600694,6.52847 5.396594,5.63724778 5.396594,4.53802556 C5.396594,3.43851444 4.600694,2.54729222 3.618874,2.54729222 C3.257254,2.54729222 4.212334,2.68523667 4.212334,4.43937" id="Fill-7" fill="#FFFFFF"></path>
                            <path d="M5.52545,4.45502778 C5.52545,5.95089444 4.44353,6.27965 4.75083,6.27965 C5.58551,6.27965 6.26199,5.51106111 6.26199,4.56278333 C6.26199,3.61465 5.58551,2.84591667 4.75083,2.84591667 C4.44353,2.84591667 5.52545,2.94211667 5.52545,4.45502778" id="Fill-9" fill="#FFFFFF"></path>
                            <path d="M3.834446,1.48988667 L2.427586,1.48988667 C2.201066,1.48988667 2.015566,1.68113111 2.015566,1.91498667 C2.015566,2.14869778 2.201066,2.33994222 2.427586,2.33994222 L3.834446,2.33994222 C4.060966,2.33994222 4.246466,2.14869778 4.246466,1.91498667 C4.246466,1.68113111 4.060966,1.48988667 3.834446,1.48988667" id="Fill-11" fill="#FFFFFF"></path>
                            <path d="M3.894744,6.69440778 L2.367344,6.69440778 C2.190524,6.69440778 2.045764,6.84361889 2.045764,7.02605222 C2.045764,7.20863 2.190524,7.35784111 2.367344,7.35784111 L3.894744,7.35784111 C4.071564,7.35784111 4.216184,7.20863 4.216184,7.02605222 C4.216184,6.84361889 4.071564,6.69440778 3.894744,6.69440778" id="Fill-13" fill="#FFFFFF"></path>
                            <path d="M2.528106,7.15052 C2.494926,7.15052 2.467766,7.17854222 2.467766,7.21277556 L2.467766,8.70575333 C2.467766,8.73984222 2.494926,8.76786444 2.528106,8.76786444 C2.561286,8.76786444 2.588446,8.73984222 2.588446,8.70575333 L2.588446,7.21277556 C2.588446,7.17854222 2.561286,7.15052 2.528106,7.15052" id="Fill-15" fill="#FFFFFF"></path>
                            <g transform="translate(2.940000, 7.161324)">
                                <mask id="mask-7" fill="white">
                                    <use xlink:href="#path-6"></use>
                                </mask>
                                <g id="Clip-18"></g>
                                <path d="M0.19103,0.116003333 C0.15785,0.116003333 0.13069,0.144025556 0.13069,0.178258889 L0.13069,1.67109222 C0.13069,1.70532556 0.15785,1.73334778 0.19103,1.73334778 C0.22421,1.73334778 0.25137,1.70532556 0.25137,1.67109222 L0.25137,0.178258889 C0.25137,0.144025556 0.22421,0.116003333 0.19103,0.116003333" id="Fill-17" fill="#FFFFFF" mask="url(#mask-7)"></path>
                            </g>
                            <path d="M2.789374,6.89703444 C2.756194,6.89703444 2.729034,6.92505667 2.729034,6.95929 L2.729034,8.45212333 C2.729034,8.48635667 2.756194,8.51437889 2.789374,8.51437889 C2.822554,8.51437889 2.849714,8.48635667 2.849714,8.45212333 L2.849714,6.95929 C2.849714,6.92505667 2.822554,6.89703444 2.789374,6.89703444" id="Fill-19" fill="#FFFFFF"></path>
                            <path d="M3.733954,6.89703444 C3.700774,6.89703444 3.673614,6.92505667 3.673614,6.95929 L3.673614,8.45212333 C3.673614,8.48635667 3.700774,8.51437889 3.733954,8.51437889 C3.767134,8.51437889 3.794294,8.48635667 3.794294,8.45212333 L3.794294,6.95929 C3.794294,6.92505667 3.767134,6.89703444 3.733954,6.89703444" id="Fill-21" fill="#FFFFFF"></path>
                            <path d="M3.432492,6.71041222 C3.399312,6.71041222 3.372152,6.73843444 3.372152,6.77266778 L3.372152,8.26550111 C3.372152,8.29973444 3.399312,8.32775667 3.432492,8.32775667 C3.465672,8.32775667 3.492832,8.29973444 3.492832,8.26550111 L3.492832,6.77266778 C3.492832,6.73843444 3.465672,6.71041222 3.432492,6.71041222" id="Fill-23" fill="#FFFFFF"></path>
                            <g transform="translate(2.940000, 0.083547)">
                                <mask id="mask-9" fill="white">
                                    <use xlink:href="#path-8"></use>
                                </mask>
                                <g id="Clip-26"></g>
                                <path d="M0.19103,0.0609266667 C0.15785,0.0609266667 0.13069,0.0889488889 0.13069,0.123037778 L0.13069,1.61601556 C0.13069,1.65024889 0.15785,1.67827111 0.19103,1.67827111 C0.22421,1.67827111 0.25137,1.65024889 0.25137,1.61601556 L0.25137,0.123037778 C0.25137,0.0889488889 0.22421,0.0609266667 0.19103,0.0609266667" id="Fill-25" fill="#FFFFFF" mask="url(#mask-9)"></path>
                            </g>
                        </g>
                        <path d="M15.4871764,25.2 C15.7876428,25.2 16.1,24.7862972 16.1,24.5 C16.1,24.2137028 15.5445089,23.8 15.2440425,23.8 C14.9435761,23.8 14.7,24.0320897 14.7,24.3183869 C14.7,24.604684 15.18671,25.2 15.4871764,25.2 Z" id="椭圆形" fill="#FFE796"></path>
                        <path d="M11.7410766,32.5534804 C13.2548761,31.5110092 12.3069149,32.3223253 12.3069149,32.037181 C12.3069149,31.7520368 12.0535805,31.5208817 11.7410766,31.5208817 C11.4285727,31.5208817 10.5234217,31.410839 10.5234217,31.6959833 C10.5234217,31.9811275 10.2272771,33.5959516 11.7410766,32.5534804 Z" id="椭圆形-copy-8" fill-opacity="0.91" fill="#FFE796"></path>
                        <path d="M49.4109148,29.4 C49.708625,29.4 49.6999739,28.8210594 49.6999739,28.5289361 C49.6999739,28.2368127 49.422556,28 49.1248458,28 C48.8271356,28 48.3,28.4078767 48.3,28.7 C48.3,28.9921233 49.1132046,29.4 49.4109148,29.4 Z" id="椭圆形-copy-9" fill="#FFE796"></path>
                        <path d="M43.9978484,36.4 C44.3280309,36.4 44.8,36.1691324 44.8,35.8843427 C44.8,35.599553 44.4989016,35 44.168719,35 C43.8385365,35 43.4,35.599553 43.4,35.8843427 C43.4,36.1691324 43.6676658,36.4 43.9978484,36.4 Z" id="椭圆形-copy-10" fill="#FFE796"></path>
                        <path d="M23.4966275,15.366906 C23.8117259,15.366906 24.3213573,15.0899216 24.3213573,14.748244 C24.3213573,14.4065663 24.3822621,13.266906 24.0671637,13.266906 C23.7520653,13.266906 22.9260914,14.4065663 22.9260914,14.748244 C22.9260914,15.0899216 23.1815291,15.366906 23.4966275,15.366906 Z" id="椭圆形-copy-11" fill-opacity="0.8" fill="#FFE796" transform="translate(23.626091, 14.316906) rotate(110.000000) translate(-23.626091, -14.316906) "></path>
                        <path d="M1.46423885,33.6375974 L25.2206854,57.3940439 C27.6520424,55.3790863 31.1813603,55.3615997 33.6317743,57.3415842 L57.3357611,33.6375974 C55.3031638,31.1849555 55.3031638,27.6150445 57.3357611,25.1624026 L33.6958802,1.52252164 C31.2220284,3.57269634 27.6115004,3.55496694 25.157308,1.46933345 L1.46423885,25.1624026 C3.49683616,27.6150445 3.49683616,31.1849555 1.46423885,33.6375974 Z" id="线框" stroke="#F0270F" stroke-width="2.1"></path>
                        <text id="年" font-family="PingFangSC-Medium, PingFang SC" font-size="24.5" font-weight="400" line-spacing="23.1" letter-spacing="1.225" fill="#FFF163">
                            <tspan x="16.1" y="39.2">年</tspan>
                        </text>
                        <g id="路径-3">
                            <use fill="#FFFFFF" fill-rule="evenodd" xlink:href="#path-10"></use>
                            <use fill="black" fill-opacity="1" filter="url(#filter-11)" xlink:href="#path-10"></use>
                        </g>
                        <g id="路径-3-copy">
                            <use fill="#FFFFFF" fill-rule="evenodd" xlink:href="#path-12"></use>
                            <use fill="black" fill-opacity="1" filter="url(#filter-13)" xlink:href="#path-12"></use>
                        </g>
                    </g>
                </g>
            </g>
        </g>
    </g>
</svg>