<?xml version="1.0" encoding="UTF-8"?>
<svg width="18px" height="19px" viewBox="0 0 18 19" version="1.1" xmlns="http://www.w3.org/2000/svg" xmlns:xlink="http://www.w3.org/1999/xlink">
    <!-- Generator: Sketch 51 (57462) - http://www.bohemiancoding.com/sketch -->
    <title>我的</title>
    <desc>Created with Sketch.</desc>
    <defs></defs>
    <g id="Page-1" stroke="none" stroke-width="1" fill="none" fill-rule="evenodd">
        <g id="首页（抢单）-copy-6" transform="translate(-292.000000, -649.000000)">
            <rect fill="#F7F7F7" x="0" y="0" width="375" height="688"></rect>
            <g id="Group-3" transform="translate(-106.000000, 240.000000)" fill="#8F8F8F" fill-rule="nonzero">
                <g id="Group-6" transform="translate(396.000000, 408.000000)">
                    <g id="我的" transform="translate(1.000000, 1.000000)">
                        <g id="Group" transform="translate(0.397815, 0.430825)">
                            <path d="M9.36527429,10.6877775 C6.41992829,10.6877775 4.10572786,8.3395989 4.10572786,5.35100799 C4.10572786,2.36241707 6.41990725,0.014238501 9.36527429,0.014238501 C12.3106413,0.014238501 14.6248207,2.36241707 14.6248207,5.35100799 C14.6248207,8.3395989 12.3106413,10.6877775 9.36527429,10.6877775 Z M9.36527429,9.62040223 C11.6794747,9.62040223 13.5729114,7.69916521 13.5729114,5.35098664 C13.5729114,3.00280807 11.6794747,1.08157105 9.36527429,1.08157105 C7.05107386,1.08157105 5.15763715,3.00280807 5.15763715,5.35098664 C5.15763715,7.69916521 7.05107386,9.62044492 9.36527429,9.62044492 L9.36527429,9.62040223 Z" id="Shape"></path>
                            <path d="M0.854783953,18.1592548 C0.854783953,13.4097599 4.68450461,9.52380952 9.36527429,9.52380952 C14.046044,9.52380952 17.8757646,13.4097599 17.8757646,18.1592548 L16.8119533,18.1592548 C16.8119533,13.9494752 13.5141383,10.6032402 9.36527429,10.6032402 C5.21641025,10.6032402 1.91859525,13.9494752 1.91859525,18.1592548 L0.854783953,18.1592548 Z" id="Shape"></path>
                        </g>
                    </g>
                </g>
            </g>
        </g>
    </g>
</svg>