<?xml version="1.0" encoding="UTF-8"?>
<svg width="126px" height="123px" viewBox="0 0 126 123" version="1.1" xmlns="http://www.w3.org/2000/svg" xmlns:xlink="http://www.w3.org/1999/xlink">
    <!-- Generator: Sketch 52.5 (67469) - http://www.bohemiancoding.com/sketch -->
    <title>我的点击中</title>
    <desc>Created with Sketch.</desc>
    <defs>
        <linearGradient x1="50%" y1="6.35344232%" x2="50%" y2="97.0485264%" id="linearGradient-1">
            <stop stop-color="#FE3A23" offset="0%"></stop>
            <stop stop-color="#FF5950" offset="100%"></stop>
        </linearGradient>
        <path d="M13.4334563,51.5750803 L1.47308807,39.6147121 C0.862871369,39.0044954 0.371842014,38.3202252 3.44169138e-15,37.5908297 C1.16007691,35.3152533 1.16007691,32.6004624 -2.22044605e-16,30.324886 C0.371842014,29.5954905 0.862871369,28.9112203 1.47308807,28.3010036 L28.3431458,1.43094589 C28.9305824,0.843509287 29.5866467,0.366527322 30.2855308,1.38222767e-13 C32.6398744,1.31489039 35.5174982,1.34805101 37.8982354,0.0994818395 C38.5284605,0.451459744 39.1211895,0.895281095 39.6568542,1.43094589 L66.5269119,28.3010036 C67.1371286,28.9112203 67.628158,29.5954905 68,30.324886 C66.8399231,32.6004624 66.8399231,35.3152533 68,37.5908297 C67.628158,38.3202252 67.1371286,39.0044954 66.5269119,39.6147121 L54.2110061,51.9306179 C53.2825378,51.341284 52.1811245,51 51,51 C47.6862915,51 45,53.6862915 45,57 C45,58.1811245 45.341284,59.2825378 45.9306179,60.2110061 L45.7749926,60.3666314 C45.0636958,57.8467306 42.7475114,56 40,56 C36.6862915,56 34,58.6862915 34,62 C34,64.6523202 35.7209824,66.9026833 38.1071881,67.6953305 C37.9205656,67.8071339 37.7303675,67.9106597 37.5371232,68.0059081 C35.3535266,66.9983875 32.8093216,67.0276094 30.646643,68.0935738 C30.2548696,67.9128079 29.8747044,67.698669 29.5104334,67.4511571 C31.5703588,66.5009199 33,64.4174152 33,62 C33,58.6862915 30.3137085,56 27,56 C24.5285985,56 22.4061881,57.4942083 21.4868848,59.6285088 L21.4249197,59.5665437 C21.7937008,58.7884245 22,57.9183041 22,57 C22,53.6862915 19.3137085,51 16,51 C15.0816959,51 14.2115755,51.2062992 13.4334563,51.5750803 Z M14.1943546,52.3359786 C14.7544223,52.1190026 15.3633139,52 16,52 C18.7614237,52 21,54.2385763 21,57 C21,57.6366861 20.8809974,58.2455777 20.6640214,58.8056454 L19.870771,58.012395 C19.9551078,57.6890468 20,57.349766 20,57 C20,54.790861 18.209139,53 16,53 C15.650234,53 15.3109532,53.0448922 14.987605,53.129229 L14.1943546,52.3359786 Z M15.8615156,54.0031396 C15.9074158,54.0010541 15.9535848,54 16,54 C17.6568542,54 19,55.3431458 19,57 C19,57.0464152 18.9989459,57.0925842 18.9968604,57.1384844 L15.8615156,54.0031396 Z M53.4826838,52.6589403 L52.7429395,53.3986845 C52.2161165,53.1432449 51.6247866,53 51,53 C48.790861,53 47,54.790861 47,57 C47,57.6247866 47.1432449,58.2161165 47.3986845,58.7429395 L46.6589403,59.4826838 C46.2396835,58.751177 46,57.903579 46,57 C46,54.2385763 48.2385763,52 51,52 C51.903579,52 52.751177,52.2396835 53.4826838,52.6589403 Z M51.9784443,54.1631797 L51.137005,55.004619 C51.0917333,55.0015562 51.0460484,55 51,55 C49.8954305,55 49,55.8954305 49,57 C49,57.0460484 49.0015562,57.0917333 49.004619,57.137005 L48.1631797,57.9784443 C48.0574269,57.6717763 48,57.3425945 48,57 C48,55.3431458 49.3431458,54 51,54 C51.3425945,54 51.6717763,54.0574269 51.9784443,54.1631797 Z M39.1720353,66.9317656 C36.8046333,66.5372482 35,64.4793714 35,62 C35,59.2385763 37.2385763,57 40,57 C42.4907101,57 44.5560615,58.8211769 44.9370738,61.2045502 L43.9974501,62.1441739 C43.9991453,62.0963256 44,62.0482626 44,62 C44,59.790861 42.209139,58 40,58 C37.790861,58 36,59.790861 36,62 C36,64.209139 37.790861,66 40,66 C40.0482626,66 40.0963256,65.9991453 40.1441747,65.9974501 L39.6568542,66.4847698 C39.4999784,66.6416456 39.3382082,66.7906443 39.1720353,66.9317656 Z M41.6094296,64.5321944 C41.1443755,64.828394 40.5922281,65 40,65 C38.3431458,65 37,63.6568542 37,62 C37,60.3431458 38.3431458,59 40,59 C41.6568542,59 43,60.3431458 43,62 C43,62.5922281 42.828394,63.1443755 42.5321944,63.6094296 L41.6094296,64.5321944 Z M28.6062768,66.7363987 C28.5171412,66.654904 28.4294036,66.5710276 28.3431458,66.4847698 L27.7819767,65.9236007 C29.6167411,65.5599802 31,63.9415288 31,62 C31,59.790861 29.209139,58 27,58 C25.0584712,58 23.4400198,59.3832589 23.0763993,61.2180233 L22.2606956,60.4023197 C22.9272329,58.424381 24.7972754,57 27,57 C29.7614237,57 32,59.2385763 32,62 C32,64.1995321 30.5797447,66.0673459 28.6062768,66.7363987 Z M26.8549327,64.9965567 L24.0034433,62.1450673 C24.0011573,62.097001 24,62.0486357 24,62 C24,60.3431458 25.3431458,59 27,59 C28.6568542,59 30,60.3431458 30,62 C30,63.6568542 28.6568542,65 27,65 C26.9513643,65 26.902999,64.9988427 26.85493,64.996554 Z M27,63 C26.4477153,63 26,62.5522847 26,62 C26,61.4477153 26.4477153,61 27,61 C27.5522847,61 28,61.4477153 28,62 C28,62.5522847 27.5522847,63 27,63 Z M27,64 C28.1045695,64 29,63.1045695 29,62 C29,60.8954305 28.1045695,60 27,60 C25.8954305,60 25,60.8954305 25,62 C25,63.1045695 25.8954305,64 27,64 Z M40,63 C39.4477153,63 39,62.5522847 39,62 C39,61.4477153 39.4477153,61 40,61 C40.5522847,61 41,61.4477153 41,62 C41,62.5522847 40.5522847,63 40,63 Z M40,64 C41.1045695,64 42,63.1045695 42,62 C42,60.8954305 41.1045695,60 40,60 C38.8954305,60 38,60.8954305 38,62 C38,63.1045695 38.8954305,64 40,64 Z" id="path-2"></path>
        <filter x="-52.9%" y="-52.9%" width="205.9%" height="205.7%" filterUnits="objectBoundingBox" id="filter-3">
            <feGaussianBlur stdDeviation="12" in="SourceGraphic"></feGaussianBlur>
        </filter>
        <filter x="-58.1%" y="-58.0%" width="216.2%" height="216.0%" filterUnits="objectBoundingBox" id="filter-4">
            <feGaussianBlur stdDeviation="1.5" in="SourceAlpha" result="shadowBlurInner1"></feGaussianBlur>
            <feOffset dx="0" dy="-4" in="shadowBlurInner1" result="shadowOffsetInner1"></feOffset>
            <feComposite in="shadowOffsetInner1" in2="SourceAlpha" operator="arithmetic" k2="-1" k3="1" result="shadowInnerInner1"></feComposite>
            <feColorMatrix values="0 0 0 0 0.878431373   0 0 0 0 0.168627451   0 0 0 0 0.0823529412  0 0 0 0.723307292 0" type="matrix" in="shadowInnerInner1"></feColorMatrix>
        </filter>
        <path d="M13.4334563,51.5750803 L1.47308807,39.6147121 C0.862871369,39.0044954 0.371842014,38.3202252 3.44169138e-15,37.5908297 C1.16007691,35.3152533 1.16007691,32.6004624 -2.22044605e-16,30.324886 C0.371842014,29.5954905 0.862871369,28.9112203 1.47308807,28.3010036 L28.3431458,1.43094589 C28.9305824,0.843509287 29.5866467,0.366527322 30.2855308,1.38222767e-13 C32.6398744,1.31489039 35.5174982,1.34805101 37.8982354,0.0994818395 C38.5284605,0.451459744 39.1211895,0.895281095 39.6568542,1.43094589 L66.5269119,28.3010036 C67.1371286,28.9112203 67.628158,29.5954905 68,30.324886 C66.8399231,32.6004624 66.8399231,35.3152533 68,37.5908297 C67.628158,38.3202252 67.1371286,39.0044954 66.5269119,39.6147121 L54.2110061,51.9306179 C53.2825378,51.341284 52.1811245,51 51,51 C47.6862915,51 45,53.6862915 45,57 C45,58.1811245 45.341284,59.2825378 45.9306179,60.2110061 L45.7749926,60.3666314 C45.0636958,57.8467306 42.7475114,56 40,56 C36.6862915,56 34,58.6862915 34,62 C34,64.6523202 35.7209824,66.9026833 38.1071881,67.6953305 C37.9205656,67.8071339 37.7303675,67.9106597 37.5371232,68.0059081 C35.3535266,66.9983875 32.8093216,67.0276094 30.646643,68.0935738 C30.2548696,67.9128079 29.8747044,67.698669 29.5104334,67.4511571 C31.5703588,66.5009199 33,64.4174152 33,62 C33,58.6862915 30.3137085,56 27,56 C24.5285985,56 22.4061881,57.4942083 21.4868848,59.6285088 L21.4249197,59.5665437 C21.7937008,58.7884245 22,57.9183041 22,57 C22,53.6862915 19.3137085,51 16,51 C15.0816959,51 14.2115755,51.2062992 13.4334563,51.5750803 Z M14.1943546,52.3359786 C14.7544223,52.1190026 15.3633139,52 16,52 C18.7614237,52 21,54.2385763 21,57 C21,57.6366861 20.8809974,58.2455777 20.6640214,58.8056454 L19.870771,58.012395 C19.9551078,57.6890468 20,57.349766 20,57 C20,54.790861 18.209139,53 16,53 C15.650234,53 15.3109532,53.0448922 14.987605,53.129229 L14.1943546,52.3359786 Z M15.8615156,54.0031396 C15.9074158,54.0010541 15.9535848,54 16,54 C17.6568542,54 19,55.3431458 19,57 C19,57.0464152 18.9989459,57.0925842 18.9968604,57.1384844 L15.8615156,54.0031396 Z M53.4826838,52.6589403 L52.7429395,53.3986845 C52.2161165,53.1432449 51.6247866,53 51,53 C48.790861,53 47,54.790861 47,57 C47,57.6247866 47.1432449,58.2161165 47.3986845,58.7429395 L46.6589403,59.4826838 C46.2396835,58.751177 46,57.903579 46,57 C46,54.2385763 48.2385763,52 51,52 C51.903579,52 52.751177,52.2396835 53.4826838,52.6589403 Z M51.9784443,54.1631797 L51.137005,55.004619 C51.0917333,55.0015562 51.0460484,55 51,55 C49.8954305,55 49,55.8954305 49,57 C49,57.0460484 49.0015562,57.0917333 49.004619,57.137005 L48.1631797,57.9784443 C48.0574269,57.6717763 48,57.3425945 48,57 C48,55.3431458 49.3431458,54 51,54 C51.3425945,54 51.6717763,54.0574269 51.9784443,54.1631797 Z M39.1720353,66.9317656 C36.8046333,66.5372482 35,64.4793714 35,62 C35,59.2385763 37.2385763,57 40,57 C42.4907101,57 44.5560615,58.8211769 44.9370738,61.2045502 L43.9974501,62.1441739 C43.9991453,62.0963256 44,62.0482626 44,62 C44,59.790861 42.209139,58 40,58 C37.790861,58 36,59.790861 36,62 C36,64.209139 37.790861,66 40,66 C40.0482626,66 40.0963256,65.9991453 40.1441747,65.9974501 L39.6568542,66.4847698 C39.4999784,66.6416456 39.3382082,66.7906443 39.1720353,66.9317656 Z M41.6094296,64.5321944 C41.1443755,64.828394 40.5922281,65 40,65 C38.3431458,65 37,63.6568542 37,62 C37,60.3431458 38.3431458,59 40,59 C41.6568542,59 43,60.3431458 43,62 C43,62.5922281 42.828394,63.1443755 42.5321944,63.6094296 L41.6094296,64.5321944 Z M28.6062768,66.7363987 C28.5171412,66.654904 28.4294036,66.5710276 28.3431458,66.4847698 L27.7819767,65.9236007 C29.6167411,65.5599802 31,63.9415288 31,62 C31,59.790861 29.209139,58 27,58 C25.0584712,58 23.4400198,59.3832589 23.0763993,61.2180233 L22.2606956,60.4023197 C22.9272329,58.424381 24.7972754,57 27,57 C29.7614237,57 32,59.2385763 32,62 C32,64.1995321 30.5797447,66.0673459 28.6062768,66.7363987 Z M26.8549327,64.9965567 L24.0034433,62.1450673 C24.0011573,62.097001 24,62.0486357 24,62 C24,60.3431458 25.3431458,59 27,59 C28.6568542,59 30,60.3431458 30,62 C30,63.6568542 28.6568542,65 27,65 C26.9513643,65 26.902999,64.9988427 26.85493,64.996554 Z M27,63 C26.4477153,63 26,62.5522847 26,62 C26,61.4477153 26.4477153,61 27,61 C27.5522847,61 28,61.4477153 28,62 C28,62.5522847 27.5522847,63 27,63 Z M27,64 C28.1045695,64 29,63.1045695 29,62 C29,60.8954305 28.1045695,60 27,60 C25.8954305,60 25,60.8954305 25,62 C25,63.1045695 25.8954305,64 27,64 Z M40,63 C39.4477153,63 39,62.5522847 39,62 C39,61.4477153 39.4477153,61 40,61 C40.5522847,61 41,61.4477153 41,62 C41,62.5522847 40.5522847,63 40,63 Z M40,64 C41.1045695,64 42,63.1045695 42,62 C42,60.8954305 41.1045695,60 40,60 C38.8954305,60 38,60.8954305 38,62 C38,63.1045695 38.8954305,64 40,64 Z" id="path-5"></path>
        <polygon id="path-7" points="0 0.0256079365 2.23739372 0.0256079365 2.23739372 4.93094127 0 4.93094127"></polygon>
        <polygon id="path-9" points="0.1729 0.165719048 0.3729 0.165719048 0.3729 2.47619048 0.1729 2.47619048"></polygon>
        <polygon id="path-11" points="0.1729 0.0870793651 0.3729 0.0870793651 0.3729 2.39753016 0.1729 2.39753016"></polygon>
        <path d="M47.7284856,47.5547468 C48.3235892,47.0616385 49.0155614,46.8972691 49.8044022,47.0616385 C50.9876635,47.3081927 50.8659099,47.0054942 52.0719956,47.0616385 C53.2780812,47.1177829 53.6889879,47.1656649 54.4387929,47.2773734 C55.1630709,47.4725828 55.3150292,46.7775422 55.7609888,47.6112373 C56.2716076,48.3803469 56.40831,48.7499135 56.0028351,49.0163584 C54.6920293,49.9728479 52.4638936,49.0116118 50.9558145,49.0163584 C49.4477355,49.0211049 49.4603118,50.1843403 48.9064052,50.1655803 C48.2466609,50.1432357 47.8050344,48.9321342 47.4495439,48.8797447 C45.8777536,48.4508874 45.9707341,48.0092214 47.7284856,47.5547468 Z" id="path-13"></path>
        <filter x="-0.0%" y="-0.0%" width="100.0%" height="100.0%" filterUnits="objectBoundingBox" id="filter-14">
            <feOffset dx="0" dy="0" in="SourceAlpha" result="shadowOffsetInner1"></feOffset>
            <feComposite in="shadowOffsetInner1" in2="SourceAlpha" operator="arithmetic" k2="-1" k3="1" result="shadowInnerInner1"></feComposite>
            <feColorMatrix values="0 0 0 0 0.714817177   0 0 0 0 0.714506926   0 0 0 0 0.714506926  0 0 0 0.5 0" type="matrix" in="shadowInnerInner1"></feColorMatrix>
        </filter>
        <path d="M44.4758186,36.5676018 C45.074831,36.0630669 45.7713483,35.8948886 46.5653704,36.0630669 C47.7564036,36.3153343 48.1541104,36.0630669 48.8478579,36.0630669 C49.5416054,36.0630669 51.230201,36 51.230201,36.2838009 C51.230201,36.4730015 51.7930662,36.5676018 52.9187966,36.5676018 L53.5256746,37.269329 L53.5256746,37.9233034 C50.8336881,38.2638922 48.7895638,38.5673325 47.3933017,38.8336244 C45.2989085,39.2330621 44.4270785,38.9105735 44.2155971,38.5494463 C43.4727971,38.306111 43.5595375,37.6454962 44.4758186,36.5676018 Z" id="path-15"></path>
        <filter x="-5.1%" y="-16.6%" width="110.2%" height="133.1%" filterUnits="objectBoundingBox" id="filter-16">
            <feGaussianBlur stdDeviation="0.5" in="SourceAlpha" result="shadowBlurInner1"></feGaussianBlur>
            <feOffset dx="0" dy="0" in="shadowBlurInner1" result="shadowOffsetInner1"></feOffset>
            <feComposite in="shadowOffsetInner1" in2="SourceAlpha" operator="arithmetic" k2="-1" k3="1" result="shadowInnerInner1"></feComposite>
            <feColorMatrix values="0 0 0 0 0.714817177   0 0 0 0 0.714506926   0 0 0 0 0.714506926  0 0 0 0.5 0" type="matrix" in="shadowInnerInner1"></feColorMatrix>
        </filter>
    </defs>
    <g id="Page-1" stroke="none" stroke-width="1" fill="none" fill-rule="evenodd">
        <g id="首页-抢单" transform="translate(-524.000000, -1186.000000)">
            <g id="分组-3" transform="translate(0.000000, 1186.000000)">
                <g id="我的点击中" transform="translate(524.000000, 0.000000)">
                    <g id="分组-8" transform="translate(21.000000, 19.000000)">
                        <g id="分组" transform="translate(8.000000, 8.000000)">
                            <g id="合并形状" filter="url(#filter-3)">
                                <use fill="url(#linearGradient-1)" fill-rule="evenodd" xlink:href="#path-2"></use>
                                <use fill="black" fill-opacity="1" filter="url(#filter-4)" xlink:href="#path-2"></use>
                            </g>
                            <mask id="mask-6" fill="white">
                                <use xlink:href="#path-5"></use>
                            </mask>
                            <use id="Mask" fill="url(#linearGradient-1)" xlink:href="#path-5"></use>
                        </g>
                        <g id="分组" transform="translate(42.000000, 8.000000)">
                            <path d="M2.92818,6.34195714 C2.92818,8.81959206 4.29258,9.32638571 3.77598,9.32638571 C2.37338,9.32638571 1.23638,8.05321111 1.23638,6.48289365 C1.23638,4.91216349 2.37338,3.63898889 3.77598,3.63898889 C4.29258,3.63898889 2.92818,3.83605238 2.92818,6.34195714" id="Fill-1" fill="#FFFFFF"></path>
                            <g transform="translate(0.000000, 4.039987)">
                                <mask id="mask-8" fill="white">
                                    <use xlink:href="#path-7"></use>
                                </mask>
                                <g id="Clip-4"></g>
                                <path d="M1.0523,2.3243381 C1.0523,4.46129048 2.5979,4.93094127 2.1589,4.93094127 C0.9665,4.93094127 -0.0001,3.83295714 -0.0001,2.4782746 C-0.0001,1.12379841 0.9665,0.0256079365 2.1589,0.0256079365 C2.5979,0.0256079365 1.0523,0.163036508 1.0523,2.3243381" id="Fill-3" fill="#FFFFFF" mask="url(#mask-8)"></path>
                            </g>
                            <path d="M5.58842,6.50416825 C5.58842,8.09553333 5.06782,9.38562857 4.42582,9.38562857 C3.78362,9.38562857 3.26302,8.09553333 3.26302,6.50416825 C3.26302,4.91280317 3.78362,3.62270794 4.42582,3.62270794 C5.06782,3.62270794 5.58842,4.91280317 5.58842,6.50416825" id="Fill-5" fill="#FFFFFF"></path>
                            <path d="M6.01762,6.34195714 C6.01762,8.81959206 4.65322,9.32638571 5.16982,9.32638571 C6.57242,9.32638571 7.70942,8.05321111 7.70942,6.48289365 C7.70942,4.91216349 6.57242,3.63898889 5.16982,3.63898889 C4.65322,3.63898889 6.01762,3.83605238 6.01762,6.34195714" id="Fill-7" fill="#FFFFFF"></path>
                            <path d="M7.8935,6.3643254 C7.8935,8.50127778 6.3479,8.97092857 6.7869,8.97092857 C7.9793,8.97092857 8.9457,7.87294444 8.9457,6.5182619 C8.9457,5.16378571 7.9793,4.06559524 6.7869,4.06559524 C6.3479,4.06559524 7.8935,4.20302381 7.8935,6.3643254" id="Fill-9" fill="#FFFFFF"></path>
                            <path d="M5.47778,2.12840952 L3.46798,2.12840952 C3.14438,2.12840952 2.87938,2.40161587 2.87938,2.73569524 C2.87938,3.06956825 3.14438,3.3427746 3.46798,3.3427746 L5.47778,3.3427746 C5.80138,3.3427746 6.06638,3.06956825 6.06638,2.73569524 C6.06638,2.40161587 5.80138,2.12840952 5.47778,2.12840952" id="Fill-11" fill="#FFFFFF"></path>
                            <path d="M5.56392,9.56343968 L3.38192,9.56343968 C3.12932,9.56343968 2.92252,9.77659841 2.92252,10.0372175 C2.92252,10.2980429 3.12932,10.5112016 3.38192,10.5112016 L5.56392,10.5112016 C5.81652,10.5112016 6.02312,10.2980429 6.02312,10.0372175 C6.02312,9.77659841 5.81652,9.56343968 5.56392,9.56343968" id="Fill-13" fill="#FFFFFF"></path>
                            <path d="M3.61158,10.2150286 C3.56418,10.2150286 3.52538,10.2550603 3.52538,10.3039651 L3.52538,12.4367905 C3.52538,12.4854889 3.56418,12.5255206 3.61158,12.5255206 C3.65898,12.5255206 3.69778,12.4854889 3.69778,12.4367905 L3.69778,10.3039651 C3.69778,10.2550603 3.65898,10.2150286 3.61158,10.2150286" id="Fill-15" fill="#FFFFFF"></path>
                            <g transform="translate(4.200000, 10.230463)">
                                <mask id="mask-10" fill="white">
                                    <use xlink:href="#path-9"></use>
                                </mask>
                                <g id="Clip-18"></g>
                                <path d="M0.2729,0.165719048 C0.2255,0.165719048 0.1867,0.205750794 0.1867,0.254655556 L0.1867,2.3872746 C0.1867,2.43617937 0.2255,2.47621111 0.2729,2.47621111 C0.3203,2.47621111 0.3591,2.43617937 0.3591,2.3872746 L0.3591,0.254655556 C0.3591,0.205750794 0.3203,0.165719048 0.2729,0.165719048" id="Fill-17" fill="#FFFFFF" mask="url(#mask-10)"></path>
                            </g>
                            <path d="M3.98482,9.85290635 C3.93742,9.85290635 3.89862,9.8929381 3.89862,9.94184286 L3.89862,12.0744619 C3.89862,12.1233667 3.93742,12.1633984 3.98482,12.1633984 C4.03222,12.1633984 4.07102,12.1233667 4.07102,12.0744619 L4.07102,9.94184286 C4.07102,9.8929381 4.03222,9.85290635 3.98482,9.85290635" id="Fill-19" fill="#FFFFFF"></path>
                            <path d="M5.33422,9.85290635 C5.28682,9.85290635 5.24802,9.8929381 5.24802,9.94184286 L5.24802,12.0744619 C5.24802,12.1233667 5.28682,12.1633984 5.33422,12.1633984 C5.38162,12.1633984 5.42042,12.1233667 5.42042,12.0744619 L5.42042,9.94184286 C5.42042,9.8929381 5.38162,9.85290635 5.33422,9.85290635" id="Fill-21" fill="#FFFFFF"></path>
                            <path d="M4.90356,9.58630317 C4.85616,9.58630317 4.81736,9.62633492 4.81736,9.67523968 L4.81736,11.8078587 C4.81736,11.8567635 4.85616,11.8967952 4.90356,11.8967952 C4.95096,11.8967952 4.98976,11.8567635 4.98976,11.8078587 L4.98976,9.67523968 C4.98976,9.62633492 4.95096,9.58630317 4.90356,9.58630317" id="Fill-23" fill="#FFFFFF"></path>
                            <g transform="translate(4.200000, 0.119352)">
                                <mask id="mask-12" fill="white">
                                    <use xlink:href="#path-11"></use>
                                </mask>
                                <g id="Clip-26"></g>
                                <path d="M0.2729,0.0870380952 C0.2255,0.0870380952 0.1867,0.127069841 0.1867,0.175768254 L0.1867,2.30859365 C0.1867,2.35749841 0.2255,2.39753016 0.2729,2.39753016 C0.3203,2.39753016 0.3591,2.35749841 0.3591,2.30859365 L0.3591,0.175768254 C0.3591,0.127069841 0.3203,0.0870380952 0.2729,0.0870380952" id="Fill-25" fill="#FFFFFF" mask="url(#mask-12)"></path>
                            </g>
                        </g>
                        <path d="M22.1245377,36 C22.5537754,36 23,35.4089959 23,35 C23,34.5910041 22.2064412,34 21.7772036,34 C21.3479659,34 21,34.3315567 21,34.7405527 C21,35.1495486 21.6953001,36 22.1245377,36 Z" id="椭圆形" fill="#FFE796"></path>
                        <path d="M16.7729666,46.504972 C18.9355372,45.0157274 17.581307,46.1747504 17.581307,45.7674015 C17.581307,45.3600526 17.2194007,45.029831 16.7729666,45.029831 C16.3265325,45.029831 15.0334595,44.8726272 15.0334595,45.2799761 C15.0334595,45.687325 14.6103959,47.9942165 16.7729666,46.504972 Z" id="椭圆形-copy-8" fill-opacity="0.91" fill="#FFE796"></path>
                        <path d="M70.5870211,42 C71.0123214,42 70.9999627,41.172942 70.9999627,40.7556229 C70.9999627,40.3383039 70.6036515,40 70.1783512,40 C69.7530509,40 69,40.582681 69,41 C69,41.417319 70.1617209,42 70.5870211,42 Z" id="椭圆形-copy-9" fill="#FFE796"></path>
                        <path d="M62.8540691,52 C63.3257584,52 64,51.6701891 64,51.2633467 C64,50.8565043 63.5698594,50 63.09817,50 C62.6264807,50 62,50.8565043 62,51.2633467 C62,51.6701891 62.3823798,52 62.8540691,52 Z" id="椭圆形-copy-10" fill="#FFE796"></path>
                        <path d="M33.5666107,21.9527228 C34.0167514,21.9527228 34.7447961,21.5570308 34.7447961,21.0689199 C34.7447961,20.5808091 34.831803,18.9527228 34.3816624,18.9527228 C33.9315218,18.9527228 32.7515591,20.5808091 32.7515591,21.0689199 C32.7515591,21.5570308 33.1164701,21.9527228 33.5666107,21.9527228 Z" id="椭圆形-copy-11" fill-opacity="0.8" fill="#FFE796" transform="translate(33.751559, 20.452723) rotate(110.000000) translate(-33.751559, -20.452723) "></path>
                        <path d="M2.09176979,48.0537106 L36.0295506,81.9914913 C39.5029177,79.1129804 44.5448004,79.0879996 48.0453919,81.9165489 L81.9082302,48.0537106 C79.0045198,44.5499364 79.0045198,39.4500636 81.9082302,35.9462894 L48.1369717,2.17503091 C44.6028977,5.10385191 39.4450006,5.0785242 35.9390114,2.09904779 L2.09176979,35.9462894 C4.99548023,39.4500636 4.99548023,44.5499364 2.09176979,48.0537106 Z" id="线框" stroke="#F0270F" stroke-width="3"></path>
                        <text id="年" font-family="PingFangSC-Medium, PingFang SC" font-size="35" font-weight="400" line-spacing="33" letter-spacing="1.75" fill="#FFF163">
                            <tspan x="23" y="57">年</tspan>
                        </text>
                        <g id="路径-3">
                            <use fill="#FFFFFF" fill-rule="evenodd" xlink:href="#path-13"></use>
                            <use fill="black" fill-opacity="1" filter="url(#filter-14)" xlink:href="#path-13"></use>
                        </g>
                        <g id="路径-3-copy">
                            <use fill="#FFFFFF" fill-rule="evenodd" xlink:href="#path-15"></use>
                            <use fill="black" fill-opacity="1" filter="url(#filter-16)" xlink:href="#path-15"></use>
                        </g>
                    </g>
                </g>
            </g>
        </g>
    </g>
</svg>