<?xml version="1.0" standalone="no"?><!DOCTYPE svg PUBLIC "-//W3C//DTD SVG 1.1//EN" "http://www.w3.org/Graphics/SVG/1.1/DTD/svg11.dtd"><svg t="1539328081309" class="icon" style="" viewBox="0 0 1024 1024" version="1.1" xmlns="http://www.w3.org/2000/svg" p-id="4250" xmlns:xlink="http://www.w3.org/1999/xlink" width="200" height="200"><defs><style type="text/css"></style></defs><path d="M512.00512 0C229.23264 0 0 229.22752 0 512s229.23264 512 512.00512 512C794.7776 1024 1024 794.77248 1024 512S794.76736 0 512.00512 0z m217.91744 729.53856a34.21184 34.21184 0 0 1-48.384 0.01024l-0.00512-0.01024-169.41568-169.39008-169.06752 169.06752a34.13504 34.13504 0 0 1-48.2816-0.01024 34.14016 34.14016 0 0 1 0.00512-48.2816l169.06752-169.05728-169.40544-169.3696a34.21696 34.21696 0 0 1 48.38912-48.37888l169.40544 169.35424 168.7552-168.75008a34.14016 34.14016 0 0 1 48.27648 48.26112l-168.75008 168.7552 169.41568 169.40544a34.23232 34.23232 0 0 1-0.00512 48.39424z" p-id="4251"></path></svg>