<?xml version="1.0" standalone="no"?><!DOCTYPE svg PUBLIC "-//W3C//DTD SVG 1.1//EN" "http://www.w3.org/Graphics/SVG/1.1/DTD/svg11.dtd"><svg t="1539326176084" class="icon" style="" viewBox="0 0 1024 1024" version="1.1" xmlns="http://www.w3.org/2000/svg" p-id="3530" xmlns:xlink="http://www.w3.org/1999/xlink" width="200" height="200"><defs><style type="text/css"></style></defs><path d="M1023.787815 518.329116c0 276.42271-229.248173 505.670884-518.116931 505.670884A509.284252 509.284252 0 0 1 0 518.329116C0 229.259616 229.248173 0.011442 505.670884 0.011442A514.704305 514.704305 0 0 1 1023.787815 518.329116z m-821.037679 29.107693l200.742709 211.382073a12.245305 12.245305 0 0 0 17.464615 0L861.186221 318.790864a6.423767 6.423767 0 0 0 0-8.832679l-27.301009-27.301009a7.025995 7.025995 0 0 0-9.234164 0l-402.890617 341.262605a16.059417 16.059417 0 0 1-20.074271 0l-163.003079-126.869392a6.022281 6.022281 0 0 0-8.631937 1.204457l-28.706207 40.148541a7.828966 7.828966 0 0 0 0 9.836393z m0 0" p-id="3531"></path></svg>