<?xml version="1.0" standalone="no"?><!DOCTYPE svg PUBLIC "-//W3C//DTD SVG 1.1//EN" "http://www.w3.org/Graphics/SVG/1.1/DTD/svg11.dtd"><svg class="icon" width="17px" height="17.00px" viewBox="0 0 1024 1024" version="1.1" xmlns="http://www.w3.org/2000/svg"><path d="M0 524.8V384c0-93.867 76.8-170.667 170.667-170.667h42.666v-42.666C213.333 76.8 290.133 0 384 0h256c93.867 0 170.667 76.8 170.667 170.667v42.666h42.666C947.2 213.333 1024 290.133 1024 384v140.8l-396.8 55.467C605.867 537.6 563.2 512 512 512s-93.867 25.6-115.2 68.267L0 524.8z m0 85.333L388.267 665.6c12.8 59.733 64 102.4 123.733 102.4s115.2-42.667 123.733-102.4L1024 610.133v243.2C1024 947.2 947.2 1024 853.333 1024H170.667C76.8 1024 0 947.2 0 853.333v-243.2z m298.667-396.8h426.666v-42.666c0-46.934-38.4-85.334-85.333-85.334H384c-46.933 0-85.333 38.4-85.333 85.334v42.666z" /></svg>