<?xml version="1.0" encoding="UTF-8"?>
<svg width="28px" height="31px" viewBox="0 0 28 31" version="1.1" xmlns="http://www.w3.org/2000/svg" xmlns:xlink="http://www.w3.org/1999/xlink">
    <!-- Generator: Sketch 51 (57462) - http://www.bohemiancoding.com/sketch -->
    <title>闹钟 copy</title>
    <desc>Created with Sketch.</desc>
    <defs></defs>
    <g id="Page-1" stroke="none" stroke-width="1" fill="none" fill-rule="evenodd">
        <g id="常见问题" transform="translate(-170.000000, -78.000000)">
            <g id="抢单" transform="translate(170.000000, 78.000000)" fill="#3F91F7">
                <g id="闹钟">
                    <g id="闪电响应-(1)-copy-4">
                        <path d="M23.1628915,26.4004106 C22.9953884,26.1130911 22.6675085,25.975259 22.3560459,26.0334022 C25.3647417,23.5668771 27.2846339,19.8213673 27.2846339,15.6273955 C27.2846339,10.8179578 24.7520399,6.60966662 20.95548,4.23238769 L20.95548,6.1499488 C23.8330039,8.31553443 25.7023454,11.7489489 25.7023454,15.6273955 C25.7023454,22.1813632 20.3891996,27.4944757 13.8352985,27.4944757 C7.28129753,27.4944757 1.9681517,22.1813299 1.9681517,15.6273955 C1.9681517,11.7489489 3.83745993,8.31553443 6.71498378,6.1499488 L6.71498378,4.23235438 C2.9184905,6.60963332 0.385929838,10.8179245 0.385929838,15.6273622 C0.385929838,19.7612261 2.25117537,23.459382 5.18581013,25.9265066 C4.9126768,25.9265732 4.64706946,26.0679352 4.50081226,26.3216208 L2.9185238,29.0628111 C2.69987062,29.4413415 2.82971051,29.9250359 3.20784132,30.1429232 L3.8931389,30.5384703 C4.27130301,30.7571235 4.75533043,30.6280829 4.973584,30.2495524 L6.55587247,27.5083621 C6.64473404,27.3549269 6.67922903,27.1759983 6.65377688,27.0005246 C8.73164814,28.3153409 11.1945435,29.0766976 13.8353318,29.0766976 C16.5089881,29.0766976 19.0004222,28.296426 21.0944444,26.9512727 C21.0393315,27.1421197 21.059312,27.3538463 21.167573,27.539232 L22.7035067,30.1706961 C22.9156662,30.5345742 23.3853077,30.658986 23.7527489,30.4488245 L24.4179661,30.0695615 C24.7852741,29.8601326 24.9112511,29.3949868 24.6991582,29.031908 L23.1628915,26.4004106 Z M7.08205872,2.75746107 C6.20821191,1.24317288 4.27286815,0.725511632 2.75931258,1.59855923 C1.24582361,2.47313867 0.726996836,4.4077165 1.60120996,5.92203799 L7.08205872,2.75746107 Z M25.2608765,1.52746198 C23.7530819,0.595738337 21.8259302,1.14813234 20.9555133,2.76132396 L26.4142837,6.1337313 C27.2846672,4.52047308 26.7681715,2.45848631 25.2608765,1.52746198 Z M10.1960184,23.5387046 L20.9555133,8.69333223 L15.5759657,8.69333223 L19.6104599,0.595738337 L11.5410718,0.595738337 L7.50621127,12.7424788 L14.230879,12.7424788 L10.1960184,23.5387046 Z" id="Shape" fill-rule="nonzero"></path>
                    </g>
                </g>
            </g>
        </g>
    </g>
</svg>