<?xml version="1.0" encoding="UTF-8"?>
<svg width="25px" height="25px" viewBox="0 0 25 25" version="1.1" xmlns="http://www.w3.org/2000/svg" xmlns:xlink="http://www.w3.org/1999/xlink">
    <!-- Generator: Sketch 52.5 (67469) - http://www.bohemiancoding.com/sketch -->
    <title>信息说明</title>
    <desc>Created with Sketch.</desc>
    <defs>
        <filter x="-5.2%" y="-5.4%" width="110.4%" height="110.8%" filterUnits="objectBoundingBox" id="filter-1">
            <feGaussianBlur stdDeviation="12" in="SourceGraphic"></feGaussianBlur>
        </filter>
    </defs>
    <g id="12.25订单详情-积分中心" stroke="none" stroke-width="1" fill="none" fill-rule="evenodd">
        <g id="退单详情" transform="translate(-554.000000, -540.000000)">
            <g id="选择退款原因" transform="translate(30.000000, 491.000000)">
                <g id="退款说明" transform="translate(524.000000, 44.000000)" fill="#217FFE" fill-rule="nonzero">
                    <g id="信息说明" transform="translate(0.000000, 5.000000)">
                        <g id="形状">
                            <path d="M13.615625,6.9375 C13.615625,6.165625 12.990625,5.540625 12.21875,5.540625 C11.446875,5.540625 10.821875,6.165625 10.821875,6.9375 C10.821875,7.709375 11.446875,8.334375 12.21875,8.334375 C12.990625,8.334375 13.615625,7.709375 13.615625,6.9375 Z M10.640625,18.49375 C10.89375,18.7125 11.21875,18.746875 11.459375,18.71875 C11.60625,18.7 11.765625,18.65625 11.825,18.640625 L14.18125,17.84375 C14.6875,17.675 14.934375,17.340625 14.753125,16.753125 C14.571875,16.246875 14.15,16.109375 13.740625,16.209375 L12.4375,16.571875 L13.65,10.8375 C13.703125,10.58125 13.6625,10.18125 13.39375,9.89375 C13.15,9.634375 12.746875,9.59375 12.490625,9.659375 L10.25,10.41875 C9.84375,10.521875 9.625,11.05 9.734375,11.45625 C9.88125,11.996875 10.303125,12.1875 10.709375,12.084375 L11.690625,11.7875 L10.440625,17.75625 C10.384375,18.009375 10.453125,18.315625 10.640625,18.49375 Z"></path>
                            <path d="M24.18,12.09925 C24.18,18.77125 18.772,24.17925 12.1,24.17925 C5.428,24.17925 0.02,18.77125 0.02,12.09925 C0.02,5.42725 5.428,0.01925 12.1,0.01925 C18.772,0.01925 24.18,5.42725 24.18,12.09925 Z M12.116,1.84325 C6.628,1.84325 1.812,6.65925 1.812,12.13125 C1.812,17.82725 6.42,22.43525 12.116,22.43525 C17.812,22.43525 22.42,17.82725 22.42,12.13125 C22.436,6.69125 17.684,1.84325 12.116,1.84325 Z"></path>
                        </g>
                    </g>
                </g>
            </g>
        </g>
    </g>
</svg>