<?xml version="1.0" encoding="UTF-8"?>
<svg width="31px" height="31px" viewBox="0 0 31 31" version="1.1" xmlns="http://www.w3.org/2000/svg" xmlns:xlink="http://www.w3.org/1999/xlink">
    <!-- Generator: Sketch 51 (57462) - http://www.bohemiancoding.com/sketch -->
    <title>Rectangle 2</title>
    <desc>Created with Sketch.</desc>
    <defs></defs>
    <g id="Page-1" stroke="none" stroke-width="1" fill="none" fill-rule="evenodd">
        <g id="常见问题" transform="translate(-55.000000, -78.000000)">
            <g id="审核通过" transform="translate(55.000000, 78.000000)" fill="#1F7CF0" fill-rule="nonzero">
                <g id="Shape">
                    <path d="M25.3683756,26.9475108 C25.3296901,26.979698 25.3645771,26.9434629 25.3334517,26.9847285 C25.2182801,27.06219 25.1512719,27.1798952 25.0577851,27.279522 C24.8397224,27.512928 24.6216222,27.7473173 24.4035613,27.9807621 C23.7143772,28.7061317 23.0242697,29.4315044 22.3350856,30.1578955 C22.0254172,30.5019724 21.7148254,30.8460493 21.405157,31.1911478 C20.9066717,31.5694164 20.8300728,31.3547168 20.3260916,30.8095793 C20.2329364,30.7088128 19.5478082,29.9117185 19.5478082,29.9117185 C20.2053136,29.216962 20.1402976,29.2896701 20.4707294,28.9365525 C21.2628041,28.0753214 22.0942676,27.2553518 22.8873039,26.3941584 C23.116725,26.1487262 23.3461091,25.9021929 23.5755294,25.6566833 C23.6765397,25.5490389 19.5477729,29.9117436 19.5477729,29.9117436 C19.4472055,29.827208 19.3410692,29.6904027 19.2371812,29.5797722 L18.5829575,28.8784945 C17.8814906,28.1279331 17.1809852,27.3784309 16.480477,26.6279072 C16.0773573,26.1962685 16.4981418,26.871099 16.3282425,26.202047 C16.1979509,25.6899601 16.6397929,25.2462567 16.8795757,25.1104359 C16.9881092,25.0490879 17.1335209,25.0752226 17.2241693,24.9997656 C18.1030936,24.9977613 18.3731173,25.4767176 18.8092802,25.9435289 C19.5786389,26.7554386 19.3636363,26.5172776 20.1330715,27.3291498 C20.3304081,27.5394864 21.0351558,28.3193669 21.0493528,28.3251423 C21.0493528,28.3251423 27.9993882,20.9341907 29.2975318,19.5317669 C29.7893803,19.1575063 30.5399312,19.3737787 30.8137158,19.7903252 C31.0327003,20.1233589 31.0336592,20.7863585 30.8137158,21.1183707 C29.4929503,22.5208509 28.1712615,23.9223095 26.8505048,25.3247646 C26.8797495,25.3650085 26.8466695,25.3288125 26.8844699,25.3609603 L25.3683756,26.9475108 Z M8.49682599,21.6099554 L15.104432,21.6099554 C15.626483,21.6099554 16.0485224,22.0607316 16.0485224,22.6160886 C16.0485224,23.1724265 15.6265213,23.6221435 15.104432,23.6221435 L8.49682599,23.6221435 C7.97477498,23.6221435 7.55273566,23.1724673 7.55273566,22.6160887 C7.55273566,22.0607316 7.97477204,21.6099554 8.49682599,21.6099554 Z M20.7688799,9.53707126 L8.49682599,9.53707126 C7.97477498,9.53707126 7.55273566,9.08735428 7.55273566,8.53097564 C7.55273566,7.97561858 7.97477204,7.52492076 8.49682599,7.52492076 L20.7688799,7.52492076 C21.2909309,7.52492076 21.7138906,7.97561858 21.7138906,8.53097564 C21.7138906,9.08735428 21.2909309,9.53707126 20.7688799,9.53707126 Z M20.7688799,16.5796184 L8.49682599,16.5796184 C7.97477498,16.5796184 7.55273566,16.1299014 7.55273566,15.5734851 C7.55273566,15.0181281 7.97477204,14.5674303 8.49682599,14.5674303 L20.7688799,14.5674303 C21.2909309,14.5674303 21.7138906,15.0181281 21.7138906,15.5734851 C21.7138906,16.1299014 21.2909309,16.5796184 20.7688799,16.5796184 Z M27.3688993,4.1342002 C27.3688993,3.4661679 27.388703,2.78304685 27.1328768,2.3997486 C26.8487281,1.97616667 26.1708637,2.03150151 25.4835615,2.03150151 L5.7627812,2.03150151 L3.81043438,2.03150151 L3.69618474,2.03150151 C3.00891785,2.03150151 2.36033414,1.97616636 2.07614871,2.3997486 C1.82028567,2.78304685 1.86940788,3.4661679 1.86940788,4.1342002 L1.86940788,8.14345317 L1.86940788,22.7526897 L1.86940788,26.8847209 C1.86940788,27.6201528 1.81844193,28.6292348 2.21400142,28.9330656 C2.54443318,29.1856109 2.9560717,29.1856109 3.52436905,29.1856109 L14.4467311,29.1856109 C15.016025,29.2067153 15.4389847,29.6574539 15.4389847,30.2128109 C15.4389847,30.7691896 15.016025,31.2189066 14.4948944,31.2189066 C14.353281,31.2189066 14.2230261,31.1816889 14.1021755,31.1223451 L3.51871404,31.1223451 C3.16844225,31.1223451 2.74835842,31.1454932 2.45001121,31.0539227 C1.50028087,30.7631773 0.65816066,30.1353889 0.278641977,29.2460173 C-0.0451882066,28.4864152 0.00297537644,27.4511229 0.00297537644,26.3314088 L0.00297537644,21.2768169 L0.00297537644,7.95831922 L0.00297537644,4.16942788 C0.00297537644,3.41186897 -0.0376277091,2.63619416 0.175751167,2.10394812 C0.469340831,1.36749466 1.0565575,0.62302521 1.72590163,0.296042647 C1.90811812,0.206476549 2.12713936,0.137072037 2.31215997,0.0747017365 C2.42921227,0.0344973338 2.57270646,0.0696712741 2.65675351,0.000266385834 L3.81702567,0.000266385834 L5.59283541,0.000266385834 L26.5229542,0.000266385834 C26.607959,0.0696712114 26.7504576,0.0344578492 26.8675478,0.0747017365 C27.052604,0.137071724 27.2716261,0.206515721 27.4538061,0.296042647 C28.1231503,0.623022077 28.7103672,1.36749466 29.0049534,2.10394812 C29.2173734,2.63619416 29.2060519,3.41187211 29.2060519,4.16942788 L29.2060519,14.9460266 C29.2380994,15.0456143 29.2654632,15.1482673 29.2654632,15.2598821 C29.2654632,15.8162608 28.8435003,16.2660153 28.3214111,16.2660153 C27.8002805,16.2660153 27.3772855,15.8162984 27.3772855,15.2598821 C27.3772855,15.2464675 27.3744901,11.5379069 27.3688993,4.1342002 Z"></path>
                </g>
            </g>
        </g>
    </g>
</svg>