<?xml version="1.0" encoding="UTF-8"?>
<svg width="31px" height="31px" viewBox="0 0 31 31" version="1.1" xmlns="http://www.w3.org/2000/svg" xmlns:xlink="http://www.w3.org/1999/xlink">
    <!-- Generator: Sketch 51 (57462) - http://www.bohemiancoding.com/sketch -->
    <title>邀请好友 (1)</title>
    <desc>Created with Sketch.</desc>
    <defs></defs>
    <g id="Page-1" stroke="none" stroke-width="1" fill="none" fill-rule="evenodd">
        <g id="常见问题" transform="translate(-57.000000, -174.000000)">
            <g id="Group-4" transform="translate(57.000000, 174.000000)" fill="#1F7CF0" fill-rule="nonzero">
                <g id="邀请好友-(1)">
                    <path d="M1.21109633,30.9028582 C0.532900913,30.9028582 0.145482201,30.5152488 0.145482201,30.0310306 C0.145482201,22.3778665 2.85795508,18.4059868 8.67043157,15.887355 L8.76726763,15.9841532 C6.92662233,14.1436986 6.05479475,11.9154893 6.05479475,9.39679693 C6.05479475,4.26250678 10.1235192,1.81640836e-06 15.3547753,1.81640836e-06 C20.4890957,1.81640836e-06 24.751419,4.06872628 24.751419,9.29998236 C24.751419,10.5592317 24.4608346,11.9154681 23.9765786,12.9810853 C23.5890055,14.0466994 22.9109645,14.918527 22.0389855,15.790509 L21.9421495,15.887345 L22.0389855,15.9841432 C22.523355,16.177967 22.9109645,16.3717527 23.2983862,16.5655392 C23.4921722,16.6623374 23.6858079,16.7591738 23.7827951,16.8561237 C23.8795933,16.9529598 24.1702168,17.1467457 24.1702168,17.4373683 C24.1702168,17.6311543 24.1702168,17.8247901 24.0733807,18.1154124 C23.8795948,18.4059968 23.6858076,18.5998212 23.2015532,18.6966176 C23.1046036,18.6966176 22.9109687,18.5998194 22.7171443,18.5029831 C21.9421525,18.1154099 21.1671607,17.6311555 20.1015072,17.2435824 C18.5514842,18.1154099 16.9046587,18.5029831 15.2578121,18.5029831 C13.6109897,18.5029831 12.351592,18.1154099 10.8017083,17.3403818 C4.21420061,19.665436 2.47050912,24.12167 2.56732369,29.6434303 C2.56732369,30.612245 1.88912827,30.8058802 1.21108725,30.8058802 L1.21108725,30.9028676 L1.21109633,30.9028582 Z M15.1609915,2.03443791 C11.092267,2.03443791 7.70163806,5.42491549 7.70163806,9.39679511 C7.70163806,13.4655196 10.9953313,16.7591826 15.1609915,16.7591826 C17.0984332,16.7591826 19.0358749,15.9841514 20.2952816,14.7249021 C21.0703128,13.9499103 21.5547186,13.1748791 21.9421404,12.3998873 C22.3295621,11.5280597 22.6203358,10.559242 22.6203358,9.39679209 C22.6203358,5.42491246 19.2296766,2.03443489 15.1609824,2.03443489 L15.1609915,2.03443791 Z M25.1389767,30.9996728 C24.6546072,30.9996728 24.0733626,30.5152639 24.0733626,29.9340587 L24.0733626,26.4465849 L20.5858888,26.4465849 C20.1014799,26.4465849 19.5202747,25.962176 19.5202747,25.3809707 C19.5202747,24.8967132 20.0046835,24.3153566 20.5858888,24.3153566 L24.1701771,24.3153566 L24.1701771,20.8278526 C24.1701771,20.3436344 24.654586,19.7622384 25.2357913,19.7622384 C25.7202001,19.7622384 26.3014054,20.2466473 26.3014054,20.8278526 L26.3014054,24.4122923 L29.7888792,24.4122923 C30.2732881,24.4122923 30.8545327,24.8967011 30.8545327,25.4779064 C30.8545327,25.9621639 30.3701238,26.5435205 29.7888792,26.5435205 L26.3014054,26.5435205 L26.3014054,30.0310246 C26.2046069,30.6122299 25.7202001,30.9996516 25.1389555,30.9996516 L25.1389767,30.9996728 Z" id="Shape"></path>
                </g>
            </g>
        </g>
    </g>
</svg>